<?xml version="1.0" standalone="no"?>
<!DOCTYPE svg PUBLIC "-//W3C//DTD SVG 1.1//EN" "http://www.w3.org/Graphics/SVG/1.1/DTD/svg11.dtd" >
<svg>
<metadata>
Created by FontForge 20120731 at Fri Jun 17 04:48:24 2022
 By ffonts
Imagex 2022
</metadata>
<defs>
<font id="JumpingFlash" horiz-adv-x="1730" >
  <font-face 
    font-family="Jumping Flash"
    font-weight="400"
    font-stretch="normal"
    units-per-em="2048"
    panose-1="3 0 6 0 0 0 0 0 0 0"
    ascent="1638"
    descent="-410"
    x-height="2249"
    cap-height="2789"
    bbox="0 -1167.14 5435.13 3168"
    underline-thickness="150"
    underline-position="-142"
    unicode-range="U+0020-20AC"
  />
<missing-glyph horiz-adv-x="2175" 
d="M60 14v2798h2007v-2798h-2007zM112 66h1903v2694h-1903v-2694z" />
    <glyph glyph-name=".notdef" horiz-adv-x="2175" 
d="M60 14v2798h2007v-2798h-2007zM112 66h1903v2694h-1903v-2694z" />
    <glyph glyph-name=".null" horiz-adv-x="0" 
 />
    <glyph glyph-name="nonmarkingreturn" horiz-adv-x="550" 
 />
    <glyph glyph-name="space" unicode=" " horiz-adv-x="819" 
 />
    <glyph glyph-name="space" unicode="&#xa0;" horiz-adv-x="819" 
 />
    <glyph glyph-name="exclam" unicode="!" horiz-adv-x="1815" 
d="M983 2617h46q40 0 160 -42q10 0 68 -23q35 0 102 -63q51 -20 164 -122q56 -43 94 -116q78 -77 78 -194q6 0 12 -57q0 -92 -50 -303q-27 -134 -81 -361q-27 -125 -65 -426q-46 -168 -62 -277q-30 -117 -115 -334q0 -55 -94 -169q-29 -65 -60 -114v-13q58 -72 58 -83
q81 -141 81 -245q-29 -256 -50 -256q-29 -78 -141 -176q-83 -70 -179 -70q-160 0 -271 46l-42 -3h-48q-113 0 -266 71q-75 47 -135 112q-95 105 -119 227q-8 54 -8 75v50q0 192 118 304l122 96q-100 63 -133 139q-23 82 -23 102q8 261 12 275l-12 194q16 219 24 468l-8 456
q23 204 27 263q-4 74 -4 129q10 73 31 104q61 83 279 168q354 162 490 168zM312 2170l4 -122q0 -39 -27 -268l8 -455q-8 -269 -23 -464l11 -188q-3 -57 -11 -277q0 -53 51 -107q42 -25 150 -48q194 -97 343 -97h19q96 0 106 141q0 126 46 273q54 357 66 475q0 37 54 310
q34 228 57 476q7 32 12 230q38 181 38 252v12q0 142 -197 175h-24q-83 0 -367 -120l-259 -120q-57 -37 -57 -78zM1346 2346v-57q0 -39 -43 -298q0 -154 -27 -361q0 -61 -61 -424q-22 -69 -50 -358q-8 -29 -58 -353q-38 -106 -38 -258q-1 0 -19 -76q119 66 127 115
q65 126 147 394q19 106 57 261q35 217 42 308q20 75 50 236q11 31 58 232q50 259 50 296q-32 140 -150 273zM189 -261v-27q0 -210 247 -335q91 -32 163 -32h28q11 10 34 12l23 -4q78 18 225 134q54 82 54 157q-23 137 -70 189q-129 139 -171 139q-149 85 -269 85h-4
q-95 0 -223 -145q-37 -73 -37 -173zM927 18v-36q109 -91 142 -211q23 -100 23 -131q-22 -162 -56 -192q-19 -45 -88 -97q-43 -32 -60 -32v-31l68 -4q139 0 196 101q49 47 49 133q5 0 15 142q-11 70 -95 211q-72 73 -194 147z" />
    <glyph glyph-name="quotedbl" unicode="&#x22;" horiz-adv-x="2224" 
d="M1427 2807q266 -27 335 -71q82 -51 136 -142q0 -7 76 -86l60 -67q18 -37 60 -102q22 -85 22 -101q0 -113 -45 -231q-53 -193 -134 -371q-78 -214 -186 -358q-59 -84 -130 -134q-129 -71 -201 -71h-27q-105 0 -286 128q-36 30 -55 30h-12q-39 -65 -71 -100
q-71 -73 -214 -96h-31q-108 26 -145 52q-78 41 -278 221q-44 32 -100 159q-54 81 -87 297l-54 444v76q0 206 55 243q23 46 199 125q90 57 239 106q165 41 307 41h11q76 0 167 -67q85 37 360 75h29zM961 1651q0 -103 136 -197q84 -52 185 -52h4q84 0 171 123q84 69 272 540
q62 274 62 365q0 98 -38 129q-57 73 -106 73q-47 30 -118 30q-78 16 -113 16q-68 0 -301 -54q-46 0 -62 -179q-44 -74 -77 -640zM189 2245q0 -50 39 -347q35 -296 62 -296q46 -94 182 -145q17 -5 35 -5h15q88 0 168 109q0 9 125 256q113 248 170 641q4 38 4 72
q-18 140 -129 140q-197 -10 -269 -34q-51 -10 -364 -175q-38 -23 -38 -143v-73z" />
    <glyph glyph-name="numbersign" unicode="#" horiz-adv-x="3572" 
d="M1365 2711q283 -20 283 -40q185 -101 262 -156h13q12 0 59 65q182 99 310 104h38q152 0 337 -128q74 -44 147 -73q143 -97 143 -261q0 -47 -19 -113q49 -14 144 -75q36 -23 96 -73q36 -21 170 -119q59 -24 97 -93q18 -85 19 -85q0 -36 -57 -196q-57 -110 -89 -227
q0 -19 1 -19l-8 -54h5q-7 -54 -60 -126q-23 -20 -143 -93q61 0 78 -121v-3q0 -10 -13 -45h5q-55 -259 -106 -343q-55 -120 -139 -193q-30 -30 -202 -76l-40 -194q0 -94 -35 -291q-7 -102 -26 -258v-69q-14 -101 -40 -126q-67 -80 -145 -80q0 -8 -24 -8h-111q-34 0 -78 4
q-74 -11 -141 -11h-23q-105 0 -190 42q-37 -4 -44 -4q-44 0 -214 161h-16q-118 -142 -214 -142q0 -13 -357 -23q0 -4 -13 -4q-138 16 -217 48q-59 40 -105 114q-19 38 -207 214q-60 60 -71 110q10 84 52 281q9 71 9 135q-17 0 -64 31q-33 0 -91 61q-47 38 -231 229
q-34 91 -40 99q22 300 57 375q25 82 86 154q29 47 91 85q0 8 6 20q-42 63 -133 163q-14 0 -26 144l3 23q-3 37 -3 69v7q0 102 94 327q64 86 150 113q56 30 317 49q25 0 41 154q19 95 19 190l-3 7q3 111 37 210q37 69 88 69q237 57 393 57q0 4 88 8zM894 2536q-20 0 -25 -133
q0 -8 4 -47q0 -18 -23 -190q0 -53 -12 -116q0 -43 275 -237q44 448 63 512q15 27 32 50v22q-19 0 -41 13q-28 23 -124 63q0 17 -95 46q-42 17 -54 17zM914 1587h-8q-96 0 -125 -94q-22 -88 -37 -115l5 -9l-8 -27l4 -8q-15 -50 -32 -50q14 -25 14 -23q-18 -63 -23 -65v-28v-4
q0 -19 -5 -19l3 7l3 -6h-5l7 -15h-5q50 -96 135 -132q157 -23 256 -23l-24 -186q-84 7 -144 7h-38q-185 0 -224 -46q-51 -24 -159 -321q-6 -22 -19 -42q-4 -21 -21 -21l13 -25q-4 -17 -20 -17l13 -25v-5q0 10 -4 10q0 -20 8 -42h3v-23q12 0 12 -25l31 -22q35 -42 243 -42
q126 -4 211 -4q-36 -340 -67 -497q-77 -206 -77 -245v-16q0 -71 171 -91q10 0 27 -3q158 11 357 19q91 43 120 108q32 58 63 306q31 104 49 403q-1 0 4 12q160 0 336 25q-36 -349 -48 -427q-46 -290 -46 -325q0 -97 133 -143q34 -9 88 -9q64 0 146 11q73 -3 131 -3h61
q83 0 83 94v68q23 230 62 499q0 88 37 225q5 22 5 49v62q269 65 269 97q35 33 82 133q18 30 36 75l24 68q0 -8 9 -8l-9 25q0 1 16 53l-4 7l23 72l-4 7q7 12 7 42v16l6 -11q-6 0 -6 32v0l-1 -4q-38 41 -79 43q-239 -22 -302 -41l19 159h-8q401 33 458 88q12 0 41 56l-5 11
q0 2 13 2l-9 23l5 32h3q-1 -2 -1 27v0q45 165 100 258q0 12 18 49q14 56 29 56q-12 25 -12 22l6 11q-6 11 -6 -2h12q-29 59 -61 59h-11q-27 0 -501 -56v-4q0 97 62 559q0 121 -129 164q-19 5 -31 5q-69 0 -295 -121l-128 -83q-42 0 -116 -564h-33q-159 0 -260 -10
q105 485 105 614v38q0 43 -46 79q-44 58 -130 58q-286 -46 -436 -96q-41 0 -57 -243q-31 -304 -60 -468q-136 -11 -298 -11zM2059 2358v-27q11 -40 11 -59v-75h32q0 34 86 121l-28 14h-33q-6 0 -68 26zM228 1516q10 -156 26 -156q124 -148 187 -179q92 -75 139 -75
q-7 47 -9 54q65 338 111 430v11q-51 63 -85 81q0 20 -138 85q0 5 -25 20h-62l-11 8h-23q-47 -23 -75 -124q-24 -45 -35 -155zM2043 972v11q-15 -86 -15 -162v-29q-205 -15 -227 -15q-32 4 -82 4q15 136 27 178q36 5 104 5h8q11 0 15 2l5 -2q139 8 165 8zM312 973
q-98 -113 -115 -238l-23 -224v-12q0 -51 85 -106q40 -50 85 -84q0 88 107 346q37 94 112 191q-57 22 -163 105q-17 15 -64 17q0 5 -24 5zM605 32q-10 -141 -24 -210q-27 -121 -27 -150q6 -54 147 -170h23q0 24 61 194q24 127 44 325h-107q-66 0 -117 11zM1781 17h-45
q0 -110 -65 -472q-4 -39 -17 -79q39 -38 77 -56q68 463 68 503q4 0 9 117z" />
    <glyph glyph-name="percent" unicode="%" horiz-adv-x="3123" 
d="M911 2849q175 0 288 -71q0 -2 89 -64q78 -89 161 -283q41 -77 87 -180l16 -8h10q29 17 118 178q3 2 86 169q100 125 105 125q137 112 239 115q0 6 25 8q56 0 157 -39q67 0 284 -105q112 -78 201 -158q116 -157 181 -327l35 -76q17 -44 -21 -150q-7 -66 -62 -128
q-148 -207 -200 -328q-78 -97 -180 -249q-84 -99 -84 -124q-47 -100 -179 -323q-20 -50 -20 -84q214 -24 281 -46q133 -47 247 -226q70 -108 183 -382q3 0 1 3l-2 -5v-28q15 -46 40 -193q8 0 10 -66q-8 -255 -30 -277q-10 -65 -116 -174q-102 -90 -211 -123
q-82 -57 -239 -95q-105 -20 -154 -20h-31q-227 0 -412 169q0 6 -61 65q-127 155 -127 347q0 23 4 92v18h-25l-97 -141q-14 -34 -129 -182q0 -15 -94 -189q-41 -52 -88 -140q-71 -100 -234 -100q-113 0 -280 102q-77 48 -346 241q-92 46 -132 128q-22 70 -22 98q0 30 -16 101
q-38 148 -58 238q-14 25 -14 57v42q0 64 85 199q16 19 137 236q32 17 110 180l75 105q23 22 55 98q60 74 77 131q18 20 112 190q-223 49 -304 101q-106 67 -124 91q-10 0 -87 65q-16 1 -50 75q-29 31 -29 68q-17 12 -34 68v37q-13 16 -46 158v54q-12 52 -12 83v141
q14 115 34 140q18 15 79 129q108 130 135 188q134 123 201 145q100 69 238 87q73 12 164 19zM193 2168v-40h32q0 62 179 249q126 95 226 123q194 50 291 50h39q85 -2 255 -57l86 -50q-56 150 -144 232q-112 87 -264 87q-180 -14 -266 -55q-84 -40 -183 -121q-46 -44 -72 -99
q-98 -116 -135 -196q-44 -55 -44 -123zM1560 2012v-93q0 -58 -40 -213q209 272 262 371q77 142 262 347q74 80 158 80q0 7 28 7q75 -5 176 -63q135 -96 292 -151q25 -7 103 -49q-60 132 -139 237q-207 179 -383 219q-139 35 -164 35h-11q-77 0 -160 -89q-84 -93 -115 -165
q-85 -181 -230 -391q-17 -52 -39 -82zM266 1827v-12q0 -182 69 -237q0 -8 66 -84q96 -86 197 -118q127 -55 269 -55q118 0 239 60l90 71q147 172 172 238q62 120 62 248v8q0 188 -88 281q-79 90 -149 126q-92 56 -177 56q-22 11 -88 11q-193 -15 -307 -62q-94 -39 -194 -145
q0 -7 -50 -63q-111 -199 -111 -323zM312 -377q0 -73 111 -123l114 -83q194 -148 274 -178q75 -52 129 -52h58q79 0 109 73q21 43 80 122q74 165 137 248q43 48 101 147q74 98 263 387q0 7 95 148q25 77 159 220q46 67 108 170q85 124 109 209q22 28 79 133q43 66 115 226
q95 109 146 196q47 66 85 111l103 185l150 215q10 17 10 38q0 94 -331 212l-246 147l-43 4q-60 0 -96 -55q-142 -154 -201 -255q-67 -127 -329 -475q-65 -100 -174 -297q-108 -153 -179 -267q-89 -104 -181 -251q-98 -158 -319 -487q-209 -350 -371 -551q-65 -76 -65 -117z
M871 1951h12q47 0 47 -96q-11 -64 -77 -64q0 -4 -16 -4q-69 0 -86 46v28q0 50 90 87q18 3 30 3zM1262 1338q-112 -97 -213 -119l-157 -34q0 -13 -56 -87q-66 -125 -111 -193l-104 -172q-47 -61 -134 -223q-102 -134 -142 -223q-129 -186 -129 -253v-10q24 -107 55 -180h20
q137 167 327 486l429 656q112 142 250 352h-35zM1944 335v-33q197 114 351 125h54q169 -8 335 -92h30q-50 100 -124 180q-69 83 -161 109q-117 27 -180 27q-13 0 -55 -14l-64 -54q-25 -61 -186 -248zM1756 -311q0 -174 153 -310q87 -91 235 -127q66 -3 102 -3q193 0 351 100
q104 34 176 103q97 79 97 206q0 32 8 146q0 158 -150 336q-90 84 -161 103q-27 22 -153 47q-32 8 -69 8h-30q-58 0 -174 -40q-230 -103 -304 -264q-81 -163 -81 -290v-15zM2303 -153q85 0 105 -68v-14q0 -41 -50 -59l-21 -3h-21q-91 19 -91 76q19 65 77 65q0 3 1 3z" />
    <glyph glyph-name="ampersand" unicode="&#x26;" horiz-adv-x="3625" 
d="M1512 2673h73q95 0 263 -50q82 0 180 -39q130 -14 591 -122q97 -96 124 -164q12 -40 50 -138q21 -61 30 -186q-4 -27 -4 -44v-102q-22 -190 -76 -307q-19 -77 -182 -271q-3 0 -84 -81q-80 -73 -80 -106q26 -14 56 -14h169q251 0 432 -147q153 -140 188 -239
q11 -24 14 -79q-11 -76 -93 -208q-89 -113 -141 -183v-19q16 -15 120 -61q80 -45 232 -147q20 0 127 -106q13 -21 13 -37v-23q0 -57 3 -108q-3 -24 -3 -50l3 -16q-15 -151 -51 -230q-93 -151 -261 -205q-72 -18 -165 -18h-57q-176 0 -402 60q-51 31 -208 81q-103 39 -214 93
q-35 -62 -152 -149q-148 -97 -238 -97q-54 -7 -149 -15q-384 31 -416 31q0 8 -161 15q-17 6 -216.5 55t-271.5 97q0 5 -171 107q-108 81 -178 148q-130 152 -138 274q-8 16 -8 57v35q0 109 64 352q63 137 167 272q47 48 228 263q5 12 5 23q-82 131 -172 483q-8 39 -8 85v211
q0 181 80 479q131 249 470 419q82 50 344 98q218 23 274 23zM473 1643v-189q0 -143 141 -470q59 -99 59 -128q0 -38 -127 -168q-51 -73 -146 -173q-167 -216 -188 -375q-23 -126 -23 -186v-12q0 -196 237 -356q46 -39 259 -164q186 -74 305 -74q275 0 549 190q49 26 167 76
q123 72 148 72h15q26 0 359 -168q358 -162 505 -162q86 0 192 133q36 66 95 271q0 48 -148 95q-227 96 -408 210q-128 78 -128 107q0 33 126 128q162 163 187 221q48 42 48 85q0 69 -248 219q-152 109 -192 110h-23q-29 0 -132 -91q-250 -174 -267 -174h-16q-34 0 -157 172
q-47 44 -47 75v4q0 39 228 196q121 86 194 151q118 138 164 257q85 152 85 394v8q0 203 -125 339q-85 123 -279 199q-174 78 -297 78h-61q-329 -18 -438 -58q-141 -44 -222 -97q-117 -64 -246 -195q-102 -129 -102 -234q-43 -174 -43 -316zM2209 2436v-27q151 -168 180 -278
q27 -112 27 -193v-31q0 -124 -37 -277q58 25 184 33q5 7 53 19h44q32 139 37 190q0 9 -4 16q-2 291 -26 291q-42 145 -74 145q0 25 -268 81zM1586 1978h22q46 0 68 -64q7 -15 7 -44q-12 -96 -128 -273q-162 -205 -223 -205q-36 0 -83 175q-7 15 -7 56v20q0 142 76 197
q86 95 174 114q0 12 94 24zM2562 931v-26q126 -70 214 -166q32 -39 46 -95l60 -11q8 5 12 5h4q-10 0 -10 -13l25 13h6q37 -11 67 -11h150q-82 115 -165 175q-185 106 -245 106q-96 19 -146 23h-18zM1036 358q20 0 126 -119q33 -24 33 -51q0 -49 -180 -98h-28q-56 8 -56 55
q0 92 85 205q11 8 20 8zM2719 94v-27q181 -80 329 -141q93 -63 93 -148q8 0 8 -19q-15 -103 -99 -314q-26 -50 -116 -143h37q90 -4 100 -4q256 6 324 159q31 125 31 197q-6 148 -37 148q-25 31 -195 129q-104 79 -301 144q-94 8 -155 19h-19z" />
    <glyph glyph-name="quotesingle" unicode="'" 
d="M1233 3125q251 0 318 -124q37 -58 63 -214q8 -88 8 -108q-15 -192 -53 -307q-85 -234 -171 -319q-41 -72 -144 -168q-9 0 -193 -159q-29 -11 -140 -94q-156 -104 -280 -151q-99 -25 -164 -78q-70 -29 -112 -29h-23q-73 0 -170 48q-40 26 -76 72q-36 71 -36 124v26
q0 47 77 413q11 189 31 394l-24 155v6q0 99 94 173q116 64 299 113q176 34 176 50l30 20q163 59 239 92q0 20 261 63q0 2 -10 2zM1324 3007h-37q-146 0 -345 -94q89 -53 155 -104q140 -135 156 -211q31 -114 31 -170v-61q0 -83 -83 -302l-37 -70h33q158 180 202 281
q105 206 105 323q15 58 23 121q-14 187 -45 232q-57 58 -131 58zM274 2607q23 -127 23 -151q-19 -229 -31 -414q-77 -351 -77 -409v-12q0 -78 104 -110q38 -7 60 -7h14q57 14 119 65q16 19 202 140q135 97 228 190q128 130 180 251q59 171 59 228v38q0 205 -195 331
q-90 60 -203 60q-166 -9 -438 -125q-45 -32 -45 -75z" />
    <glyph glyph-name="parenleft" unicode="(" horiz-adv-x="2017" 
d="M1064 2481q64 -4 186 -64q47 -10 228 -138q73 -34 240 -168q141 -121 141 -149q8 -17 8 -47v-19q0 -45 -76 -156q-4 -26 -133 -209q-117 -251 -117 -298l-31 -160l-15 -202q20 -211 61 -361q59 -204 128 -385q65 -190 168 -273q57 -64 57 -129q0 -115 -56 -251
q-62 -103 -201 -203q-38 -57 -204 -92q-65 -19 -124 -19h-38q-104 0 -292 42q-242 49 -366 215q-120 103 -217 247q-129 189 -218 465q-125 406 -125 618l-8 99q8 114 8 246q0 55 68 368q69 199 229 485q47 77 190 227q259 248 396 283q0 12 113 28zM197 1071
q0 -144 -8 -223q20 -317 63 -461q111 -399 227 -590q82 -140 217 -272q127 -138 165 -138q0 -8 53 -8h3q61 0 182 126q138 99 216 174q58 65 58 121q0 48 -71 145q-42 107 -123 260q-41 80 -114 341q-65 139 -65 245q-38 177 -38 283q23 241 49 327q99 273 129 307
q77 139 134 214q106 129 106 185q0 73 -114 158q-165 78 -211 86q-97 -26 -183 -82q-75 -38 -306 -279q-140 -150 -307 -577q-62 -267 -62 -342zM1510 2113q0 -111 -116 -246q-60 -79 -162 -263q-21 -30 -105 -279q-13 -25 -36 -257q0 -65 55 -381q41 -81 108 -324
q42 -104 141 -293q0 -30 75 -143q17 -33 17 -60h60q7 -5 34 -17l11 5h9q-11 0 -11 -13l25 13h9q-10 0 -10 -14l25 14q11 0 49 -21v33q-75 98 -117 222q-87 223 -87 231q-65 215 -73 259q-31 116 -42 307v61q25 257 53 306q28 68 39 144q109 233 202 364q82 137 82 163
q-71 84 -148 140l-64 49h-23z" />
    <glyph glyph-name="parenright" unicode=")" horiz-adv-x="2017" 
d="M905 -842q-64 4 -186 64q-47 10 -228 138q-73 34 -240 168q-141 121 -141 149q-8 17 -8 47v19q0 45 76 156q4 26 133 209q117 251 117 298l31 160l15 202q-20 211 -62 361q-58 204 -127 385q-65 190 -168 273q-57 64 -57 129q0 115 56 251q62 103 201 203q38 57 204 92
q65 19 124 19h38q103 0 348 -57q186 -34 310 -200q120 -103 217 -247q129 -189 218 -465q125 -406 125 -618l8 -99q-8 -114 -8 -246q0 -55 -69 -368q-68 -199 -228 -485q-47 -77 -190 -227q-259 -248 -396 -283q0 -12 -113 -28zM1772 568q0 144 8 223q-20 317 -63 461
q-111 399 -227 590q-82 140 -217 272q-127 138 -165 138q0 8 -53 8h-3q-61 0 -182 -126q-138 -99 -216 -174q-58 -65 -58 -121q0 -48 71 -145q42 -107 123 -260q41 -80 114 -341q65 -139 65 -245q38 -177 38 -283q-23 -241 -49 -327q-99 -273 -129 -307q-77 -139 -134 -214
q-106 -129 -106 -185q0 -73 114 -158q165 -78 211 -86q97 26 183 82q75 38 306 279q140 150 307 577q62 267 62 342zM459 -474q0 111 116 246q60 79 162 263q21 30 105 279q13 25 36 257q0 65 -55 381q-41 81 -108 324q-42 104 -141 293q0 30 -75 143q-17 33 -17 60h-60
q-7 5 -34 17l-11 -5h-9q11 0 11 13l-25 -13h-9q10 0 10 14l-25 -14q-11 0 -49 21v-33q74 -98 117 -222q87 -223 87 -231q65 -215 73 -259q31 -116 42 -307v-61q-25 -257 -53 -306q-28 -68 -39 -144q-109 -233 -202 -364q-82 -137 -82 -163q71 -84 148 -140l64 -49h23z" />
    <glyph glyph-name="plus" unicode="+" horiz-adv-x="2727" 
d="M1365 2024q159 -15 308 -109q65 -41 184 -140q42 0 104 -35q130 0 295 -112q250 -227 265 -282q47 -31 76 -82q22 -71 22 -97v-188q0 -255 -56 -463q-81 -107 -174 -107q-126 -42 -242 -63v-177q-12 -336 -28 -336q-22 -78 -100 -128q-35 -26 -227 -56q-84 0 -378 -69
h-59q-54 0 -139 40q-54 43 -81 83q-131 101 -235 145q-58 34 -112 94q-39 27 -77 92q-14 22 -14 50v70l-66 41q-51 58 -255 185q-201 134 -252 259q-31 65 -49 218q0 33 -15 157q0 27 8 60q-4 42 -4 65q28 138 96 210q113 101 176 119q35 24 274 50l10 34q-3 43 -3 64v54
q0 76 107 212q42 37 123 61q494 81 518 81zM731 1685v-85q0 -13 46 -96q0 -33 62 -79q65 -70 168 -128q0 -6 43 -32v120q0 65 48 142q68 94 243 149q107 53 258 91h39q-106 105 -281 143l-47 4h-14q-261 -35 -387 -62q-132 0 -171 -113q-7 -38 -7 -54zM1180 1378
q11 -251 11 -292t-87 -47q-381 -21 -381 -55q-108 -52 -108 -209q0 -224 51 -400q39 -94 86 -94h17q261 50 434 96q46 0 46 -82q0 -238 -31 -429v-9q22 -148 148 -148h27q18 0 260 54q225 24 293 51q60 15 60 150q12 166 12 216v158q0 105 60 125q22 9 136 26q95 34 194 54
q55 29 55 138q27 104 27 309v173q0 87 -102 94h-31q-50 0 -292 -54q-52 -22 -97 -30q-26 0 -31 44l4 22q-2 356 -27 356q-22 58 -110 58h-65q-139 0 -358 -101q-158 -54 -189 -119q-12 -37 -12 -55zM2047 1604q19 -76 19 -142v-121h19l239 48q-131 123 -159 151
q-37 15 -118 64zM209 1254v-19q102 -15 130 -43q17 -21 59 -40q13 -17 129 -82q0 -15 58 -34q96 121 381 121v29q-26 4 -215 148q-63 73 -217 73h-32q-156 -20 -211 -57q-57 -44 -82 -96z" />
    <glyph glyph-name="comma" unicode="," 
d="M1233 901q251 0 318 -124q37 -58 63 -214q8 -88 8 -108q-15 -192 -53 -307q-85 -234 -171 -319q-41 -72 -144 -168q-9 0 -193 -159q-29 -11 -140 -94q-156 -104 -281 -151q-233 -107 -275 -107h-23q-73 0 -170 48q-40 26 -76 72q-36 71 -36 124v26q0 47 77 413
q11 189 31 394l-24 155v6q0 99 94 173q116 64 300 114q368 128 444 161q0 20 261 63q0 2 -10 2zM1324 783h-37q-146 0 -345 -94q89 -53 155 -104q140 -135 156 -211q31 -114 31 -170v-61q0 -83 -83 -302l-37 -70h33q158 180 202 281q105 206 105 323q15 58 23 121
q-14 187 -45 232q-57 58 -131 58zM274 383q23 -127 23 -151q-19 -229 -31 -414q-77 -351 -77 -409v-12q0 -78 104 -110q38 -7 60 -7h14q57 14 119 65q16 19 202 140q135 97 228 190q128 130 180 251q59 171 59 228v38q0 205 -195 331q-90 60 -203 60q-166 -9 -438 -125
q-45 -32 -45 -75z" />
    <glyph glyph-name="hyphen" unicode="-" horiz-adv-x="2366" 
d="M372 1187h8q36 0 206 -23q35 0 465 -38q111 0 236 -4q259 46 411 54q56 -18 162 -123q4 0 84 -84l157 -132q0 -4 120 -104q19 -17 37 -93q-3 -37 -3 -61v-49q-27 -185 -50 -285q-28 -120 -135 -247q-94 -83 -197 -99q-52 -20 -190 -27q-132 -39 -365 -39q0 -4 -32 -4h-88
q-19 0 -34 4q-22 -4 -39 -4h-54q-107 0 -283 42l-121 56l-84 52q-9 17 -100 75q-163 99 -354 305q-35 35 -65 161l-4 59q0 88 100 450q13 65 96 130q77 28 116 28zM189 576q0 -170 216 -255q40 -26 413 -109q68 -11 168 -11h27q201 0 581 93q128 67 128 170v12q8 149 12 395
q0 58 -94 149q-31 19 -59 19q-17 0 -263 -43l-25 -3q-318 0 -578 34q-131 0 -286 27q-14 4 -53 4q-71 0 -97 -75l-78 -316q-12 -71 -12 -91zM1863 847q0 -104 -11 -383v-11q0 -28 -29 -118q46 0 57 -16q8 -14 67 -41q7 -22 56 -45l73 -76q41 70 41 144q21 0 31 221
q0 133 -71 177l-141 106q-49 42 -73 42z" />
    <glyph glyph-name="period" unicode="." horiz-adv-x="1703" 
d="M768 682h12q96 0 235 -64q99 -70 164 -125q89 -53 121 -102q4 -22 81 -79q103 -103 146 -198l53 -147q15 -97 15 -115q-15 -159 -49 -222q-36 -112 -112 -180q-173 -192 -428 -192q-143 0 -210 50q-30 3 -246 143q-16 17 -142 92q-31 30 -142 100q-145 134 -180 250
q-26 96 -26 150v15q0 114 60 275q26 58 170 195q56 60 263 120q132 34 215 34zM189 47q0 -178 187 -324q127 -67 231 -67q235 0 467 247q131 152 131 255q0 109 -135 252q-147 142 -302 142q-150 0 -377 -106q-167 -152 -171 -224q-31 -77 -31 -175zM1338 148
q-30 -162 -82 -219q-71 -98 -114 -148q58 -31 60 -41q34 -12 71 -49q22 0 104 -81q7 0 22 -50h23q59 135 59 260q0 83 -39 175q-63 132 -104 153z" />
    <glyph glyph-name="zero" unicode="0" horiz-adv-x="2954" 
d="M1935 2442h2l158 -19q132 0 335 -105q154 -92 199 -199q58 -87 136 -334q19 -116 50 -240q8 -139 19 -267l-4 -47q16 -87 16 -253v-57q0 -109 -11 -109l7 -34v-49q0 -88 -42 -393q-10 -80 -72 -196q-62 -142 -163 -266q-158 -170 -212 -201q-130 -123 -328 -205
q-188 -92 -296 -92q-255 -65 -439 -65h-4q-20 0 -27 20l-18 -8h-105q-445 0 -715 284q-91 89 -145 174q-58 71 -136 272q-80 286 -80 496v341q0 318 209 803q135 192 248 327q236 230 330 266q191 108 310 133q371 40 778 23zM189 879v-319q0 -338 152 -639
q61 -114 213 -265q233 -204 578 -204q322 0 354 51q22 3 216 176q131 124 145 164q136 143 154 209q114 202 128 290q77 263 77 510v318q-16 292 -50 468q-85 270 -133 346q-217 317 -584 317q-279 0 -328 -32q-250 -100 -383 -232q-75 -55 -171 -171q-209 -271 -214 -339
q-154 -369 -154 -648zM2088 2113q92 -110 152 -322q38 -93 68 -277q16 -145 27 -332v-342q0 -266 -102 -602q-78 -224 -206 -391q-70 -69 -138 -169q-143 -137 -156 -137v-31h38q85 9 386 167q63 39 124 97q160 101 249 257q148 254 148 399q15 39 38 295q-4 55 -4 92v127
q-13 670 -40 670q-48 257 -95 330q-10 41 -93 196q-21 0 -89 4q-97 0 -307 -31zM1386 1617q84 6 138 -29q66 -42 66 -97q20 -77 20 -136q0 -269 -43 -504q-72 -244 -166 -403q-80 -129 -125 -177q-45 -43 -212 -92l-21 -4q-60 0 -110 96q-22 36 -32 207q-4 19 -4 40
q18 289 60 403q41 172 84 239l73 154q52 97 134 179q111 124 138 124zM1285 1340q-85 -129 -122 -239q-46 -58 -90 -245q-28 -77 -49 -365q64 42 173 63q141 42 141 61q127 248 127 466q11 97 15 274q-6 110 -33 110q-8 0 -43.5 -5t-118.5 -120z" />
    <glyph glyph-name="one" unicode="1" horiz-adv-x="2409" 
d="M971 2423h14q188 -31 494 -42q0 -2 49 -8q43 4 76 4q68 0 157 -51q192 -193 336 -317q182 -184 204 -272l-8 -75q4 -106 4 -135q0 -142 -42 -478q-23 -704 -43 -891q-19 -604 -64 -798q-54 -96 -80 -193q-114 -94 -154 -94q-124 -19 -281 -23q0 -6 -86 -11
q-197 3 -272 11q-15 -8 -39 -8h-13q-58 20 -195 130q-47 14 -210 155q-62 39 -154 119q-81 50 -142 134q-32 72 -32 147q0 157 85 1032q-135 27 -183 58q-94 81 -118 161q-77 95 -140 217q-74 63 -74 148v19q0 104 161 279l220 238q42 60 150 181q119 146 215 280
q74 83 165 83zM189 1364v-21q0 -19 77 -112q0 -19 137 -217q45 -119 151 -119q0 -7 64 -7q11 0 90 23h3q8 -4 8 -24l-54 -556q-46 -504 -46 -604q0 -102 76 -135q70 -44 127 -44q165 31 522 46q152 5 152 42q19 0 56 442q12 0 82 993q0 193 61 689l42 350v20q0 90 -135 118
q-62 -4 -73 -4q-63 11 -351 23q-11 4 -202 27q-59 0 -132 -125q-200 -250 -294 -356q0 -8 -176 -199q-165 -172 -185 -250zM1868 2060q-40 -214 -97 -812q0 -132 -32.5 -574t-63.5 -688q-39 -402 -69 -402v-30q28 -17 150 -140q12 0 80 -53q27 -6 73 -51q6 0 32 -33l21 -7
q49 49 71 166q23 97 61 854q12 353 20 461q0 9 -4 16q0 32 19 265q-4 41 -4 44q27 117 50 510q-8 57 -8 95v57q0 41 -176 210q0 9 -123 112z" />
    <glyph glyph-name="two" unicode="2" horiz-adv-x="2723" 
d="M1313 2715q82 -8 110 -24q20 -20 114 -41q3 0 49 -33q118 -57 187 -111q112 -61 338 -199q162 -134 221 -315q28 -85 53 -316q0 -374 -150 -741q0 -44 -116 -257q-10 0 -10 -38l18 -10q95 4 129 4q141 -26 141 -48q52 -23 101 -95q117 -171 117 -484v-29
q-37 -341 -59 -341q-64 -111 -246 -111q-461 -73 -852 -100q-149 -15 -340 -46q-145 -42 -201 -42h-3q-54 0 -139 40q-60 45 -108 106q-8 0 -136 100q-21 0 -127 93q-221 147 -221 243q-30 216 -46 430q0 7 4 56q-8 117 -8 154q0 66 207 285q8 0 211 208q11 0 66 50v22
q-19 21 -184 96q-140 110 -213 141q-124 165 -148 374q-12 144 -12 225q0 201 287 465q168 114 251 136q36 30 349 111q238 34 366 42zM232 2082q84 -85 156 -114q59 -48 90 -48q135 137 285 236q367 183 448 183q178 57 508 57q-141 88 -289 154q-93 43 -125 43h-47
l-267 -31q-302 -79 -441 -155q-92 -56 -129 -90q-166 -150 -189 -223v-12zM550 1769q0 -30 86 -253q80 -329 126 -329q44 -42 90 -42h23q31 0 306 151q103 41 162 41h19q25 -3 25 -25v-15q0 -61 -170 -253q-67 -112 -257 -351q-3 0 -156 -189q-200 -200 -200 -224
q0 -13 -5 -20q48 -199 120 -395q50 -268 63 -313q63 -85 139 -85q19 0 214 46q160 31 684 73q40 12 314 43q52 15 261 34q65 28 65 95q0 23 27 225v13q0 383 -169 493q-52 16 -71 16q-89 -4 -93 -4q-67 4 -85 4l-200 -27q-10 0 -12 18q0 24 106 175q159 273 159 335
q135 314 135 672q-37 293 -62 293q-24 82 -154 197q-82 69 -219 87q-42 8 -113 12q-399 0 -612 -101q-280 -113 -395 -217q-151 -117 -151 -172v-8zM879 1015h-50q10 0 10 14l-25 -14h-6q-63 23 -78 23q-93 -48 -214 -188q-176 -172 -177 -188q-54 -61 -54 -87v-7
q13 -22 91 -58q51 -45 161 -97q235 242 411 476q43 52 158 223q-153 -93 -227 -97z" />
    <glyph glyph-name="three" unicode="3" horiz-adv-x="2743" 
d="M1213 2446h119q280 0 529 -228q54 -21 194 -167q18 0 155 -151q41 -28 100 -119q83 -153 83 -307q0 -139 -68 -290q-42 -80 -116 -150v-13q0 -12 92 -98q0 -7 107 -119q0 -8 133 -242q62 -138 86 -369l8 -64q0 -292 -45 -385q-63 -204 -116 -272q-17 -63 -230 -276
q-158 -123 -187 -123q-132 -92 -220 -92q-49 -12 -285 -40q0 -2 -36 -2h-69q-285 14 -285 27q-121 26 -226 97q-143 83 -236 168q-36 25 -328 298q-43 82 -43 156q0 97 155 484q68 93 156 93q0 6 10 8q67 -4 110 -4h169q-182 122 -259 200q-21 21 -59 60.5t-71 187.5
q-50 168 -50 210q14 100 53 137q76 67 104 105q-123 16 -187 55q-74 48 -146 153q-78 101 -179 277q-75 96 -75 176v19q0 103 121 192q357 275 690 359q142 49 342 49zM189 1846v-19q0 -28 141 -245q46 -83 147 -207q75 -68 148 -77q53 0 284 175q22 10 111 73
q136 75 180 75q26 -3 26 -21q0 -41 -230 -281q-222 -214 -310 -307q-67 -47 -67 -93q72 -315 122 -315q78 -50 157 -50h19q17 0 141 27h17q131 0 168 -66q14 -23 14 -51v-8q0 -82 -100 -213q-117 -107 -278 -107h-165q-20 0 -53 4q-64 0 -87 -110q-107 -248 -116 -348
q0 -139 279 -248q101 -20 177 -20h69q331 0 795 310q16 12 147 158q204 185 204 324q12 62 15 147q0 94 -77 366q-128 272 -368 399q-42 20 -42 41q0 14 96 105q83 101 157 317q23 113 23 134q0 263 -185 421q-185 181 -428 181h-96q-230 0 -422 -78q-89 -24 -314 -147
q-299 -186 -299 -246zM2047 1860q16 -61 16 -148q0 -86 -75 -295q32 0 104 -74q10 -22 101 -110h20q54 150 54 214v8q-19 99 -30 210q-23 65 -100 133q-61 62 -90 62zM2078 982v-28q105 -122 150 -343q46 -177 46 -254q0 -300 -138 -443q-161 -166 -227 -246l-66 -61
q50 -20 187 -159q6 -20 30 -39q40 -40 65 -95q14 0 50 -28q165 192 165 193q-3 0 52 98q12 16 40 98q21 0 45 146q28 36 32 266l-4 8q4 35 4 58v20q-22 259 -59 316q-49 143 -104 205q-22 72 -125 175q-91 97 -143 113z" />
    <glyph glyph-name="four" unicode="4" horiz-adv-x="3119" 
d="M1817 2611q73 -23 124 -33q48 -30 92 -63q141 -144 244 -312q89 -103 89 -192v-14q-7 -83 -51 -147q-120 -169 -276 -410h33q69 32 286 73h30q81 -4 367 -98q121 -51 163 -72q93 -67 93 -165v-11q0 -66 -85 -385l-115 -551q0 -46 -54 -298q-53 -353 -85 -353
q-7 -26 -60 -73q-33 -35 -141 -54q-65 0 -299 -54q-218 -69 -341 -69h-15q-10 0 -157.5 13t-181.5 43q-148 57 -176 103q-105 117 -105 195l42 464v37q-103 -22 -125 -22h-26q-348 46 -452 69q-87 0 -216 70q-31 29 -62 111q-114 164 -267 609q-11 29 -26 149v46l-4 23
q0 37 62 114q62 101 85 130q109 121 256 314q97 84 226 230q121 117 226 196q77 81 214 183q129 93 133 93q132 50 291 73q146 19 233 38h31zM658 1107q11 -47 150 -356q122 -304 211 -416q47 -40 99 -42q138 25 432 119q244 42 273 42q21 0 25 -36l-58 -368
q-19 -52 -38 -247q-46 -157 -46 -222q0 -94 111 -121q128 0 324 65q72 11 256 54q158 0 181 95q39 162 65 356q20 50 58 316q23 88 73 344q14 39 57 251q50 161 50 237q0 59 -135 94q-95 54 -360 112h-14q-56 0 -366 -97q-246 -95 -267 -95h-8q-13 0 -13 9q0 30 143 219
q32 50 96 134q116 180 235 345q45 72 45 101v7q0 43 -103 169q-175 290 -307 290q-74 0 -352 -335q-244 -245 -416 -497q-68 -124 -255 -347q0 -25 -133 -131q-13 -33 -13 -49zM205 1262v-15q101 -18 111 -18q0 -5 61 -10q0 -8 73 -13l73 -27h18q16 58 145 158
q53 80 173 228q135 221 326 445q0 6 288 314q0 6 93 112h-35q-355 -76 -355 -134l-153 -127q-78 -83 -199 -172q-95 -95 -197 -212q-151 -137 -171 -187q-32 -32 -129 -160q-92 -104 -112 -161q-10 -2 -10 -21zM1360 164q4 -33 4 -53l-31 -434q0 -108 107 -177
q113 -52 168 -52q-32 97 -32 129v12q0 48 54 274q12 118 50 310q11 65 11 97q4 0 4 31q-90 0 -321 -79q-14 -52 -14 -58z" />
    <glyph glyph-name="five" unicode="5" horiz-adv-x="2620" 
d="M2115 2573q79 0 183 -70q114 -100 114 -187q7 0 11 -44q-26 -173 -26 -200q3 -128 3 -172q0 -67 -44 -150q-74 -93 -215 -93q187 -176 226 -262q133 -291 133 -411q7 0 12 -71q-19 -340 -54 -527q-50 -170 -155 -352q-98 -130 -98 -161q-19 -34 -91 -209q-7 0 -61 -117
q-33 -38 -150 -224q-48 -89 -227 -245q-120 -81 -245 -129q-182 -60 -250 -60q-116 -23 -229 -23q-109 0 -333 91q-30 12 -120 114q-52 96 -101 340q-19 70 -19 116q0 54 122 409v18q0 17 -76 50q-104 79 -104 118q-43 99 -73 253q-31 155 -73 334q-34 247 -103 507
q-12 55 -12 74q57 126 113 279q18 15 40 103q73 130 73 246q11 63 66 118q101 96 332 169q328 139 606 214q330 89 765 154h60zM416 1833q23 -365 92 -883q35 -240 62 -340q45 -118 117 -118q66 0 175 139l165 108q49 12 357 177q129 52 148 52h3q52 0 52 -149q3 0 3 -36
v-31q0 -175 -124 -407q-85 -112 -283 -163q-154 -23 -417 -46q-81 -22 -81 -79q0 -50 116 -355q94 -143 152 -143q99 -42 214 -42q402 0 710 234q125 94 218 224q117 142 167 264q90 180 90 335q14 79 30 339q0 140 -128 413q-185 323 -534 323q-140 0 -432 -85
q-5 0 -132 -65q-22 0 -22 -4q-15 0 -15 52v30q0 51 128 71q247 80 397 80q390 58 433 58q22 0 68 -4q126 0 126 125q-4 132 -4 169q0 49 27 195q0 101 -152 169l-30 3h-28q-129 0 -728 -138q-278 -78 -674 -239q-199 -72 -234 -126q-12 -49 -32 -107zM286 1514
q-23 -73 -51 -145q0 -95 -42 -126q0 -22 58 -234q31 -125 61 -337q31 -128 86 -413q10 -19 37 -105h28q0 26 31 116q0 10 49 120l7 26q-81 55 -118 208q-50 261 -65 429q-27 157 -55 461h-26zM596 -194q-88 -276 -88 -290v-42q0 -37 59 -265q52 -152 117 -152
q71 -31 104 -31q60 135 95 198q14 17 14 25q7 0 19 91q15 47 42 80q-135 32 -233 158q-54 78 -97 212v16h-32z" />
    <glyph glyph-name="six" unicode="6" horiz-adv-x="2459" 
d="M1305 2845q51 0 223 -75q193 -90 297 -163q49 -40 109 -121q35 -38 112 -209q7 0 58 -113q4 -26 7 -33q0 -5 -22 -58q-19 -93 -39 -113q-90 -89 -189 -204q-80 -75 -161 -218q219 -59 292 -162q131 -130 205 -289q59 -95 59 -118q21 -89 67 -206q26 -99 26 -268
q0 -167 -60 -321l-165 -317q-88 -133 -293 -334q-171 -134 -332 -178q-82 -30 -142 -30h-69q-283 0 -580 200q-79 58 -192 155q-28 12 -103 126q-64 94 -211 347q-39 38 -106 256q-34 138 -34 175l5 36q-4 60 -7 60q2 23 2 44v145q0 26 31 264q0 90 91 342q12 26 46 148
q79 127 103 220q86 141 150 282q80 123 157 219q17 42 182 201q108 107 197 151q46 37 130 77q45 25 110 72zM164 907q4 -66 4 -101v-36q32 -280 77 -414q6 -1 15 -33h31l-7 38q0 400 35 523q0 94 111 390q87 287 256 537q87 143 232 301q321 311 411 327l39 39
q-32 0 -44 52q-17 12 -47 88q-13 12 -36 61q-95 -46 -191 -117q-29 0 -256 -235q-62 -91 -124 -162q-30 -53 -91 -138q0 -13 -75 -151q-72 -131 -157 -323q-16 -25 -50 -152q-9 -7 -74 -224q-27 -163 -47 -234q-5 0 -12 -36zM414 403q0 -317 172 -612q121 -122 215 -180
q253 -167 498 -167h46q147 0 401 176q253 255 299 366q159 308 159 353q4 14 15 162q0 265 -93 373q-28 67 -169 192q-147 118 -305 118h-11q-90 0 -305 -76h-1q-18 1 -18 16q0 64 155 319q215 317 263 373q14 9 169 181q54 43 54 79q0 96 -207 151q-96 62 -281 117h-17
q-138 -10 -490 -374q-288 -357 -406 -719q-30 -107 -69 -198q-35 -106 -58 -299q-16 -67 -16 -351zM1518 711h8q60 0 70 -94q0 -172 -135 -374q-40 -45 -210 -95l-36 -4q-75 0 -94 171q-4 132 -4 161q0 78 33 136q23 23 215 66q88 33 153 33z" />
    <glyph glyph-name="seven" unicode="7" horiz-adv-x="2593" 
d="M1589 2450h39q83 0 176 -82q208 -94 270 -164q18 -17 89 -120q15 -8 15 -25q159 -155 166 -195q123 -195 133 -296q8 -60 8 -79v-7q-15 -200 -42 -259q0 -27 -115 -262l-157 -372q-55 -117 -127 -381q-96 -232 -130 -380q-35 -61 -62 -178q-38 -121 -118 -339l-41 -59
q-116 -102 -334 -102h-165q-152 0 -339 46q-158 36 -201 70q-182 145 -276 245q-29 32 -55.5 71t-47.5 137q-8 41 -8 58q0 98 122 529q9 21 9 45q-85 0 -163 113q-33 48 -33 245q30 307 89 363q-131 99 -131 107q-52 66 -66 107.5t-20 56.5q-14 67 -14 81v130q0 49 65 339
q23 119 41 119q33 66 118 96q293 53 648 177q85 14 408 111q239 54 249 54zM189 1543v-108q0 -87 96 -117l36 -4q64 0 285 96q9 0 211 84q16 0 219 90q3 2 12 2q13 0 13 -7q-21 -63 -98 -187l-127 -230q-17 -27 -230 -82q-220 -78 -231 -109q-44 -200 -44 -273
q0 -187 30 -187q31 -42 85 -42l106 22q14 -5 14 -17q-66 -264 -126 -467q-20 -73 -43 -233q0 -147 285 -206q31 -16 159 -32q27 4 41 4q151 -15 193 -15h19q85 0 106 146q17 95 73 265q0 54 134 426q0 21 88 216q42 156 169 472q76 202 119 322q45 83 122 268
q92 192 138 272q9 18 9 38q0 36 -52 142q-80 87 -172 116q-77 36 -175 108l-28 5h-25q-292 -58 -510 -131q-152 -34 -441 -131q-108 -30 -327 -73q-71 -31 -71 -134q-62 -241 -62 -309zM2170 1926q0 -64 -82 -212q-105 -216 -169 -372q-27 -37 -86 -217l-165 -426
q-65 -218 -95 -270q-28 -50 -163 -460q-23 -117 -60 -225q-12 -33 -44 -187q-3 0 -22 -62q24 -8 72 -62q58 -50 211 -138q80 65 116 240q23 49 84 279q40 80 66 201l61 179q34 99 107 334q39 86 69 176q22 32 127 284q120 255 120 268q27 61 42 268q-16 138 -63 214
q-71 123 -126 188z" />
    <glyph glyph-name="eight" unicode="8" horiz-adv-x="2911" 
d="M1727 2619q413 0 670 -261q106 -109 139 -192q44 -72 83 -290v-91q0 -65 -50 -263q-5 -73 -66 -163q-61 -83 -146 -160q165 -100 264 -236q117 -177 117 -248q65 -252 65 -355q0 -303 -238 -560q-93 -154 -269 -261q-88 -50 -207 -130q-139 -59 -167 -76q-2 -10 -87 -66
q-307 -163 -526 -163q-221 0 -353 50q-139 27 -306 106q-68 25 -239 129q-253 201 -259 280q-55 138 -73 199q-19 140 -19 147q15 277 37 321q29 112 176 324q53 81 232 247v14q0 23 -53 81l-75 124q-71 166 -71 302q0 11 7 80q-3 41 -3 45q11 107 37 153q64 145 98 189
q141 160 270 262l161 131q190 166 270 178q33 25 174 69q37 31 298 76q80 8 109 8zM780 1822q-7 0 -7 -17q-12 -75 -12 -120v-66q0 -152 59 -297q45 -82 95 -139q51 -47 104 -88q7 -9 7 -17v-7q0 -21 -74 -66q-141 -124 -173 -187q-76 -97 -115 -187q-36 -61 -58 -199h-5
q-9 -155 -9 -202q0 -15 9 -122q11 0 14 -42q78 -267 219 -399q92 -91 219 -148q91 -52 427 -113q25 -4 67 -4h54q182 0 476 152q85 67 176 111q158 114 216 227q91 100 111 151q79 124 79 202v-10h6q9 114 9 130q-8 73 -8 90h-8q-21 206 -77 322q-36 74 -79 126
q-72 98 -192 172q-157 74 -158 95v8q0 24 126 127q118 109 143 174q12 0 32 115q6 0 6 17q23 112 23 127v-6h8v163h-8q0 80 -82 254q-48 72 -110 133q-87 82 -235 153q-159 54 -332 54q-118 0 -327 -58q-73 -35 -157 -61q-125 -69 -282 -222q0 -7 -23 -28q-92 -126 -92 -130
q-6 0 -45 -94zM643 1918q-170 -177 -170 -224q-29 -41 -46 -166q0 -5 4 -25q-4 -98 -4 -133q0 -32 36 -158q142 75 156 93l58 31q-45 150 -45 272v88q0 88 40 222h-29zM1712 1855q76 0 86 -91v-18q0 -52 -52 -134q-36 -55 -57 -77q-21 -38 -136 -70q-2 0 -49 -4
q-62 0 -62 89v23q0 96 58 172q88 110 212 110zM566 793q-201 -195 -267 -326q-121 -207 -121 -340q-8 -90 -8 -168q83 -280 149 -330q9 -13 49 -39h12q46 30 79 65q6 0 66 41q62 32 90 32q-76 134 -115 272q-37 131 -37 234q0 340 138 559h-35zM1823 703q49 0 70 -36
q11 -13 26 -109h2v-61h-8q0 -80 -72 -234q-10 0 -32 -61q-3 0 -36 -53q-38 -62 -81 -83q-108 -37 -164 -37h-23q-50 0 -73 36q-25 37 -25 99q16 183 27 208q9 54 56 120q57 105 85 135q100 76 248 76z" />
    <glyph glyph-name="nine" unicode="9" horiz-adv-x="2459" 
d="M1104 -685q-50 0 -222 75q-194 90 -298 163q-49 40 -108 121q-35 38 -113 209q-7 0 -57 113q-4 26 -8 33q0 5 22 58q20 93 40 113q89 89 188 204q80 75 161 218q-218 59 -291 162q-131 130 -206 289q-59 95 -59 118q-21 89 -67 206q-26 99 -26 268q0 167 61 321l164 317
q89 133 293 334q171 134 332 178q83 30 142 30h69q284 0 580 -200q79 -58 192 -155q29 -12 103 -126q64 -94 212 -347q39 -38 105 -256q34 -138 34 -175l-4 -36q4 -60 6 -60q-2 -23 -2 -44v-145q0 -26 -31 -264q0 -90 -91 -342q-11 -26 -46 -148q-79 -127 -103 -220
q-85 -141 -149 -282q-80 -123 -157 -219q-18 -42 -183 -201q-107 -107 -197 -151q-45 -37 -129 -77q-46 -25 -111 -72zM2245 1253q-4 66 -4 101v36q-31 280 -76 414q-6 1 -16 33h-31l7 -38q0 -400 -35 -523q0 -94 -110 -390q-88 -287 -257 -537q-86 -143 -232 -301
q-321 -311 -411 -327l-39 -39q32 0 45 -52q17 -12 46 -88q14 -12 36 -61q95 46 192 117q29 0 256 235q61 91 123 162q31 53 91 138q0 13 75 151q73 131 157 323q16 25 50 152q9 7 75 224q27 163 47 234q5 0 11 36zM1995 1757q0 317 -172 612q-120 122 -214 180
q-254 167 -499 167h-46q-146 0 -401 -176q-253 -255 -299 -366q-159 -308 -159 -353q-4 -14 -15 -162q0 -265 94 -373q27 -67 168 -192q147 -118 305 -118h11q90 0 305 76h2q17 -1 17 -16q0 -64 -155 -319q-214 -317 -262 -373q-15 -9 -170 -181q-54 -43 -54 -79
q0 -96 207 -151q96 -62 281 -117h18q137 10 489 374q289 357 406 719q30 107 69 198q36 106 59 299q15 67 15 351zM891 1449h-8q-59 0 -70 94q0 172 135 374q41 45 211 95l36 4q74 0 93 -171q4 -132 4 -161q0 -78 -32 -136q-24 -23 -216 -66q-88 -33 -153 -33z" />
    <glyph glyph-name="colon" unicode=":" horiz-adv-x="1703" 
d="M768 682h12q96 0 235 -64q99 -70 164 -125q89 -53 121 -102q4 -22 81 -79q103 -103 146 -198l53 -147q15 -97 15 -115q-15 -159 -49 -222q-36 -112 -112 -180q-173 -192 -428 -192q-143 0 -210 50q-30 3 -246 143q-16 17 -142 92q-31 30 -142 100q-145 134 -180 250
q-26 96 -26 150v15q0 114 60 275q26 58 170 195q56 60 263 120q132 34 215 34zM189 47q0 -178 187 -324q127 -67 231 -67q235 0 467 247q131 152 131 255q0 109 -135 252q-147 142 -302 142q-150 0 -377 -106q-167 -152 -171 -224q-31 -77 -31 -175zM1338 148
q-30 -162 -82 -219q-71 -98 -114 -148q58 -31 60 -41q34 -12 71 -49q22 0 104 -81q7 0 22 -50h23q59 135 59 260q0 83 -39 175q-63 132 -104 153zM768 2618h12q96 0 235 -64q99 -70 164 -125q89 -53 121 -102q4 -22 81 -79q103 -103 146 -198l53 -147q15 -97 15 -115
q-15 -159 -49 -222q-36 -112 -112 -180q-173 -192 -428 -192q-143 0 -210 50q-30 3 -246 143q-16 17 -142 92q-31 30 -142 100q-145 134 -180 250q-26 96 -26 150v15q0 114 60 275q26 58 170 195q56 60 263 120q132 34 215 34zM189 1983q0 -178 187 -324q127 -67 231 -67
q235 0 467 247q131 152 131 255q0 109 -135 252q-147 142 -302 142q-150 0 -377 -106q-167 -152 -171 -224q-31 -77 -31 -175zM1338 2084q-30 -162 -82 -219q-71 -98 -114 -148q58 -31 60 -41q34 -12 71 -49q22 0 104 -81q7 0 22 -50h23q59 135 59 260q0 83 -39 175
q-63 132 -104 153z" />
    <glyph glyph-name="semicolon" unicode=";" horiz-adv-x="1672" 
d="M1064 1941q89 0 262 -121q60 -27 122 -96q71 -104 112 -305q4 0 4 -44v-69q0 -143 -122 -305q-45 -33 -92 -111q-4 -11 -4 -23q98 -115 108 -169q68 -115 68 -225v-39q0 -184 -90 -354q-51 -77 -109 -139q-219 -222 -259 -222q-9 0 -247 -199l-161 -114
q-55 -32 -156 -104q-98 -37 -153 -37q-107 15 -147 44q-132 100 -132 214q-7 0 -8 24v31q0 118 114 328q67 202 67 296q-24 85 -24 109q14 84 36 114q66 77 144 104q129 57 147 57v31q-175 64 -263 224q-50 98 -56 212v27q9 160 75 288q34 54 151 166q125 102 132 113
q168 164 286 251q26 21 136 34q0 5 59 9zM742 1615q96 0 243 -53q107 -65 195 -176q76 -87 104 -233q12 -47 12 -89l-4 -13v-20h25q80 107 80 126q42 100 42 172q0 102 -27 191q-7 71 -76 191q-89 82 -175 82q0 2 -41 15q-43 0 -131 -31q-64 0 -156 -80q-24 -15 -91 -82z
M355 1068v-4q0 -173 156 -288q156 -83 261 -83q137 0 285 126q70 49 105 225q0 14 4 35q0 57 -52 177q-115 167 -233 205q-67 24 -140 24q-71 0 -222 -71q-164 -127 -164 -346zM1073 675v-25q107 -79 134 -184q31 -122 31 -224v-11q0 -59 -32 -209q95 87 143 191
q39 82 63 274v20q0 103 -89 245l-17 11h-54q-16 0 -84 -48q-80 -33 -82 -40h-13zM347 306q23 -79 23 -106q0 -156 -109 -423q-72 -108 -72 -211v-7q0 -117 134 -160l25 -4q76 0 205 102q72 38 255 182q144 149 206 245q95 160 95 318q0 242 -115 300q-51 29 -99 29
q-96 0 -503 -190q-45 -35 -45 -75z" />
    <glyph glyph-name="equal" unicode="=" horiz-adv-x="2904" 
d="M2100 1744h23q99 0 159 -96q24 -62 45 -62q0 3 128 -99q181 -189 257 -326q84 -186 84 -240v-12q0 -36 -63 -207l-93 -76q-5 -13 -5 -24q78 -117 127 -253q30 -132 30 -137q-12 -81 -15 -151l3 -28q0 -158 -60 -237q-21 -10 -86 -30q-32 -31 -231 -91q-62 -18 -171 -26
q-47 -12 -321 -42q-295 -27 -494 -27q-61 7 -123 7h-81q-17 0 -32 -3l-217 23q-27 0 -121 27q-81 0 -171 33q-187 57 -292 125l-133 106q-19 0 -128 128q-17 43 -17 57q4 34 4 45q-19 68 -19 125q0 178 46 403q22 67 116 133q-166 133 -166 246q-11 0 -23 266v73
q0 166 132 217q52 14 73 14q622 24 934 39q359 19 546 46q328 54 355 54zM276 1476h-7q-80 0 -80 -110v-54q14 -313 36 -313q37 -75 132 -110q141 -32 454 -32q0 -5 168 -15l188 11h8q17 0 17 -5l-9 5q136 0 523 58q242 20 320 46q54 7 131 46l-9 17v12q0 28 28 53
q-12 58 -12 101v79q19 207 19 239v12q0 62 -42 83q3 0 3 15h-33q-18 0 -294 -42q-416 -61 -770 -61q-82 -12 -771 -35zM2308 1462v-30q-15 -145 -15 -177v-59q12 -159 32 -159q86 -70 187 -114q69 -36 129 -98q11 -6 32 -6q16 33 16 60q0 61 -117 283q-89 126 -225 273z
M1178 666q-38 4 -61 4q-58 0 -192 -12l-453 27h-27q-149 0 -181 -53q-29 -48 -48 -368v-11q0 -214 229 -214q289 -4 407 -11q472 0 582 27q218 19 363 73q172 27 306 98q52 33 72 292q-8 263 -38 263q0 13 -59 23q-77 0 -357 -73q-20 0 -238 -34q-226 -27 -305 -31z
M2297 681v-29q0 -6 7 -134q0 -122 -50 -304q-1 0 -35 -57q129 -92 322 -169q15 -14 79 -33h20q14 58 23 256q0 143 -139 309q-87 75 -227 161z" />
    <glyph glyph-name="question" unicode="?" horiz-adv-x="2437" 
d="M1287 2602q337 0 517 -110q71 -14 306 -246q102 -129 143 -228q38 -72 68 -245l8 -72q0 -245 -38 -349q-28 -91 -35 -212q-27 -82 -54 -257q-30 -94 -42 -176q-44 -85 -90 -153q-37 -52 -244 -259q-120 -117 -144 -184q-23 -27 -65 -27q133 -132 183 -242
q33 -104 33 -160v-4q0 -28 -16 -87q9 -14 9 -21v-126q0 -12 2 -16q-106 -252 -168 -293q-89 -175 -230 -232q-93 -45 -208 -45q-40 -15 -112 -15h-8q-86 0 -249 94q-124 92 -137 135q-39 72 -61 215q0 26 -4 39q0 72 43 353q1 4 7 4q0 44 -72 68q-97 83 -97 198
q-15 41 -15 80q19 80 31 187q27 88 54 217q0 8 57 207q0 11 4 29q-7 29 -32 29q-69 -35 -205 -35h-11q-70 0 -152 69q-33 47 -73 165q-26 40 -96 272q-34 86 -34 245q0 47 8 107q-4 46 -4 66q8 133 19 226l-8 59q0 130 46 190q0 51 186 205q111 77 217 113q422 222 763 222z
M232 1978q0 -15 51 -138q42 -188 147 -479q106 -142 181 -142q49 0 125 96q194 181 250 181q65 29 161 89q123 41 151 41q18 0 24 -29q0 -80 -200 -305q-185 -221 -221 -357q-73 -151 -110 -344q-11 0 -14 -157q0 -196 96 -239q43 -24 87 -24h12q35 0 184 46q213 46 258 62
q36 17 70 144q42 102 157 227q84 61 298 286q137 210 198 342q58 171 58 320q0 33 4 96q0 118 -74 294q-76 144 -168 223q-142 143 -234 176q-140 82 -361 82q0 3 -83 3q-167 -4 -361 -62q-223 -84 -499 -224q-78 -58 -157 -133q-30 -46 -30 -75zM189 1589v-22q4 -57 4 -76
q0 -9 -7 -57q7 -174 28 -258q30 -72 76 -232q39 -72 61 -136h23q65 139 78 177q14 0 34 73q0 9 25 55q-99 51 -193 178q-21 32 -101 298h-28zM677 209q0 -84 -27 -220q27 -168 64 -168h5q19 4 76 137l83 97q-98 26 -201 154zM865 -272v-23q0 -259 272 -360l54 -8
q282 38 282 60q53 10 178 149q53 79 53 139q0 100 -119 249q-109 96 -193 96q-59 19 -113 19h-19q-94 0 -248 -66q-147 -85 -147 -255zM798 -577q-6 -35 -9 -142q11 -112 48 -198q53 -71 133 -107q89 153 89 150q2 0 19 46q10 0 28 55q-84 0 -228 127q-50 50 -50 69h-30z
" />
    <glyph glyph-name="A" unicode="A" horiz-adv-x="2701" 
d="M1370 2581l215 -19q50 -3 220 -94q31 -28 89 -54l137 -103q111 -57 235 -216q132 -176 174 -333q146 -394 146 -852q4 -164 0 -421.5t-23 -482.5q-15 -82 -38 -277q-27 -192 -95 -422q-35 -58 -106 -109q-132 -52 -196 -52q-259 0 -410 72q-83 29 -184 153
q-35 -58 -207 -147l-271 -98q-53 -10 -65 -10h-34q-70 2 -237 84q-325 260 -325 264q-131 164 -155 198.5t-96 208.5q-49 126 -60.5 407.5t-11.5 781.5q27 229 65 406q38 122 53 200q56 128 113 235q0 37 173 259q125 143 245 256q74 80 130 90q208 61 338.5 68t180.5 7z
M219 304q21 -301 45 -360q38 -118 171 -278q103 -142 236 -244h27q-57 228 -57 294q-23 490 -23 530q0 751 256 1395q144 286 210 355q6 13 62 78q-8 19 -151 125q-46 37 -177 99q-33 0 -134 -105q-40 -17 -180 -185q-88 -130 -195 -388q-11 -57 -61 -236q0 -15 -31 -184
q-15 -107 -17 -351t19 -545zM747 242q23 -659 45 -659q65 -252 84 -285q31 -53 85 -53h26q20 0 108 38q193 72 319 141q41 36 41 104v138q0 23 -4 62q0 61 98 74h45q40 0 40 -40v-3l-16 -200q0 -179 221 -248q94 -35 285 -35q69 0 157 53q34 0 99 311q42 370 61 728t16 553
q-11 317 -44 456q-34 190 -96 343q-35 139 -182 335q-68 86 -172 86h-58q-180 0 -330.5 -23t-233.5 -69q-91 -33 -157 -136q-48 -44 -194 -337q-105 -258 -159 -510q-84 -409 -84 -824zM1617 1422q51 0 51 -202l12 -141q-4 -46 -4 -92q0 -455 -61 -455q0 -17 -133 -34
q-35 0 -35 125q-4 20 -8 80q0 41 46 336q0 71 31 219q0 142 80 164h21z" />
    <glyph glyph-name="B" unicode="B" horiz-adv-x="3131" 
d="M2084 2715q98 -54 220 -111q85 -52 140 -108q37 -22 139 -163q31 -56 104 -147q105 -270 105 -339q6 0 12 -40l-4 -17v-6q0 -179 -53 -292q-12 -28 -12 -47v-11q70 -58 91 -87q95 -106 162 -340q35 -135 35 -314v-54q0 -111 -102 -347q-5 1 -60 -114q-25 -20 -96 -118
q-56 -71 -120 -117q-245 -194 -309 -212q-128 -91 -205 -117q-21 -18 -218 -97t-319 -109q-253 -67 -758 -113q-110 -9 -194 -2l-19 2q-172 16 -323 120q-129 89 -195 274q-22 94 -22 139q38 505 96 799q19 53 72 416q4 4 38 143q-116 53 -184 175q-45 110 -45 187
q15 229 49 328q83 197 109 237l72 93q0 8 31 15q42 31 192 98q245 127 367 170l180 61l299 88q255 68 364 90q147 37 361 -13zM1180 2413q114 8 416 -8l18 -2q266 -53 477 -213q221 -197 275 -404q23 -92 23 -179q73 46 197 108q0 4 86 47q26 24 26 64q0 119 -107 341
q-33 30 -84 121q-132 163 -157 166q-270 159 -336 165l-27 6q-200 10 -200 -9q-30 -6 -125 -36q-109 -25 -270 -75q-28 2 -118 -37q-94 -16 -94 -55zM189 1538q0 -112 81 -192q22 -28 137 -69q17 -19 17 -41q0 -60 -58 -291q-38 -291 -77 -434q-42 -282 -77 -695
q0 -175 168 -306q111 -75 256 -87q152 -14 527 42q60 -6 411 74q262 81 328 148q323 265 334 311q88 80 120 343q15 51 23 127q0 183 -55 300q-68 170 -254 293q-21 14 -21 28v4q0 16 115 127q53 68 100 227q4 28 4 45v12q-9 240 -32 278q-86 239 -321 375
q-202 109 -313 118q-440 21 -511 0q-520 -87 -626 -139q-128 -74 -152 -139q-120 -214 -120 -440zM1527 1659q68 -6 75 -88v-2q0 -147 -177 -184q-197 -56 -244 -63h-5q-24 3 -29 48q3 38 3 61v81q0 23 -3 62q0 51 130 60q95 23 250 25zM2247 1084q261 -257 261 -629
q0 -23 -29 -192q31 -2 160 69q66 19 197 113q65 86 65 183q10 13 15 119q-3 35 -3 57l3 24q-11 142 -42 231q-16 2 -22 20q7 0 7 25q-40 144 -120 203q-35 29 -59 30q-253 -165 -268 -165q0 -9 -55 -31q-65 -61 -110 -57zM1523 733l19 -1q133 -12 164 -100v-20
q-20 -176 -38 -175q-29 -88 -210 -253q-130 -103 -256 -112q-64 -24 -103 -21l-14 2q-31 3 -31 40v2q31 390 46 525q0 35 96 56q29 22 271 52q15 8 56 5z" />
    <glyph glyph-name="C" unicode="C" horiz-adv-x="2321" 
d="M1363 2459h130q276 0 368 -88q46 -40 76 -100q21 0 69 -171q15 -31 50 -147q41 -66 76 -212q28 -140 19 -270q0 -79 -67 -207q-111 -127 -148 -128q-98 -43 -201 -62q-49 -23 -148 -62q-114 -71 -152 -109q-55 -119 -55 -268q3 -7 3 -27q97 32 130 32h72q98 -8 173 -52
q98 -69 157 -184q79 -87 173 -280q79 -138 79 -164q46 -119 46 -212v-35q0 -51 -48 -165q-15 -13 -39 -70q-67 -99 -180 -136q-308 -103 -465 -103q-25 -3 -64 -3q-6 0 -61 7q-104 -4 -127 -4q-89 0 -245 45q-113 50 -134 62q-1 6 -107 69q-6 2 -169 170q-23 21 -122 145
q-158 181 -214 285q-159 323 -159 547q-19 99 -19 237v50q0 415 227 888q0 52 173 263q124 137 204 194q179 126 312 186q261 79 387 79zM189 838v-27q0 -163 43 -448q30 -137 202 -353q5 0 47 -42q66 -62 207 -133q106 -64 281 -98q167 -23 213 -23h131q42 0 260 46
q63 16 164 119q120 89 120 222v34q0 141 -107 286q-73 89 -176 89h-50q-57 0 -97 -41q-17 -12 -80 -62q-41 -25 -174 -66h-2q-20 0 -98 72q-67 89 -112 238q-49 92 -49 302q0 70 43 181q0 121 97 273q4 0 41 39q215 176 309 176q61 12 99 12h123q129 0 150 37q37 44 37 260
q15 98 15 158v50q0 123 -86 155q-76 36 -258 36h-108q-131 0 -355 -74q-213 -112 -325 -205q-182 -171 -238 -269q-41 -59 -85 -182q-81 -153 -155 -452q-27 -156 -27 -310zM1940 1854q0 -108 -41 -231q-28 -44 -78 -83v-15q45 -79 131 -167h14q37 0 56 232q-16 130 -27 182
q0 10 -27 82h-28zM1092 1212q0 -82 -46 -219q0 -17 -4 -43q0 -178 39 -249q65 -192 116 -216q52 19 95 43q-38 114 -38 149q0 114 42 247q0 16 -59 90q-23 68 -78 121q-38 65 -67 77zM1972 7q-7 -78 -92 -176q-28 -18 -28 -37q0 -12 50 -60q0 -11 126 -177h18q32 0 53 117
v27q0 80 -83 276q-19 30 -44 30zM643 -295q189 -198 259 -227q40 -44 217 -105q10 0 89 -10q0 6 14 6q-55 97 -141 207q0 19 -127 32q-150 30 -311 97z" />
    <glyph glyph-name="D" unicode="D" horiz-adv-x="2513" 
d="M399 2008q93 64 338 131q385 96 518 96q305 0 372 -41q111 -21 283 -162q307 -318 307 -680q43 0 54 217q0 19 4 58l-9 269q-32 179 -168 386q-38 76 -96 101q-44 64 -228 128q-20 19 -182 36l-19 -4q-32 4 -42 4l-293 -23q-164 -27 -290 -54q-171 -58 -297 -93
q-128 -53 -137 -70q-21 -22 -58 -112q-36 -48 -78 -167q0 -20 21 -20zM1530 2680q197 0 317 -61q17 0 163 -93q23 -24 100 -73q110 -107 183 -249q87 -157 96 -398q5 -320 -36 -580q-17 -118 -64.5 -263.5t-206.5 -554.5q-164 -341 -228 -439q-80 -125 -231 -297
q-19 -13 -116 -100q-229 -190 -447 -223q-160 -42 -419 -42h-106q-102 15 -146 53q-87 82 -95 198q0 206 22.5 732.5t52.5 734.5q-79 1 -156 67q-119 128 -134 227q-19 90 -19 208q0 151 83 298l81 185q24 73 111 233q53 115 85 158t111 58q101 61 516 168q237 38 368 47
q0 3 -3 3q46 -4 70 -4t48 7zM189 1523q0 -222 84 -300q73 -73 140 -72q67 6 72 5q19 -8 19 -36q-11 -163 -34 -379q-46 -1007 -46 -1183q0 -101 124 -122q377 0 480 39q93 0 316 132q97 73 229 203q157 159 229 325q33 86 65 143q85 182 119 338q29 47 59 229q46 188 46 460
q0 211 -66 336q-147 325 -427 429q-70 32 -246 32q-19 4 -94 4q-409 -46 -679 -155q-60 -19 -256 -143q-94 -52 -118 -163q-12 -41 -16 -122zM1309 1394q66 0 82 -138q15 -79 19 -216q0 -211 -72 -423q-30 -108 -75 -178q-3 0 -117 -131q-17 -18 -32 -18q-10 8 -10 66
q0 90 8 511q-4 242 -4 407q0 79 46 106q24 7 155 14zM1238 1226v-60q3 -233 3 -271h31q5 121 9 144q0 13 -13 187h-30z" />
    <glyph glyph-name="E" unicode="E" horiz-adv-x="2259" 
d="M1789 2606q97 -4 197 -48q118 -82 150 -194q11 -60 11 -70q0 -72 -71 -357q-59 -157 -136 -423q-11 -62 -50 -166q4 -52 4 -60q-15 -209 -49 -302q-45 -130 -90 -161q-44 -105 -57 -158h24q81 27 113 27h18q98 -11 143 -44q91 -59 126 -168q29 -100 29 -269
q0 -95 -42 -211q-30 -151 -94 -226l-60 -115q-21 -19 -62 -89l-124 -135q-114 -82 -277 -132l-315 -127q-270 -99 -317 -99q-26 -18 -154 -38q-188 32 -256 58q-44 69 -118 136q-161 217 -161 345q-7 184 -7 195v76l5 27q-5 8 -5 12q30 397 30 438v115q0 28 -3 47
q0 43 26 402q0 21 -74 61q-83 105 -83 308v11q4 53 73 401q77 247 77 294q22 121 70 172q66 89 143 136q84 74 419 198q196 72 500 110q112 23 447 23zM355 1911q8 -249 44 -249q34 -54 89 -54h25q76 19 82 19q22 0 24 -32v-92q0 -127 -23 -316q4 -20 4 -21
q-50 -392 -50 -739q-11 0 -15 -275q0 -305 171 -407q132 -110 308 -110q151 0 290 70q370 130 431 170q283 127 283 300q0 15 4 41q0 142 -24 229q-51 120 -155 120q-50 0 -413 -155q-106 -56 -142 -56q-30 7 -30 70v62q7 216 36 216q15 25 163 74q155 86 220 154
q37 54 68 182q4 20 20 179q0 117 -114 156q-38 9 -50 9q-36 0 -244 -78q-4 -3 -13 -3h-12q-28 0 -28 51q0 33 4 77q-4 28 -4 46q10 178 51 178q6 0 190 46q366 36 366 54q24 0 46 180q61 219 61 283q0 96 -119 163q-56 24 -121 24q-349 0 -543 -42q-192 0 -678 -225
q-106 -63 -167 -140zM279 1598q-33 0 -67 -232v-42h18q33 0 105 186q5 16 5 34q-12 0 -61 54zM331 912q0 -82 -15 -169l4 -35l-15 -188l7 -219q-30 -362 -30 -599q11 -178 35 -247q77 -126 97 -139h23q141 185 141 200q10 33 49 122q-221 156 -221 514q0 123 19 391
q0 279 45 612q-41 -20 -60 -80q-9 -5 -70 -138q-9 0 -9 -25z" />
    <glyph glyph-name="F" unicode="F" horiz-adv-x="3115" 
d="M1305 2596l78 13q113 17 615 37q253 -1 448 -15.5t282 -43.5q110 -54 151 -133q42 -77 53 -149q17 -109 -33 -337q9 -56 -69 -173q-48 -49 -125 -79q-133 -54 -173 -61l-96 -15l1 -28q201 -37 232.5 -89t64.5 -130q13 -42 16 -57l9 -64q13 -108 -48 -343
q-103 -191 -284 -281q-6 -1 -100 -43q19 -92 25 -131l47 -301q4 -27 7 -119q12 -46 19 -91l3 -18q15 -198 13 -310q-20 -189 -133 -313q-36 -46 -161 -96q-43 -13 -69 -17l-46 -7q-13 -2 -32 -9q-117 5 -232 2q-46 20 -244 23q-1 6 -123 6q-47 11 -174 11q-216 26 -275 85
q-76 38 -162 133q-65 80 -87 223q-7 39 -16 302q-25 479 -36 552q-8 45 -43 321q-7 21 -7 22l-8 98q-24 121 -37 163q-1 4 -4 53q-24 115 -66 109q-118 -19 -249 87q-183 157 -195 335q-31 192 51 390q134 164 202 174q87 53 226 99q154 77 312 102q115 36 256.5 69
t215.5 44zM178 1731q9 -63 86 -51q466 -60 541 -48l22 1l-7 20q-37 240 25 321q45 84 224 166q267 146 323 155q235 95 531 164q63 18 118 35l-5 30q-68 13 -348 -10q-63 5 -305 -21q-186 -30 -513 -115q-39 -16 -161 -41q-360 -151 -429 -189q-49 -40 -78 -79.5t-23 -112.5
q-16 -130 -1 -225zM962 1567q23 -145 130 -177q51 -1 52 -11q49 16 141 63q33 5 47 -75q150 -1291 153 -1428q8 -350 15 -395q14 -93 186 -162q136 -82 342 -50l19 3q215 34 258 274q18 32 -5 256q8 2 -1 64q-5 31 -21 108q-5 105 -8 128l-37 236q-21 125 -42 215
q-10 61 35 89q179 62 265 145q111 112 116 207q34 142 24 206l-6 41q-16 99 -107 125q-29 8 -64 7q-37 -6 -254 -118q-57 -32 -88 -37l-16 -2q-39 -7 -55 92q-46 146 -94 239q-7 -2 -3 -11q-3 -1 23 53q-1 11 112 47q134 28 479 94q203 79 196 123q17 20 40 178
q20 96 10 196q-33 214 -309 171q-43 -3 -99 -12l-30 -4q-151 -24 -461 -122q-246 -59 -505 -163q-106 -42 -377 -191q-107 -65 -87 -189q17 -155 26 -213zM660 1282q1 -10 -7 -12l59 -296q82 -523 95 -955q4 -50 15 -127l11 -64q12 -82 98 -69q200 -14 361 -41q36 2 69 9
l-9 270q-76 729 -140 1274l-24 -13q-50 -9 -214 16q-116 18 -314 8z" />
    <glyph glyph-name="G" unicode="G" horiz-adv-x="2482" 
d="M1655 2488h68q103 -13 142 -43q135 -105 184 -266q63 -201 139 -321q50 -83 107 -219q67 -104 67 -256q-28 -103 -109 -221q-43 -68 -118 -111q-82 -41 -84 -57q0 -21 148 -258q132 -201 151 -257q42 -142 20 -249q-15 -203 -121 -520q-15 -19 -43 -94q-32 -67 -170 -179
q-23 -24 -330 -186q-240 -108 -535 -83q-181 26 -293 94q-56 28 -291 288q-181 220 -398 587q-129 200 -129 553v84q0 328 206 816q81 157 217 323q115 128 174 167q149 115 241 180q271 141 335 164q271 64 422 64zM189 763v-62q0 -321 97 -470q24 -64 195 -262l79 -59
q176 -114 329 -136q201 -19 394 35q271 114 432 292q77 71 148 312q17 57 32 222q-9 285 -37 387.5t-46 125.5q-55 70 -130 70h-8q-75 0 -267 -65t-288 -93q-62 -31 -93 -114q-20 -71 -21 -207q0 -146 154 -180h14q57 0 116 38q4 2 12 2h12q-4 0 -3 -1v-8q0 -41 -60 -97
q-59 -42 -245 -117q-37 -14 -72 -14q-109 0 -109 262q0 125 38 256q0 82 198 497q80 87 157 142q120 75 314 120q89 23 274 31q90 50 90 99q50 103 50 184v65q0 107 -77 227q0 40 -95 100q-29 13 -61 13h-46q-172 0 -416 -66q-315 -157 -376 -209q-208 -162 -240 -194
q-7 -13 -108 -127q-115 -168 -178 -307q-159 -415 -159 -692zM1952 1613q69 -120 172 -234q1 -17 69 -83q48 53 48 112q0 132 -70 251q-39 89 -90 173q-25 0 -52 -86q-24 -73 -77 -133zM2021 754q0 -37 4 -107q-20 -253 -53 -313q-50 -192 -145 -305q17 -53 135 -185
q42 -64 113 -132h19q38 32 101 268q27 123 34 190v137q-17 186 -36 186q-102 202 -144 261h-28z" />
    <glyph glyph-name="H" unicode="H" horiz-adv-x="2903" 
d="M2539 2590h4q85 -5 198 -177q24 -40 81 -257q28 -135 12 -451q4 -1 4 -8q-2 -40 -24 -296t-135 -980q-57 -307 -88 -400q-12 -73 -71 -273q-43 -160 -74 -159l-96 -55q-65 -42 -131 -98q-69 -23 -211 -113q-18 1 -87 -27q-27 1 -221 -86q-74 -12 -84 -11q-209 10 -345 73
q-44 -26 -106 -65q-109 -69 -125 -68q-49 2 -160 -31q-52 -13 -80 -12l-23 2q-94 4 -363 136q-181 58 -232 150q-73 60 -67 606q-3 83 -9.5 346.5t-4.5 637.5q-12 218 8 1017q18 85 44 116q92 86 166 108q300 145 501.5 210t326.5 103q39 32 191 43h12q75 -4 208 -104
q34 -32 82 -121q81 26 578 169q179 82 321 75zM2299 2224q23 -80 15 -255l-5 -89q-9 -192 -61 -460q-4 -78 -71 -508l-112 -866q-56 -219 -61 -321q-14 -46 -35 -191q-4 0 -23 -92h24q33 17 90 59q79 23 176 108q134 88 152 108q74 243 100 382q21 43 70 326q32 107 116 888
q35 470 38 524l3 77q7 144 -35 318q-1 67 -54 112q-45 11 -160 -36q-53 -22 -87 -44q-11 1 -63 -17q-17 -4 -17 -23zM1060 2237q53 -68 73 -198q26 -172 24 -284t2 -792l51 4l24 -2q40 310 91 585l97 563q28 138 56 136q2 24 66 70v11q0 7 -29 43q-48 -7 -102 -17.5
t-353 -118.5zM1072 836q-47 2 -42 104q-13 773 -12 1002q-23 174 -58 217q-42 69 -203 76q-41 2 -275 -93t-235 -136q-9 -17 -10 -32q-14 -372 4 -1973l11 -405q29 -179 78 -182q27 -20 214 -94q174 -90 250 -93q120 -7 165 107q21 0 62 479q0 148 3 212l1 19q5 99 34 108
q37 9 104 6l38 -2q69 -3 67 -50l-1 -31l-38 -300l-20 -182q-7 -156 183 -229q76 -28 230 -35q68 -3 169 93q63 116 70 273q18 68 43 239q40 116 47 275q15 46 56 416q20 114 71 516q24 117 58 411q33 117 44 346l3 65q11 223 -26 258q-59 62 -125 71l-23 1q-56 3 -315 -65
q-128 -30 -129 -71q-18 -44 -59 -332q-40 -191 -128 -748q-11 -239 -72 -236q-27 -6 -234 -5z" />
    <glyph glyph-name="I" unicode="I" horiz-adv-x="1695" 
d="M1002 2789h65q124 0 253 -68q120 -85 184 -184q83 -172 83 -340v-56q0 -102 -90 -293q-50 -64 -138 -149q159 -86 159 -340v-4q0 -119 4 -259l-55 -552q-9 -7 -27 -178l-77 -437q0 -23 -30.5 -101t-132.5 -251q-55 -81 -193 -208q-87 -71 -184 -89q-15 0 -155 -40h-170
q-17 0 -156 34q-81 0 -181 88q-31 0 -76 101q-7 41 -15 121q15 320 58 724v63l24 655q34 246 66 287q77 92 88 135v15q-138 166 -104 406q20 145 71 232q94 162 94 170q51 84 144 257q173 177 318 218q118 43 173 43zM531 2215q0 -334 289 -459q86 -31 144 -31h7
q81 0 283 60q130 80 183 260q21 59 21 107v34q0 319 -239 444q-77 34 -163 34h-42q-78 0 -257 -90q-153 -96 -206 -262q-20 -49 -20 -97zM331 1823q0 -56 9 -164h35q0 26 67 94q15 35 57 66l21 11q-86 119 -98 221q-64 -46 -91 -211v-17zM925 1593q-185 0 -275 15
q-26 -1 -69 -64l-4 -37q0 -20 4 -75q-27 -341 -43.5 -669t-31.5 -439q-42 -320 -42 -381q0 -77 101 -112q103 -34 209 -34h154q145 0 273 106q40 34 63 198q0 20 58 354q0 52 70 649q-4 107 -4 207v36q0 169 -57 220q-56 52 -129 52h-12q-34 0 -227 -26h-38zM257 412
q-8 -64 -8 -81v-12q0 -163 -42 -608q-8 -78 -8 -132q45 28 62 66q8 0 19 49q15 25 40 52q0 12 27 40l15 23v14q-27 102 -27 120q0 68 38 374q6 57 18.5 146.5t37.5 682.5q10 43 16 233q-42 -31 -80 -102q-72 -67 -72 -170q-11 -8 -23.5 -306t-12.5 -389z" />
    <glyph glyph-name="J" unicode="J" horiz-adv-x="2586" 
d="M1501 2557q97 -5 141 -33q26 -13 161 -137q38 -23 170 -160q222 -197 224 -220q114 -145 123 -263q94 -236 107 -409l3 -35q1 -17 5 -22l-2 -19l1 -12l41 -398q-3 -226 12 -436q-5 -129 -5 -276q-10 -35 -33 -291q-54 -189 -135 -292q-48 -41 -87 -106q-6 0 -86 -80
q-7 -1 -111 -100q-94 -83 -242 -162q-204 -83 -365 -95q-124 -2 -235 20q-340 159 -425 225q-103 58 -383 302q-49 40 -52 87q-12 -2 -11 -3q-9 0 -9 23q-186 216 -208 512q-5 66 39 299q47 159 117 258q62 65 142 71q200 25 344 44l6 1q72 6 164 -36q95 -65 101 -149
q8 1 10 -23q4 -50 -48 -179l-10 -84q124 64 122 83q37 81 25 239q8 97 0 206l-3 37q-122 -10 -320 153q-83 60 -142 137q-16 26 -24 89q-12 -1 -33 97q-3 47 -7 244q-20 273 -54 417l-1 9q2 84 33 130q44 56 133 78q126 32 362 130.5t445 128.5zM658 2097q33 -128 55 -430
q3 -206 6 -243q6 -77 124 -109q12 1 19 -2q34 2 174 90q94 33 100 34q48 4 57 -125q39 -265 49 -405l1 -4q8 -400 -9 -401q-33 -144 -80 -169q-192 -113 -255 -118q-62 -4 -69 81q-5 65 28 235q33 65 35 104q-5 79 -142 86q-120 -18 -340 -44q-68 -6 -107 -132
q-76 -187 -75 -370q20 -269 224 -477q99 -89 262 -135q129 -37 262 -28q149 11 382 102q115 60 288 246q5 14 118 182q179 363 167 537q21 2 -13 592q-35 165 -56 339q-103 444 -166 677q-34 148 -66 146q-55 78 -126 72q-147 -21 -734 -243q-118 -24 -114 -76zM1834 2171
q54 -145 171 -707q6 -78 43 -262q11 -147 22 -505q-11 -218 -58 -389q-38 -104 -73 -182q166 -126 300 -244q39 -31 71 -29q21 60 37 330q5 30 7 211q5 0 2 42l-5 73q-5 68 -1 115l-13 75q10 64 0 202l-4 46q-27 228 -35 332q-3 41 -4 107q-27 136 -60 219l-51 137
q-11 132 -212 303z" />
    <glyph glyph-name="K" unicode="K" horiz-adv-x="2774" 
d="M1114 2554q199 0 251 -122q53 -95 53 -151q19 -40 19 -81v-144q87 85 136 98q0 25 142 151q163 196 194 196q58 11 137 11h112q125 0 311 -109q223 -128 130 -307q-47 -76 -103 -148q-234 -276 -276 -353q-18 -16 -65 -103q-22 -11 -102 -180l-117 -198v-12
q91 -158 237 -305q48 -63 159 -162q19 -24 154 -120q161 -138 161 -183q19 -78 19 -94v-31q0 -25 -148 -284q-65 -128 -79 -128q-164 -218 -286 -294q-160 -113 -276 -113h-11q-121 0 -286 161q-11 0 -235 224q-40 -74 -98 -157q-105 -171 -105 -174q-137 -118 -252 -138
q-16 0 -43 -4q-98 0 -489 126q-106 54 -158 151q-32 61 -59 478q-19 151 -46 747q0 37 3 169q-11 307 -26 481v108q-12 119 -12 129v57l19 123v6q33 33 70 97q174 147 190 167q40 23 143 143q100 95 182 182q109 41 450 90zM539 2162q213 62 271 62q84 -6 152 -45
q104 95 109 111q2 0 95 101q0 10 27 17q0 37 -110 40q-40 0 -210 -34q-154 -19 -154 -59q-65 -86 -180 -193zM1744 2164v-20q216 -71 297 -132q64 -51 117 -129q55 46 71 65q73 72 73 77l85 88q0 18 39 51l45 72q-111 113 -291 162q-41 4 -61 4h-15q-172 0 -172 -28
l-126 -142q0 -7 -62 -68zM189 1735v-34q0 -32 16 -142q-4 -26 -4 -42v-55q15 -165 27 -498q-4 -133 -4 -169q27 -569 69 -1030q0 -90 49 -169q55 -57 218 -97q227 -70 289 -70q124 13 155 104v202q0 36 12 180v4q0 68 -4 169q0 36 125 127q2 1 7 1h8q25 -2 118 -146
q27 -65 332 -372q198 -180 268 -180h4q100 0 309 169q100 114 100 198v15q0 70 -127 109q-103 69 -215 203q-153 157 -241 296q-142 142 -154 207v26q0 26 236 361q155 272 220 401q66 140 66 217q0 178 -282 270q-92 43 -143 43h-15q-64 0 -143 -171q-59 -71 -226 -345
q-81 -107 -123 -194q-76 -139 -146 -227l-12 -3h-3q-13 0 -13 174q-15 650 -23 720q-24 108 -133 108q-72 0 -321 -96q-39 0 -230 -132q-61 -22 -66 -132zM2052 727q-30 -25 -47 -50q-38 -37 -50 -37q0 -24 -26 -50q0 -11 -50 -83q0 -4 -6 -22q83 -103 240 -268
q41 -48 108 -92q73 -27 150 -89q0 36 62 109q0 12 15 22q33 48 43 95q6 0 15 39q7 0 7 23q-63 70 -140 117q-109 90 -163 145q-5 0 -77 73q-10 0 -62 58z" />
    <glyph glyph-name="L" unicode="L" horiz-adv-x="2455" 
d="M1074 2730q80 -3 171 -62q97 -85 92 -188l24 -963q-2 -67 2 -229l15 -614l1 -85q3 -22 24 -20l433 135q132 28 162 26l42 -1q66 -3 148 -55q85 -70 110 -165q31 -152 28 -215q-15 -345 -17 -400q-13 -54 -36 -108q-6 -143 -408 -463q-77 -73 -304 -137
q-275 -73 -433 -119q-63 -33 -225 -87q-39 -16 -205 -56q-248 -20 -320 34q-41 18 -87.5 89.5t-68.5 148.5t-40 191t-45 464q-8 159 -19 535.5t-18.5 773t-7.5 406.5l3 60q30 159 79 311q54 172 120 374t103 238q73 65 155 75q75 48 493 108zM470 2401q3 -86 54 -449
q22 -258 55.5 -952t59.5 -1150q-4 -223 35 -254q73 -61 145 -66l19 -1q57 -3 333 89l244 71q117 22 320 82q124 44 390 105q44 11 59 60q4 246 8 326q-8 249 -54 276q-35 59 -115 62l-19 1q-89 4 -449 -132q-243 -76 -263 -72q-32 5 -33 69q-10 217 -26 815q0 276 -25 1200
q4 92 -146 121q-39 2 -326 -52l-232 -76q-32 -40 -34 -73zM360 1999q-3 -55 -82 -224q-55 -102 -61 -245l-1 -12q19 -763 44 -1552q16 -307 34 -455q12 -130 85 -355q31 -42 57 -43q13 4 108.5 173t92.5 178q-89 53 -116 149q-17 32 -29.5 349t-37 856t-44.5 975
q-21 158 -18 205z" />
    <glyph glyph-name="M" unicode="M" horiz-adv-x="3442" 
d="M946 2711l7 1q172 3 176 -26q112 -129 280 -282q87 -88 139 -149q24 -33 141 -272l20 2q92 137 172 292q10 8 142 236q122 189 226 205q74 22 152 22q456 -34 461 -73q35 -29 146 -176l210 -260q45 -56 73 -156l3 -29q14 -110 10 -263q-6 -1351 -5 -1611q-6 -75 -5 -426
q-6 -98 -61 -158q-38 -47 -315 -183l-261 -118q-100 -39 -168 -47l-7 -1q-53 -7 -135 -10t-154 100q-95 90 -114 142q-141 150 -175 262q-16 46 -41 269q-75 -9 -198 63l7 -58q45 -283 46 -288q3 -23 52 -255l5 -44q7 -58 -20 -119q-60 -90 -146 -100q1 -8 -23 -11l-60 -8
q-50 -6 -444 39q-203 21 -264.5 49t-79.5 65q-89 128 -188 253t-124.5 161t-30.5 76q-36 169 -168 950q-45 265 -136 684q-54 255 -86 507l-3 23q-10 83 30 113q22 67 93 127q63 69 211 144q58 26 296 180q75 31 123 65l136 76q38 14 55 17zM169 2070l2 -16
q68 -158 105.5 -204t61.5 -50q72 50 313 229q129 77 279 186q98 54 312 144l-93 102q-81 109 -114 136q-26 7 -41 5q-54 -19 -148 -85q-97 -42 -348 -207q-45 -34 -190 -104q-65 -42 -139 -136zM2222 2544q-75 -69 -156 -213l-158 -275q1 -12 -107 -184q-27 -20 -9.5 -64
t65.5 -161q29 27 129 188q137 181 181 273q25 74 125 186q53 52 158 75q104 16 426 -41l90 -29l-4 31q-68 96 -134 170q-47 67 -113 72q-233 25 -306 28q-94 4 -187 -56zM442 1615l15 -119q89 -464 138 -673q31 -150 139.5 -685t124.5 -662q10 -78 81 -101
q170 -24 353 -46.5t227 -16.5l39 4q97 12 88 92q-7 52 -55 269l-4 34q-1 9 -47 290v5q-43 229 -96.5 435.5t-51 211.5t1.5 5l4 1q26 -14 82 -99q87 -110 244 -352q84 -98 205 -83q99 13 167 130.5t168 293.5q7 11 22 10q13 -1 15 -22q10 -77 -5 -868q-5 -147 0 -180l2 -23
q13 -99 177 -97q109 13 521 220q116 70 141 90q37 5 26 414q11 122 9 901t1 946q0 25 -10 101v4q-5 35 -79 84q-109 26 -268 75q-177 45 -345 40q-113 -14 -214 -246q-122 -185 -209 -307q-153 -243 -197 -290q-2 -1 -7 -1q-26 -4 -63 110q-169 325 -253 507q-5 3 -65 120
q-39 64 -85 81q-2 13 -93 14q-44 -5 -274 -120q-137 -98 -257 -176q-67 -35 -225 -164q-92 -58 -87 -100q0 -1 -1 -57z" />
    <glyph glyph-name="N" unicode="N" horiz-adv-x="3058" 
d="M1275 2697q184 0 230 -68q48 -40 105 -148q12 -5 50 -103h14q24 0 65 51q229 248 243 248q89 16 107 16h30q13 0 19 3q132 -19 253 -26q168 -15 359 -125q87 -51 144 -119q56 -93 56 -214q-31 -168 -54 -456l-46 -364q-68 -345 -130 -814q-8 -85 -39 -235q0 -13 -42 -179
q-46 -311 -69 -311q-25 -24 -84 -117q-4 -1 -74 -112q-68 -82 -116 -164q-103 -89 -179 -127q-80 -35 -158 -60q-113 -37 -344 -101q-85 -22 -122 -22q-91 0 -176 62q-76 56 -118 246l-30 103h-26q-32 -66 -126 -100q-335 -111 -526 -115h-15q-82 0 -189 48
q-123 88 -131 218v188q0 105 -19 575q0 89 -38.5 713t-38.5 678v4q-2 125 99 208q64 56 255 259q56 73 176 188q84 107 152 127q77 32 211 71t221.5 56.5t100.5 17.5zM1126 2245v-24q89 -92 128 -246q32 -50 84 -237q27 -55 54 -55q0 57 42 266q0 80 29 156q31 43 86 81
q35 47 35 72q-30 45 -86 182q-40 64 -40 81h-24q-31 -32 -79 -56l-40 -33q-27 -3 -92 -75q-16 -9 -33 -49q-22 -22 -53 -63h-11zM2411 2023q56 -40 78 -144l4 -37v-41q0 -21 -54 -340q-14 -167 -54 -341l-42 -285q-15 -146 -65 -396q0 -40 -50 -384q0 -26 -38 -361
q0 -22 -5 -123q50 0 96 87q107 129 204 318q32 155 55 305q17 51 42 200q16 65 31 257q8 19 73 492q65 315 65 439q26 188 45 406q3 0 24 139q0 32 -13 104h-26q-29 -30 -51 -32q-55 -58 -108 -86l-54 -42q-50 -31 -70 -52q-71 -56 -87 -83zM189 1770q0 -33 25 -341t48 -921
q4 -33 4 -122q19 -507 19 -590v-172q0 -93 98 -128q45 -21 105 -21q105 0 339 55q220 51 220 132v46q0 85 7 300q0 27 -3 103q5 101 12 101q32 0 118 -301q54 -120 145 -428q24 -119 83 -178q25 -25 88 -25q43 0 230 51q122 30 277 84q52 28 52 74v50q0 194 35 433
q0 68 58 449q0 36 49 299q24 207 54 373q0 20 46 256q16 171 66 451v31q0 142 -224 179q-406 62 -505 62h-11q-21 -13 -56 -75q0 -53 -43 -263q-11 -95 -57 -300q-11 -264 -44 -264q-42 0 -110 278q-103 254 -129 347q0 13 -66 176q-56 193 -178 193q-22 0 -151 -39
q-105 -40 -225 -97q-38 -27 -192 -104l-136 -82q-48 -54 -48 -72z" />
    <glyph glyph-name="O" unicode="O" horiz-adv-x="2736" 
d="M1687 2282h111q183 -19 353 -129q276 -195 379 -510q53 -195 73 -330q22 -135 22 -299v-23q0 -109 -65 -500q-80 -334 -167 -499q-36 -57 -115 -207q-101 -123 -242 -227q-52 -37 -390 -226q-56 -32 -165 -76q-44 -33 -149 -82q-7 -14 -80 -33l-71 -33l-166 4
q-68 0 -208.5 44.5t-266.5 114.5q-126 92 -231 238q-74 110 -74 123q-71 132 -139 398q-30 225 -30 258q-5 133 -6 133q2 18 2 40v129q30 276 57 347q43 188 141 405q62 139 128 218q74 59 291 214q95 75 140 91q84 62 247 162l134 89q207 166 487 166zM617 764
q0 -735 309 -1012q92 -95 234 -157l264 -77q42 -4 48 -4q143 0 388 85q56 15 271 214q52 54 117 198q55 65 125 281q96 330 96 479q27 134 27 231q0 143 -26 346q-20 167 -113 382q-42 69 -102 156q-155 163 -243 196q-124 65 -224 70h-89q-191 0 -400 -125
q-41 -37 -146 -112q-116 -100 -179 -187q-127 -169 -186 -305q-79 -157 -151 -487q-20 -130 -20 -172zM191 376q24 -341 70 -457q18 -82 89 -249q4 -33 136 -205q58 -63 69 -63h12q123 99 232 208q9 0 31 37v13q-174 183 -246 390q-88 338 -88 528q-6 0 -8 198
q0 181 137 605q54 123 144 293q-225 -148 -225 -169q-1 -2 -55 -39q-40 -30 -159 -275q-139 -388 -139 -815zM1699 1518h11q74 0 112 -200q16 0 32 -412v-35q0 -400 -109 -547q-105 -162 -295 -145h-19q-69 9 -91 108q-34 135 -34 193q4 68 4 115v87q19 173 50 295
q0 86 65 254q57 160 131 250q28 37 143 37z" />
    <glyph glyph-name="P" unicode="P" horiz-adv-x="3023" 
d="M1664 2720q238 20 513 -69q100 -25 285 -139q208 -153 247 -226q74 -124 121 -253q91 -188 117 -395q3 -166 -28 -306q-21 -72 -69 -147q-36 -13 -169 -195q-97 -73 -195 -208q-16 -2 -234 -270q-53 -52 -104 -81q6 -38 97 -261q2 -20 91 -318q7 -20 9 -39
q6 -43 -32 -151q-54 -70 -122 -112q-49 -20 -239 -246q-27 -24 -108 -111q-8 -6 -143 -63q-76 -32 -112 -37q-192 -25 -265 -35h-4q-198 -26 -482 36q-114 61 -121 122q-20 35 -25 72l-10 71q-20 421 -52 667q-2 75 -5 101q-5 34 -24 151q-1 9 -9 104l-80 395
q-143 9 -146 29q-92 33 -146 136q-17 50 -19 63l-13 103l-105 417l-19 147q-12 90 57 174q206 197 392 361t242 185q158 151 225 159q264 137 684 169zM890 2341v-23h21q121 39 251 56l23 3q261 34 489 -6q282 -57 446 -170q185 -150 243 -255q64 -80 115 -214
q41 -133 48 -193l7 -55v-63q116 131 117 150q13 5 63 70q29 12 73 81q1 8 17 11q-41 155 -89 246q-94 217 -153 284q-18 9 -42 44q-157 119 -203 138q-44 40 -312 116q-12 -1 -136 26q-55 16 -422 -8l-78 -10q-172 -48 -318 -113q-115 -75 -160 -115zM193 1683l15 -124
q4 -26 105 -413l15 -121q11 -73 121 -115q33 -3 49 -1q31 4 75 53h7q21 3 39 -79q29 -112 101 -485q5 -40 10 -107q16 -95 23 -151q34 -343 54 -642q-6 -50 5 -133l6 -50q10 -74 64 -97q241 -55 428 -30q43 5 141.5 18t121.5 16q109 14 153 131q14 38 3 116l-20 151
q-7 115 -9 125q-64 350 -73 419q-9 62 95 127q238 174 328 262q232 254 278 368q89 160 97 282q-4 117 -12 207l-6 18q-8 85 -10 107q-15 116 -94 267q-72 128 -228 270q-119 96 -329 145q-217 74 -555 30t-668 -251l-101 -98q-17 -2 -75 -69q-74 -58 -110 -105
q-25 -38 -44 -41zM1713 1567q52 7 77 -39q10 -23 12 -41l1 -7q18 -141 -68 -420q-38 -101 -171 -290q-18 -18 -28 -19q-25 -3 -58 147q-46 114 -70 293q-49 107 -63 211q-5 40 80 66q66 20 245 90q17 5 43 9zM1806 -149l15 -21l10 -79q6 -114 7 -124l27 -203q65 46 155 153
q113 114 118 134q12 56 10 115l-61 292q-46 -52 -134 -93q-69 -91 -135 -170q0 -1 -12 -4z" />
    <glyph glyph-name="Q" unicode="Q" horiz-adv-x="2840" 
d="M1824 2375q198 0 458 -197q41 -17 143 -124q187 -225 200 -280q65 -110 84 -183.5t19 -94.5l4 -145q10 -388 -40 -591q-29 -196 -86 -318q-46 -142 -122 -321q59 -83 92 -184q68 -112 68 -228q0 -54 -67 -174q-4 -7 -79 -66q-38 -42 -125 -90q-265 -199 -332 -202
q-73 -65 -196 -147q-64 -18 -102 -25q-6 3 -19 3q-21 0 -21 -3q-102 10 -190 73q-121 96 -165 135q-81 -20 -253 -20q-248 0 -497 136q-95 63 -227 196q-158 190 -208 347q-35 62 -68 250q-35 136 -35 297v257q0 319 209 804q136 192 248 327q231 255 686 412
q103 50 403 103q6 0 209 53h9zM189 665v-234q0 -363 171 -676q289 -433 742 -433q215 0 285 38h-6q95 -81 95 -105l8 4q0 7 34 -18v-20l8 4q0 2 94 -57q18 -17 91 -34v1l-9 3h19q17 0 17 -3l-9 3h21l-9 -3v-5l15 7v-5q51 26 235 166l107 88q34 31 47 93q8 32 8 41
q0 66 -77 123v17l-7 -3q0 -7 -108 78q0 5 -37 40l-51 69v-5q83 141 137 264q112 327 112 619v235q-26 425 -58 481q-82 299 -160 380q-77 100 -172 165q-128 85 -306 102q-5 0 -40 3q-114 2 -271 -31q-250 -99 -391 -234q-132 -117 -178 -186q-196 -252 -207 -334
q-150 -359 -150 -638zM2177 1522q67 -262 67 -483q8 0 8 -71v-257q0 -279 -116 -644h26q241 134 241 187q0 9 33 55q97 279 97 322q21 97 46 217q19 131 27 306t8 202q5 177 -85 356q-24 0 -110 -54q-8 0 -50 -23q-12 0 -85 -57q-15 0 -41 -16q-19 0 -66 -40zM1502 1488
q109 -24 109 -289q0 -528 -99 -732l-31 -80h12q-48 69 -80 69h-4q-43 0 -55 -9q0 -10 -32 -10q0 -12 17 -2q0 -6 -32 -6q0 -10 -37 -26q0 -5 -29 -5q-2 -9 -17 -16q0 -3 -32 -3q0 -10 -7 -14q0 -5 -32 -5q0 -11 17 -1q0 -7 -32 -7q0 -10 -58 -40q-130 -70 -130 -219
q7 -14 7 -17h-4l19 -62h-5l21 -57q-93 0 -135 92q-25 44 -36 194q-8 94 -8 103q23 339 57 410q38 176 79 255q29 45 70 147q61 117 117 195q152 143 187 143q113 30 183 -8zM1356 1347q-111 -71 -176 -174q-44 -53 -101 -202q-55 -64 -118 -366q-3 -85 -23 -232
q104 77 242 133l-6 29v14q15 158 60 257q48 158 162 283q3 0 85 57v40q16 215 -125 161zM1291 562q122 29 130 37q49 145 49 317q3 0 3 69q-91 -83 -157 -288q-18 -38 -25 -135z" />
    <glyph glyph-name="R" unicode="R" horiz-adv-x="2802" 
d="M1635 2733q160 -16 211 -44q10 -11 149 -67q97 -51 196 -135q101 -106 155 -175q109 -189 109 -267q12 -11 25 -154h2l-39 -418q-22 -278 -98 -519l-68 -157q20 -27 45 -107q141 -193 285 -286q83 -64 83 -139q0 -28 4 -32q10 -301 -35 -466l-31 -218q-38 -188 -110 -249
q-81 -81 -225 -81q-414 0 -609 200q-9 0 -116 99v-105q0 -91 -88 -202q-63 -61 -117 -61q-20 -11 -50 -11h-23q-121 0 -438 69q-159 33 -196 79q-70 73 -70 192q-34 427 -50 694q0 122 -46 535q0 41 -6 78h-58q-126 0 -217 86q-55 45 -76 156q-54 404 -73 674q2 119 84 381
q22 131 52 131q155 92 212 137q88 69 270 160q354 149 445 149q247 73 512 73zM197 1807q351 278 473 308q77 52 401 137q192 47 273 47h19q442 0 691 -219q45 72 61 167l27 65q3 27 10 42q-126 132 -222 175q-180 78 -217 78q-44 0 -71 8q-288 -12 -375 -39
q-251 -55 -354 -93l-258 -109q-117 -72 -192 -112q-48 -49 -168 -122q-28 -20 -51 -131q-47 -128 -47 -202zM209 1564v-39q0 -70 50 -470q7 -59 55 -105q55 -34 124 -34h4q43 0 126 46h16q27 0 39 -279q39 -342 39 -433q0 -56 31 -460q0 -26 23 -309q8 -121 67 -121
q17 -10 236 -57q227 -35 283 -35q103 0 137 147v9q0 41 -19 286q0 77 -23 188q7 58 12 58q25 0 110 -165q33 -69 195 -231q171 -152 275 -173q114 -38 308 -38q127 0 171 106q65 368 65 392v8q-5 28 -116 55q-142 84 -333 273q-145 165 -164 250q-8 0 -13 33v18
q0 21 113 145q131 199 171 292q59 144 79 258t18 235q0 71 -86 282q-59 110 -168 223q-115 117 -211 161q-169 89 -471 89q-117 0 -411 -85l-159 -58q-176 -75 -302 -167q-271 -179 -271 -295zM1681 1434q110 -10 110 -86q0 -45 -68 -198q-21 -65 -220 -306
q-146 -115 -182 -115q-37 0 -47 183q-22 144 -55 234q-34 71 -34 106v12q0 47 205 114q162 56 291 56zM2363 475l-27 -85q0 8 -7 8v-25q0 -18 -19 -31q0 -16 -48 -167q21 0 141 -101q87 -61 150 -61v17q7 42 15 216v27q0 70 -80 116q-97 67 -97 86h-28z" />
    <glyph glyph-name="S" unicode="S" horiz-adv-x="2606" 
d="M1746 2596q273 0 451 -196q52 -49 93 -137q53 -154 95 -359q50 -181 100 -400q23 -103 23 -116q0 -9 -30 -99q-52 -191 -110 -265q-45 -85 -143 -193q56 -175 134 -422l37 -186l4 -26q0 -228 -133 -574q-35 -82 -84 -160q-48 -81 -163 -192q-125 -131 -196 -151
q-234 -149 -351 -177q-279 -114 -625 -110q-172 25 -246 86q-59 34 -189 143q-29 49 -91 260q-38 114 -83.5 288t-45.5 452q5 58 54 119q39 37 136 65q108 34 115 59q-154 88 -299 307q-188 325 -10.5 844t600.5 827q173 115 321 172q199 84 408 121q79 20 228 20zM297 702
q40 -63 101 -141q168 -178 239 -178q0 -15 317 -49h12q41 0 183 38q15 0 221 51q46 18 67 18q7 -3 11 -9v-23q0 -53 -79 -170q-76 -137 -182 -266q-66 -52 -114 -57h-18q-10 0 -17 67l8 102q0 75 -82 162q-17 10 -47 15q-81 0 -544 -155q-34 -19 -51 -43q0 -290 44 -342
q33 -110 122 -202q29 -36 171 -120q9 0 62 -28q40 -23 87 -29q313 0 396 42q52 0 319 153q36 32 76 52q0 9 76 79q92 92 151 174q154 183 205 294q109 184 109 369q4 0 4 53v38q0 43 -106 268q-41 57 -115 104q-49 42 -178 72q-106 20 -300 20q0 3 -33 3l-323 -7
q-113 0 -113 73q69 268 244 473q185 171 276 171h8q17 0 17 -17v-4q0 -47 -72 -234l-28 -109q0 -106 110 -155q26 -4 36 -7q377 20 377 42q33 0 97 62q66 100 160 308q31 110 31 235q0 138 -70 333q-63 126 -233 206q-63 28 -183 28q-287 0 -512 -100q-186 -66 -359 -178
q-281 -203 -490.5 -631t-87.5 -851zM441 -633q51 -212 98 -256q121 -93 158 -95q101 -50 212 -50h36l-35 211q1 0 1 27l-19 9h-83q-112 0 -342 154h-26z" />
    <glyph glyph-name="T" unicode="T" horiz-adv-x="3124" 
d="M2331 2636h42q207 0 303 -141q333 -395 340 -464q14 -38 -8.5 -180.5t-47.5 -197.5q-131 -386 -170 -438q0 -24 -75 -77q-47 -31 -298 -87q-149 -23 -182 -23h-54q-56 0 -56 -52v-8q0 -51 -4 -72q23 -698 43 -980q-4 -29 -8 -142l4 -40q0 -295 -109 -471
q-62 -75 -144 -110q-138 -72 -282 -72q-218 -4 -236 -8q-222 22 -247 55q-169 85 -223 142l-115 85q-148 124 -180 223q-46 132 -46 330v54q0 128 73 706q-39 -16 -61 -20q-57 0 -207 82q0 4 -76 58q-74 50 -122 103t-93 107q-18 51 -25 99.5t-7 66.5v39q0 22 28.5 308
t55.5 357q7 67 50 124q69 63 234 139q85 46 545 222q89 35 731 191q229 58 471 81q109 11 156 11zM189 1191v-15q0 -80 80 -114q26 -4 35 -8q56 0 274 102l303 176l23 6q11 0 11 -24q0 -49 -50 -235q-80 -369 -111 -616q-46 -425 -46 -513v-30q0 -319 111 -402
q60 -96 268 -96h34q172 0 484 109q53 46 53 101q0 164 -8 391l19 407q12 269 27 738q27 329 27 346q0 55 147 55q398 0 398 46q20 0 149 328q132 346 132 442q0 122 -187 122h-19q-73 0 -390 -38q-357 -77 -768 -189q-61 0 -665 -246l-222 -121q-27 -34 -47 -163
q-12 -117 -37 -310t-25 -249zM2666 2296q-48 -206 -167 -509q-98 -225 -128 -247v-83q3 -21 130.5 -95t176.5 -92q109 204 171 491q42 164 42 237q0 42 -181 278q-25 20 -44 20zM1826 1172q-4 -307 -4 -342q-39 -604 -39 -793q-3 0 -3 -17q0 -8 3 -47q4 -287 4 -356
q-14 -81 -39 -126l107 -58q89 -7 127 -33q36 57 60 223q0 84 7 123q0 22 -3 37q3 41 3 75v77q0 26 -46 937q0 9 4 30q-4 80 -4 143v4q0 20 4 53q0 22 -138 191q-36 0 -43 -121z" />
    <glyph glyph-name="U" unicode="U" horiz-adv-x="2709" 
d="M2070 2522q108 -18 148 -51q99 -77 134 -222q58 -308 101 -633q-2 -46 31.5 -283t43.5 -326q21 -133 27 -309q5 -500 -54 -770q-81 -344 -237 -534q-44 -62 -195 -139q-337 -121 -437 -116q-131 21 -175 54q-72 42 -113 120q-8 0 -15 4q-22 2 -79 -77
q-126 -104 -191 -123q-89 -18 -143 -16q-305 9 -519 293q-88 132 -174 341.5t-112 363.5q-55 264 -44 479l1 15q11 219 67 479q15 61 55 321q28 106 66 384q33 142 78 178q55 66 271 101q253 60 401 52q87 15 133 13q98 -15 145 -61q50 -69 85 -69q-47 120 -44 169v12
q8 157 264 223q256 90 469 125q5 3 12 2zM1455 2164v-7q-1 -13 30 -107q25 -87 36 -324q-7 -210 -8 -384l-1 -26q-7 -123 -62 -361q-65 -300 -117 -370q-79 -161 -126 -176q-154 -96 -191 -97q-62 3 -72 260l1 26q18 343 162 836q47 254 102 412q5 29 6 46l1 15q4 70 -87 84
l-315 -22q-293 -59 -366 -87q-41 -25 -69 -141q-31 -236 -88 -531q-3 -47 -63 -331q-29 -244 -32 -304q-15 -304 80 -567q69 -169 258 -315q61 -50 207 -102q105 -32 152 -34l31 -2q149 -7 385 203q16 11 25 10h9q4 0 8 -88q32 -46 65 -47l99 -5q94 -5 232 56
q174 53 231 118q36 53 63 184q92 384 143 628q83 339 91 488q5 24 16 186l-1 25q5 37 6 73l3 47q-3 245 -19 465q-29 163 -46 288q-47 179 -91 180q0 9 -79 28q-221 -46 -519 -152q-88 -34 -90 -78z" />
    <glyph glyph-name="V" unicode="V" horiz-adv-x="3032" 
d="M895 2410h22q238 -38 325 -69q46 0 187 -58q26 -2 54 -36q75 109 149 109q36 22 384 35h139q43 0 170 -31q41 0 139 -31q78 0 260 -90q128 -89 163 -200q37 -98 37 -184v-88q0 -72 -103 -310q-73 -243 -96 -297q-48 -196 -108 -299q0 -29 -68 -226q-40 -102 -40 -128
q0 -40 -56 -203q-20 -84 -73 -219q-66 -256 -108 -328q-27 -74 -153 -256q-101 -151 -174 -175q-330 -86 -571 -61q-23 0 -619 116q-165 37 -229 129q-77 88 -190 448q-127 377 -184 766q-65 390 -92 1131q0 79 55 157q54 57 349 216q307 160 363 171t68 11zM189 1844
q27 -628 70 -962q42 -332 116 -605q130 -455 196 -578q32 -97 97 -148q99 -52 188 -52h8q189 0 600 158q121 56 162 150q78 237 78 328q0 7 123 573l46 181q0 19 91 282q23 65 69 266q205 525 205 569q50 96 50 122v19q0 83 -135 114h-125q-417 -13 -417 -56
q-11 -19 -53 -141q-115 -266 -158 -404l-43 -143q-14 -84 -42 -176q-85 -391 -85 -386q-10 0 -28 -153q-8 0 -32 -115l-16 -16q-37 0 -65 453q-15 92 -44 380t-48 507q-42 246 -77 246q-29 8 -34 8q-172 -32 -665 -329q-32 -41 -32 -92zM1077 2261q46 -189 73 -446
q27 -132 27 -315q5 0 8 -54h30q4 72 55 227q0 49 84.5 272.5t51.5 223.5q-22 0 -154 49q-144 43 -154 43h-21zM2409 2199q8 -34 8 -48v-27q0 -50 -60 -183q-43 -138 -204 -562q-50 -226 -146 -484q-59 -217 -105 -454q-57 -221 -96 -488q-10 -44 -52 -162h20q22 -14 93 -41
q70 -48 110 -48q13 -12 111 -40q91 145 176 465q76 187 143 467q0 5 73 215q0 40 87 239q38 144 88 265q58 186 89 265q58 162 58 302q-22 205 -74 205q-106 90 -299 134q-20 0 -20 -20z" />
    <glyph glyph-name="W" unicode="W" horiz-adv-x="3662" 
d="M848 2511q135 7 239 3q107 0 177 -107q43 -40 175 -228q67 -96 94.5 -170.5t27.5 -115.5q-4 -120 -33 -252q132 67 293 93q184 0 233 -48q60 -28 115 -71h26v21l-77 147q-45 106 -49 203v72q18 85 65 129q95 87 213 148q95 75 378 163q0 5 49 12q46 0 129 -90
q49 -21 199 -186q1 -9 122 -123q0 -7 57 -80q0 -7 75 -125q70 -121 167 -586q31 -223 31 -549t-69 -576q-57 -286 -184 -570q-81 -222 -180 -313q-43 -35 -220 -66q-461 -73 -576 -73q-172 20 -172 42q-41 14 -141 130q-42 50 -113 339q-38 -88 -149 -269q-23 -48 -158 -183
q-110 -78 -182 -78q-33 -15 -85 -15q-269 -8 -284 -8h-23q-417 0 -651 596q-82 180 -108 259q-34 72 -49 118q-40 149 -62 280q-69 287 -80 831q15 645 125 909q15 74 73 187q20 64 106 116q131 64 476 84zM360 2179q-136 -231 -136 -369q-35 -256 -36.5 -401t5.5 -525
q35 -365 77 -490v-24h32v23q-12 83 -15 360q0 324 57 585q31 211 114 513q23 78 74 134v18q-21 25 -45 65q-77 70 -94 90zM2563 1729v-8q0 -14 60 -111q37 -67 101 -398l16 -344q0 -270 -134 -769q-15 -23 -14 -23q-52 0 -170 338l-43 235q-19 76 -57 477q-42 94 -156 94
q-57 0 -321 -94q-103 -25 -153 -159q-47 -75 -100 -212q-58 -99 -192 -403q-90 -195 -108 -199h-1q-21 11 -21 74v11q46 630 65 974q35 170 54 388q38 178 38 232q0 137 -126 137q0 7 -87 8q-72 0 -424 -36q-174 -18 -174 -58q-50 -80 -104 -351q-15 -52 -73 -397
q-23 -205 -23 -386q0 -391 85 -821q74 -258 93 -313l79 -165q22 -16 41 -64q118 -125 315 -125q16 0 284 7q136 0 229 96q113 122 171 231q38 80 199 354q11 11 20 11q32 0 63 -162l100 -332q16 -46 101 -129q61 -34 135 -34q137 7 548 69q188 35 188 75q77 109 207 464
q51 107 82 320q57 182 62.5 565.5t-67.5 716.5q-74 285 -156 408q-69 87 -153 87h-19q-50 0 -180 -79q-124 -78 -239 -138q-41 -33 -41 -62zM2217 1893q0 -51 27 -95q51 -73 66 -122q24 -51 97 -235q45 -208 45 -223q49 -357 71 -554q13 -87 13 -178h30q44 252 44 380
q-7 72 -11 326q-64 334 -121 415q-19 33 -35 65q-47 86 -112 142q-79 79 -114 79zM1478 1297q-21 -155 -33 -425v-38q0 -6 -3 -13v-20h26q85 211 187 358q-31 0 -74 54q-73 66 -73 84h-30z" />
    <glyph glyph-name="X" unicode="X" horiz-adv-x="2771" 
d="M975 2391h27q114 0 188 -135l219 -373l59 -105v-13h36q0 18 120 190l203 282q78 65 159 65h34q106 0 345 -154q100 -76 109 -90q123 -108 159 -170q30 -73 30 -117q0 -64 -72 -236q-57 -118 -194 -285q-128 -156 -228 -308l-101 -146v-12q205 -335 356 -546
q99 -124 148 -228q50 -93 79 -229q8 -24 8 -42v-30q0 -106 -74 -219q-96 -217 -290 -420q-23 -17 -198 -86q-89 -22 -104 -22q-286 0 -343 69q-128 113 -158 188q-88 161 -178 293q-10 22 -25 26h-23q-40 -89 -63 -125q-66 -86 -90 -151q-39 -46 -91 -133
q-137 -152 -173 -152h-27q-18 0 -18 -3q2 0 -120 49q-119 29 -248 92q-376 163 -376 265q51 161 69 263q24 62 140 239q91 187 273 464q121 171 121 202h-14q-18 11 -69 93q-36 71 -188 293l-161 249q-35 61 -93 147q-25 30 -59 178v2q0 11 23 97q9 50 53 155q20 62 30 115
q19 11 54 87q16 24 154 142q325 231 343 231q125 54 239 54zM412 1925v-20q0 -31 73 -172q0 -23 225 -388l141 -264q44 -92 123 -237l9 -32q-27 -66 -146 -259q-89 -142 -181 -272q-290 -450 -290 -530q0 -46 129 -138q214 -163 267 -186q86 -40 183 -40q39 0 138 164
q145 210 145 214q30 36 59 91q10 0 46 69q9 0 39 64q12 12 57 88q14 21 11 21h-1q20 -15 85 -128q178 -278 241 -386q9 -1 41 -65q15 -12 92 -142q47 -36 91 -36q76 0 316 140l120 94q88 82 105 123v38q-24 117 -78 220q-46 96 -207 307q0 6 -52 80q-123 183 -180 283
q-74 115 -103 152l-3 15q0 11 47 71q106 143 113 164q9 7 124 176q22 17 52 69q6 0 68 82q100 113 128 182q47 66 82 184q12 39 12 50q0 40 -38 82q-109 120 -179 168q-156 108 -273 147q-17 5 -34 5h-12q-69 0 -96 -57q-156 -218 -342 -487q-77 -117 -84 -117q-7 -4 -8 -4
l-53 101q-58 98 -71 134q-9 0 -25 35q-50 77 -68 121q-7 1 -21 32q-69 112 -157 266q-32 61 -65 64h-20q-154 0 -277 -95q-147 -97 -230 -161q-68 -44 -68 -80z" />
    <glyph glyph-name="Y" unicode="Y" horiz-adv-x="2736" 
d="M1956 2494q48 0 245 -87q199 -87 301 -157q84 -54 99 -144q27 -97 27 -151q0 -60 -53 -551q-27 -246 -47 -534q-76 -480 -118 -639q-10 -26 -42 -177q-54 -122 -100 -272q-62 -167 -210 -401q-35 -71 -159.5 -220.5t-257.5 -219.5q-103 -56 -170 -56h-31q-120 0 -215 145
q-104 88 -183 144q-80 74 -181 132q-64 54 -181 122q-227 194 -245 274q-17 31 -25 92q0 54 73 183q70 80 133 124q-72 24 -206 87t-226 201q-124 182 -124 499v46q8 293 38 578q35 167 89 603q9 55 54 159q78 56 210 106q125 72 437 72q127 0 296 -71q97 -41 208 -96
q149 139 267 168q186 49 297 41zM1822 1975v-81q0 -223 -89 -665q-72 -236 -143 -321q-96 -110 -154 -110h-15q-44 0 -51 59q30 322 69 532q34 302 73 512v24q0 98 -119 173q-57 25 -130 25h-23q-105 0 -364 -46q-153 -51 -153 -97q-7 -19 -38 -257l-77 -661
q-69 -459 -69 -558q0 -151 128 -284q61 -45 277 -110q106 -46 378 -85q50 -17 50 -59q0 -26 -1 -26q-51 -169 -146 -239q-211 -124 -304 -141q-40 -22 -40 -51v-4q0 -31 116 -119q44 -44 165 -130q201 -174 204 -199q40 -42 78 -42h15q59 0 153 63q70 35 277 287
q199 293 267 496l101 281q11 68 61 259l62 365q27 132 42 447q19 116 38 365q39 309 39 377q0 129 -100 171q-69 35 -148 35h-20q-108 0 -332 -85q-77 -46 -77 -101zM326 2144q-21 -64 -75 -528q-31 -154 -50 -452q-10 -101 -8 -311q0 -181 78 -386q46 -75 133 -112
q4 0 37 -17q-31 108 -31 154v23q0 83 88 709q8 93 50 442q0 36 48 349q-28 0 -67 29q-75 35 -126 67q-12 0 -77 33zM1550 2140q72 -89 91 -186v-45q0 -28 -34 -232q-31 -205 -50 -388q-27 -112 -27 -156v-17h28q73 201 73 270q61 327 61 519q16 157 16 178q-3 11 -158 57z
" />
    <glyph glyph-name="Z" unicode="Z" horiz-adv-x="2951" 
d="M2289 2249q118 0 206 -63q114 -101 114 -202q7 0 12 -44q-4 -64 -4 -100v-65q0 -79 27 -355q0 -30 11 -210v-4q0 -70 -44 -153l-123 -142q-67 -125 -228 -294l-137 -147q41 0 239 70q165 49 227 49h34q93 0 170 -83q43 -67 43 -128q7 0 7 -32v-399q0 -85 -46 -260
q0 -3 -23.5 -63t-104.5 -185q-93 -121 -116 -147q-133 -97 -440 -157q-222 -65 -637 -131q-88 -29 -262 -53q-141 -35 -221 -47q-220 -30 -408 34q-96 44 -202 150q-89 119 -89 165q-27 121 -27 202v73q0 64 -7 109q17 273 39 273l48 196l76 106q32 61 259 297
q76 71 126 139h-40q-19 0 -218 -46q-57 -11 -112 -11q-89 0 -215 143q-75 135 -121 311q-42 148 -42 238q11 217 45 342q47 144 62 222q34 57 73 156q27 46 61 46q168 54 313 54h89q33 0 77 -4q105 14 400 23q113 19 562 61q420 66 547 66zM786 1969q-73 4 -129 4h-31
q-268 -13 -268 -57q-1 0 -7 -36q4 -42 4 -63q0 -30 -4 -49q11 -226 42 -467v-56q0 -93 87 -165q56 -34 101 -34q207 20 374 62q296 70 481 143q68 18 112 18h22q-1 0 2 -8q0 -29 -215 -233q-1 -12 -395 -415q-183 -194 -254 -265q-234 -248 -234 -325q0 -39 131 -377
q88 -283 152 -307q22 -17 49 -17h16q51 0 737 180q338 93 1042 196q41 0 69 73q44 53 44 187v378q-10 120 -65 120q0 4 -30 4h-19q-95 0 -339 -93q-260 -85 -383 -115l-160 -58q-12 -7 -36 -7h-11q6 0 6 -5q12 31 142 135q128 159 265 303q250 259 290 357q58 73 105 120
q47 49 47 117q-12 210 -39 512v160q0 15 4 41q0 141 -149 188l-65 4q-73 0 -635 -77l-575 -57q-184 0 -281 -16zM207 1520q-18 -102 -29 -279q0 -51 55 -247q14 -30 34 -111q34 -70 71 -136h24q43 92 49 126q1 1 37 73q-99 60 -126 116q-26 18 -58 154v60q0 72 -29 244h-28z
M393 -235q0 -73 -11 -121q16 -299 26 -364q11 -67 61 -145q95 -93 179 -118v62q0 8 65 115v15q-121 82 -166 209q-35 103 -126 347h-28z" />
    <glyph glyph-name="quoteleft" unicode="&#x2018;" 
d="M449 1417q-251 0 -318 124q-37 58 -63 214q-8 88 -8 108q15 192 53 307q85 234 171 319q41 72 144 168q9 0 193 159q29 11 140 94q156 104 280 151q99 25 164 78q70 29 112 29h23q73 0 170 -48q40 -26 76 -72q36 -71 36 -124v-26q0 -47 -77 -413q-11 -189 -31 -394
l23 -155v-6q0 -99 -93 -173q-116 -64 -299 -113q-176 -34 -176 -50l-30 -20q-163 -59 -239 -92q0 -20 -261 -63q0 -2 10 -2zM358 1535h37q146 0 345 94q-89 53 -155 104q-140 135 -156 211q-31 114 -31 170v61q0 83 83 302l37 70h-33q-158 -180 -202 -281
q-105 -206 -105 -323q-15 -58 -23 -121q14 -187 45 -232q57 -58 131 -58zM1408 1935q-23 127 -23 151q19 229 31 414q77 351 77 409v12q0 78 -104 110q-38 7 -60 7h-14q-57 -14 -119 -65q-16 -19 -202 -140q-135 -97 -228 -190q-128 -130 -180 -251q-59 -171 -59 -228v-38
q0 -205 195 -331q90 -60 203 -60q166 9 438 125q45 32 45 75z" />
    <glyph glyph-name="quoteright" unicode="&#x2019;" 
d="M1233 3168q251 0 318 -124q37 -58 63 -214q8 -88 8 -108q-15 -192 -53 -307q-85 -234 -171 -319q-41 -72 -144 -168q-9 0 -193 -159q-29 -11 -140 -94q-156 -104 -280 -151q-99 -25 -164 -78q-70 -29 -112 -29h-23q-73 0 -170 48q-40 26 -76 72q-36 71 -36 124v26
q0 47 77 413q11 189 31 394l-23 155v6q0 99 93 173q116 64 299 113q176 34 176 50l30 20q163 59 239 92q0 20 261 63q0 2 -10 2zM1324 3050h-37q-146 0 -345 -94q89 -53 155 -104q140 -135 156 -211q31 -114 31 -170v-61q0 -83 -83 -302l-37 -70h33q158 180 202 281
q105 206 105 323q15 58 23 121q-14 187 -45 232q-57 58 -131 58zM274 2650q23 -127 23 -151q-19 -229 -31 -414q-77 -351 -77 -409v-12q0 -78 104 -110q38 -7 60 -7h14q57 14 119 65q16 19 202 140q135 97 228 190q128 130 180 251q59 171 59 228v38q0 205 -195 331
q-90 60 -203 60q-166 -9 -438 -125q-45 -32 -45 -75z" />
    <glyph glyph-name="quotedblleft" unicode="&#x201c;" horiz-adv-x="3956" 
d="M449 1417q-251 0 -318 124q-37 58 -63 214q-8 88 -8 108q15 192 53 307q85 234 171 319q41 72 144 168q9 0 193 159q29 11 140 94q156 104 280 151q99 25 164 78q70 29 112 29h23q73 0 170 -48q40 -26 76 -72q36 -71 36 -124v-26q0 -47 -77 -413q-11 -189 -31 -394
l23 -155v-6q0 -99 -93 -173q-116 -64 -299 -113q-176 -34 -176 -50l-30 -20q-163 -59 -239 -92q0 -20 -261 -63q0 -2 10 -2zM358 1535h37q146 0 345 94q-89 53 -155 104q-140 135 -156 211q-31 114 -31 170v61q0 83 83 302l37 70h-33q-158 -180 -202 -281
q-105 -206 -105 -323q-15 -58 -23 -121q14 -187 45 -232q57 -58 131 -58zM1408 1935q-23 127 -23 151q19 229 31 414q77 351 77 409v12q0 78 -104 110q-38 7 -60 7h-14q-57 -14 -119 -65q-16 -19 -202 -140q-135 -97 -228 -190q-128 -130 -180 -251q-59 -171 -59 -228v-38
q0 -205 195 -331q90 -60 203 -60q166 9 438 125q45 32 45 75zM2675 1417q-251 0 -318 124q-37 58 -63 214q-8 88 -8 108q15 192 53 307q85 234 171 319q41 72 144 168q9 0 193 159q29 11 140 94q156 104 280 151q99 25 164 78q70 29 112 29h23q73 0 170 -48q40 -26 76 -72
q36 -71 36 -124v-26q0 -47 -77 -413q-11 -189 -31 -394l23 -155v-6q0 -99 -93 -173q-116 -64 -299 -113q-176 -34 -176 -50l-30 -20q-163 -59 -239 -92q0 -20 -261 -63q0 -2 10 -2zM2584 1535h37q146 0 345 94q-89 53 -155 104q-140 135 -156 211q-31 114 -31 170v61
q0 83 83 302l37 70h-33q-158 -180 -202 -281q-105 -206 -105 -323q-15 -58 -23 -121q14 -187 45 -232q57 -58 131 -58zM3634 1935q-23 127 -23 151q19 229 31 414q77 351 77 409v12q0 78 -104 110q-38 7 -60 7h-14q-57 -14 -119 -65q-16 -19 -202 -140q-135 -97 -228 -190
q-128 -130 -180 -251q-59 -171 -59 -228v-38q0 -205 195 -331q90 -60 203 -60q166 9 438 125q45 32 45 75z" />
    <glyph glyph-name="quotedblright" unicode="&#x201d;" horiz-adv-x="3956" 
d="M1233 3168q251 0 318 -124q37 -58 63 -214q8 -88 8 -108q-15 -192 -53 -307q-85 -234 -171 -319q-41 -72 -144 -168q-9 0 -193 -159q-29 -11 -140 -94q-156 -104 -280 -151q-99 -25 -164 -78q-70 -29 -112 -29h-23q-73 0 -170 48q-40 26 -76 72q-36 71 -36 124v26
q0 47 77 413q11 189 31 394l-23 155v6q0 99 93 173q116 64 299 113q176 34 176 50l30 20q163 59 239 92q0 20 261 63q0 2 -10 2zM1324 3050h-37q-146 0 -345 -94q89 -53 155 -104q140 -135 156 -211q31 -114 31 -170v-61q0 -83 -83 -302l-37 -70h33q158 180 202 281
q105 206 105 323q15 58 23 121q-14 187 -45 232q-57 58 -131 58zM274 2650q23 -127 23 -151q-19 -229 -31 -414q-77 -351 -77 -409v-12q0 -78 104 -110q38 -7 60 -7h14q57 14 119 65q16 19 202 140q135 97 228 190q128 130 180 251q59 171 59 228v38q0 205 -195 331
q-90 60 -203 60q-166 -9 -438 -125q-45 -32 -45 -75zM3459 3168q251 0 318 -124q37 -58 63 -214q8 -88 8 -108q-15 -192 -53 -307q-85 -234 -171 -319q-41 -72 -144 -168q-9 0 -193 -159q-29 -11 -140 -94q-156 -104 -280 -151q-99 -25 -164 -78q-70 -29 -112 -29h-23
q-73 0 -170 48q-40 26 -76 72q-36 71 -36 124v26q0 47 77 413q11 189 31 394l-23 155v6q0 99 93 173q116 64 299 113q176 34 176 50l30 20q163 59 239 92q0 20 261 63q0 2 -10 2zM3550 3050h-37q-146 0 -345 -94q89 -53 155 -104q140 -135 156 -211q31 -114 31 -170v-61
q0 -83 -83 -302l-37 -70h33q158 180 202 281q105 206 105 323q15 58 23 121q-14 187 -45 232q-57 58 -131 58zM2500 2650q23 -127 23 -151q-19 -229 -31 -414q-77 -351 -77 -409v-12q0 -78 104 -110q38 -7 60 -7h14q57 14 119 65q16 19 202 140q135 97 228 190
q128 130 180 251q59 171 59 228v38q0 205 -195 331q-90 60 -203 60q-166 -9 -438 -125q-45 -32 -45 -75z" />
    <glyph glyph-name="ellipsis" unicode="&#x2026;" horiz-adv-x="5552" 
d="M1073 616l10 -5q83 -49 170 -173q52 -110 80 -191q51 -90 54 -149q-8 -20 31 -109q37 -140 27 -244l-27 -154q-35 -92 -44 -107q-93 -130 -154 -169q-87 -78 -187 -98q-247 -80 -466 47q-124 72 -157 148q-25 17 -141 247q-8 23 -78 151q-12 42 -72 157q-59 189 -32 307
q26 97 53 143l7 13q57 100 190 208q51 38 245 83q78 24 287 -28q131 -35 204 -77zM253 356q-88 -154 0 -374q76 -121 167 -173q203 -118 528 -20q189 65 241 155q53 95 8 286q-57 196 -189 273q-131 76 -379 97q-221 -49 -261 -108q-65 -52 -115 -136zM1298 -131
q-106 -125 -180 -149q-110 -50 -173 -70q35 -57 32 -67q24 -27 36 -77q20 -11 51 -122q6 -4 -7 -56l22 -10q118 86 181 195q41 72 51 172q13 146 -13 184zM3067 616l10 -5q83 -49 170 -173q52 -110 80 -191q51 -90 54 -149q-8 -20 31 -109q37 -140 27 -244l-27 -154
q-35 -92 -44 -107q-93 -130 -154 -169q-87 -78 -187 -98q-246 -80 -466 47q-124 72 -157 148q-25 17 -141 247q-8 23 -78 151q-12 42 -72 157q-59 189 -32 307q26 97 53 143l7 13q57 100 190 208q51 38 245 83q78 24 287 -28q131 -35 204 -77zM2247 356q-88 -154 0 -374
q76 -121 167 -173q203 -118 528 -20q189 65 241 155q53 95 8 286q-57 196 -189 273q-131 76 -379 97q-221 -49 -261 -108q-65 -52 -115 -136zM3292 -131q-106 -125 -180 -149q-110 -50 -173 -70q35 -57 32 -67q24 -27 36 -77q20 -11 51 -122q6 -4 -7 -56l22 -10
q118 86 181 195q41 72 51 172q13 146 -13 184zM5061 616l10 -5q83 -49 170 -173q52 -110 80 -191q51 -90 54 -149q-8 -20 31 -109q37 -140 27 -244l-27 -154q-35 -92 -44 -107q-93 -130 -154 -169q-87 -78 -187 -98q-246 -80 -466 47q-124 72 -157 148q-25 17 -141 247
q-8 23 -78 151q-12 42 -72 157q-59 189 -32 307q26 97 53 143l7 13q57 100 190 208q51 38 245 83q78 24 287 -28q131 -35 204 -77zM4241 356q-88 -154 0 -374q77 -121 167 -173q203 -118 528 -20q189 65 241 155q53 95 8 286q-57 196 -189 273q-131 76 -379 97
q-221 -49 -261 -108q-65 -52 -115 -136zM5286 -131q-106 -125 -180 -149q-110 -50 -173 -70q35 -57 32 -67q24 -27 36 -77q21 -11 50 -122q7 -4 -6 -56l22 -10q118 86 181 195q41 72 51 172q13 146 -13 184z" />
    <glyph glyph-name="Euro" unicode="&#x20ac;" horiz-adv-x="3004" 
d="M1935 2600h42q252 0 503 -133q129 -85 171 -174q62 -137 127 -279q68 -203 68 -291q0 -10 4 -57q-50 -346 -106 -458q-53 -96 -158 -96q-184 -31 -361 -43q-20 -13 -20 -32q16 -35 38 -118q0 -69 -23 -162q4 -54 4 -77l-7 -34h108q106 -12 174 -58q156 -127 230 -258
q19 -25 57 -117q29 -22 65 -144q45 -123 45 -177v-211q0 -86 -120 -248q-77 -87 -196 -174q-203 -102 -415 -163q-256 -61 -368 -61q-39 4 -47 4q-73 -4 -95 -4q-190 15 -284 53q-220 95 -239 127q-99 71 -161 153q-85 101 -90 145q-33 55 -52 55q-11 0 -75 -54
q-81 -18 -98 -18h-30q-138 0 -246 128q-67 126 -233 465q-50 176 -64 265v49q0 31 33 133q-46 58 -56 156v6q19 370 56 423q42 100 142 156q110 27 113 41q17 229 175 502q86 136 235 324q184 177 354 266q238 124 361 136q130 38 329 38q57 16 110 16zM189 695
q0 -95 84 -95l204 42h3q20 0 24 -29q0 -29 -163 -66q-129 -41 -129 -156v-23q0 -40 67 -262q43 -97 97 -97h19q20 0 234 61l36 4q35 0 102 -121q166 -222 266 -265q191 -132 314 -162q106 -35 312 -35q261 19 295 59q54 16 196 92q50 39 162 101q82 86 180 130
q178 158 178 242q0 118 -192 321q-88 81 -163 81h-43q-106 0 -325 -133q-156 -79 -285 -79h-27q-124 0 -147 26v10q0 16 186 56q59 21 173 43q90 55 90 174q0 106 -73 225q-33 23 -69 23q-234 -29 -526 -107h-14q-21 0 -24 33q0 34 173 61q133 43 305 66q130 0 170 121
q20 85 20 161q0 176 -69 176q0 3 -37 3q-26 0 -190 -30q-32 0 -226 -19q-11 0 -16 9v5q41 122 252 227q299 72 461 72q91 11 237 19q13 0 124 -26h18q62 0 71 97l27 427q0 35 -43 98q-21 57 -83 91q-213 124 -460 124h-20q-206 -23 -299 -23q-262 -50 -336 -98
q-152 -67 -329 -196q-128 -113 -182 -203q-208 -256 -287 -542q-19 -212 -51 -212q-32 -15 -144 -36q-61 -32 -92 -115q-16 -37 -36 -350z" />
    <glyph glyph-name="asterisk" unicode="*" horiz-adv-x="2804" 
d="M1630 2899q110 -12 169 -58q102 -80 102 -235q0 -32 -4 -110h22q127 88 153 92q63 16 77 16q88 -15 123 -40q133 -103 173 -195q82 -115 189 -240q27 -30 43 -113q14 -60 19 -113q0 -94 -63 -181q-51 -142 -131 -245q-26 -51 -93 -121q149 -112 149 -200q7 0 7 -23
q-12 -115 -44 -187l-204 -349q-29 -72 -129 -189q-69 -78 -150 -114q-21 -3 -92 -65q-257 -158 -307 -158h-23q-63 0 -189 111q0 5 -53 65q-80 108 -127 206l-18 18q-34 -4 -96 -95q-15 -17 -176 -175q0 -9 -152 -73q-44 -11 -73 -15q-103 0 -201 90q-126 81 -236 197
q-89 124 -89 283q0 107 95 339q5 11 5 18q0 11 -54 63q0 13 -108 120q-84 94 -84 277q0 21 72 211q18 62 84 190q10 0 35 93q42 88 195 298q59 142 165 190q72 18 90 18q102 -12 141 -39q0 -7 21 -19h23q-5 101 -5 122q0 106 80 181q50 35 136 58l246 46q176 50 287 50z
M1011 2560l19 -372q-4 -36 -9 -36q-15 0 -69 48q-46 22 -152 129q-55 41 -101 41q-81 0 -147 -156q-185 -244 -198 -333v-16q0 -76 146 -139q284 -180 398 -232l5 -18q-6 -37 -163 -141q-108 -85 -216 -158q-20 -26 -20 -45v-8q0 -47 88 -132q65 -101 146 -185
q164 -180 186 -180q27 -20 70 -20h12q57 0 133 117q48 49 192 222q125 145 143 145h4q25 0 91 -124q53 -69 93 -149q66 -111 157 -111h16q37 0 173 102q167 102 414 279q14 31 14 48q0 32 -132 144q-161 160 -276 239q-49 51 -49 70v11q0 35 161 107q184 105 351 223
q56 30 56 69q0 46 -122 175q-144 210 -178 247q-75 53 -101 53q-30 0 -154 -88q-17 0 -179 -173q-27 -27 -40 -27q-12 0 -12 21q0 25 7 79q-4 94 -4 147q0 33 8 181q0 122 -115 152q-23 4 -33 4q-84 0 -344 -66q-90 0 -228 -55q-41 -29 -41 -89z" />
    <glyph glyph-name="slash" unicode="/" horiz-adv-x="3096" 
d="M2100 2845h7q96 0 280 -136q66 -40 164 -74q105 -41 219 -131q64 -66 85 -141q29 -19 29 -86q8 0 8 -5v-40q11 -38 11 -75v-72q12 -31 16 -86q8 -14 35 -135q34 -71 34 -175q0 -16 -63 -72q-30 -56 -98 -142q0 -10 -79 -135q-71 -111 -303 -508l-104 -172
q-31 -45 -88 -174q-89 -126 -142 -245q-88 -114 -154 -210l-96 -163q-117 -240 -267 -456q0 -13 -163 -276q-137 -196 -330 -263q-36 -11 -130 -19q-100 16 -181 46q-22 0 -189 115q-47 10 -174 116q-43 0 -132 147q-29 36 -72 122q-81 131 -110 199q-32 64 -34 138
q-19 74 -19 94v4q5 70 44 137q202 256 357 543q278 435 369 591q92 149 190 274q0 7 144 224q33 48 153 281q298 421 380 572q58 110 214 282q45 69 124 95q52 11 65 11zM2074 2716q0 -11 -27 -16q-199 -222 -274 -371q-63 -116 -307 -456q-66 -107 -169 -308
q-102 -143 -169 -256q-135 -173 -261 -400q-273 -423 -369 -595q-110 -186 -284 -410q-25 -47 -25 -73q0 -72 100 -120q327 -251 344 -251q130 -85 211 -85q120 0 144 86q25 46 80 129q79 186 152 271q92 149 198 301q5 17 131 210q0 11 107 174q36 94 148 220
q69 90 174 284q13 3 58 126q136 232 195 379q57 65 122 168q75 113 103 147q3 0 105 195q145 215 158 240q5 19 5 33q-9 63 -154 142q-96 47 -176 74q-189 119 -244 150q-17 0 -17 12h-59zM950 -748q44 -62 71 -124q31 -36 60 -102h18q28 24 96 35q102 55 171 193
q17 11 85 140q4 0 95 156q30 31 59 97q44 53 150 276q48 63 138 234q116 136 143 213q43 84 103 168q19 48 76 161q81 123 119 199q17 19 208 342q101 173 138 223q23 60 117 182q0 5 69 96v13q0 29 -66 247q-16 31 -31 128q-85 -109 -130 -193q-35 -98 -146 -235
q0 -13 -152 -224q-60 -136 -202 -391q0 -34 -124 -235q-56 -111 -185 -252q-68 -138 -149 -257q-161 -265 -294 -461q0 -11 -117 -174q-95 -209 -157 -288q-33 -84 -93 -126q-18 -15 -70 -41z" />
    <glyph glyph-name="at" unicode="@" horiz-adv-x="3583" 
d="M2420 2803q183 -34 277 -72q100 -38 205 -101q42 0 274 -263q0 -9 79 -111q76 -132 121 -287q57 -181 88 -737q0 -18 -4 -58q4 -95 4 -188v-8q0 -34 -4 -64l15 -249q-22 -117 -52 -205q-35 -127 -103 -269q-73 -127 -109 -201q-26 -57 -122 -144q-171 -119 -268 -132
q-71 -38 -198 -65q-51 -12 -126 -20q-23 -60 -75 -160q-76 -135 -108 -184q-50 -82 -115 -141q-37 -18 -91 -54q-180 -72 -338 -109q-344 -73 -515 -73q-254 0 -458 80q-110 55 -239 170q-130 107 -190 193q-193 250 -239 479q-69 239 -69 507q0 403 145 937q84 260 191 462
q47 95 168 247q85 101 275 279q0 12 96 108q191 210 269 261q77 89 152 89q155 72 377 119t687 -36zM1220 2479q425 101 584 101h62q328 0 622 -136q123 -75 194 -133q198 -191 254 -293q122 -142 176 -391q60 -172 91 -409q42 -407 42 -746v-41h28q69 202 69 298v15
q0 45 -4 56q4 33 4 67v131q0 20 4 55q-8 22 -8 106v174q-28 313 -50 460q0 68 -62 280q-22 58 -136 212q-66 64 -132 135q-167 159 -433 231q-346 79 -734 70q-452 -105 -452 -137q-43 -28 -103 -69zM189 334q0 -365 141 -687l80 -131q143 -213 384 -377q70 -43 178 -72
q0 -12 283 -30q153 0 518 77q147 43 303 110q72 46 72 123q0 23 -27 73q0 25 -19 72q0 13 -32 87q-22 45 -22 93q-36 92 -85 92q-27 -8 -28 -8h-24q-181 -26 -255 -54q0 -5 -78 -20q-13 -13 -199 -30q0 -6 -70 -11q-171 0 -307 106q-144 85 -191 211q-41 151 -41 333
q0 148 81 523q47 172 117 315q77 107 209 247q76 86 196 166q51 26 179 61q58 29 262 56q104 16 147 16h85q271 0 356 -182q79 -133 79 -206q19 -56 42 -447v-15q-5 -112 -36 -132q-29 0 -97 362q-31 78 -50 184q-39 126 -145 126q-187 -23 -329 -35q-64 -19 -163 -74
q-21 -5 -212 -15q0 -4 -85 -7q0 -10 -28 -16q-172 -81 -260 -173q-172 -195 -172 -477q0 -385 182 -503q153 -131 273 -156q130 -46 227 -46q253 9 287 36q38 17 50 17h8q20 0 90 -72q87 -85 359 -85h23q181 0 354 86q294 90 294 289v31q0 79 23 359q0 209 -50 729
q-26 185 -86 367q-41 175 -117 280q-250 367 -536 470q-200 81 -473 81h-38q-115 0 -406 -57q-279 -56 -459 -215q-66 -49 -274 -262q0 -6 -47 -62q-100 -130 -179 -310q-101 -222 -169 -475q-93 -458 -93 -736zM1747 646q97 -11 97 -71v-3q0 -62 -107 -122q-38 -14 -67 -14
q-49 0 -55 71q0 90 109 135z" />
    <glyph glyph-name="bracketleft" unicode="[" horiz-adv-x="2302" 
d="M1217 2982h46q72 0 246 -34q276 -90 310 -158q7 0 22 -42q8 0 8 7l-7 -34q23 0 67 -55q55 -82 55 -327v-84q0 -58 19 -166q-9 -88 -55 -140q-46 -55 -229 -91q-170 -19 -262 -50q8 -96 20 -317q0 -19 50 -405q7 -179 38 -431q19 -159 39 -447v-77q0 -13 -4 -35l25 -194
q124 38 227 38h46q81 0 169 -51q94 -73 94 -144q30 -125 53 -364v-37q0 -56 -40 -138q-79 -94 -117 -94q0 -19 -465 -119q-149 -31 -364 -46q-108 -19 -140 -19h-54q-93 0 -171 61q-53 61 -63 61q-49 4 -111 60q-104 48 -283 190q-72 86 -88 189q-24 68 -35 399
q-12 0 -42 504q0 30 -27 258q-42 444 -57 675q-11 34 -36 387q-5 0 -6 44q0 5 3 13q-14 173 -19 399l-19 266q26 173 78 246q126 126 207 137q141 38 337 70q25 22 258 53q105 34 265 34q0 8 12 8zM662 2397v-108q19 -501 38 -762q27 -147 46 -472q12 -45 12 -114v-124
q23 -122 23 -290q0 -115 11 -224v-81l43 -426q0 -236 34 -593q26 -100 63 -100q52 -46 78 -46h47q215 27 381 42q243 39 523 119q57 0 100 95l4 41v18q-41 404 -83 404q-54 35 -116 35h-23q-124 0 -274 -59q-12 -6 -37 -6q-52 0 -62 166q0 36 -20 177q4 50 4 88v19
q-19 282 -46 544q-22 127 -34 395q-27 92 -58 532q0 60 -15 209q0 48 127 61q89 31 264 50q162 28 162 105q-20 83 -20 151v85q0 251 -56 291q-74 53 -161 53q-39 0 -392 -85q-152 -52 -520 -108q-43 -25 -43 -82zM186 2448q23 -296 27 -536q65 -814 103 -1230
q27 -181 46 -567q27 -287 46 -580q14 -95 50 -132q195 -161 257 -192h22q-28 308 -36 660q-23 142 -38 342v80q-11 136 -19 431q-16 50 -16 83v124q-38 462 -38 479q-28 50 -42 589q-16 135 -16 279v168q-34 0 -72 15q-13 0 -50 15q-52 0 -83 19q-12 0 -54 27q-9 0 -47 16
q-24 0 -40 -90z" />
    <glyph glyph-name="backslash" unicode="\" horiz-adv-x="3096" 
d="M1013 2834q79 -26 124 -95q156 -172 214 -282q82 -151 380 -572q120 -233 153 -281q144 -217 144 -224q98 -125 190 -274q91 -156 369 -591q155 -287 357 -543q39 -67 44 -137v-4q0 -20 -19 -94q-2 -74 -34 -138q-29 -68 -110 -199q-43 -86 -72 -122q-89 -147 -132 -147
q-127 -106 -174 -116q-167 -115 -189 -115q-81 -30 -181 -46q-94 8 -130 19q-193 67 -330 263q-163 263 -163 276q-150 216 -267 456l-96 163q-66 96 -154 210q-53 119 -142 245q-57 129 -88 174l-104 172q-232 397 -303 508q-79 125 -79 135q-68 86 -98 142q-63 56 -63 72
q0 104 34 175q27 121 35 135q4 55 16 86v72q0 37 11 75v40q0 5 8 5q0 67 29 86q21 75 85 141q114 90 219 131q98 34 164 74q184 136 280 136h7q13 0 65 -11zM915 2716q0 -12 -17 -12q-55 -31 -244 -150q-80 -27 -176 -74q-145 -79 -154 -142q0 -14 5 -33q13 -25 158 -240
q102 -195 105 -195q28 -34 103 -147q65 -103 122 -168q59 -147 195 -379q45 -123 58 -126q105 -194 174 -284q112 -126 148 -220q107 -163 107 -174q126 -193 131 -210q106 -152 198 -301q73 -85 152 -271q55 -83 80 -129q24 -86 144 -86q81 0 211 85q17 0 344 251
q100 48 100 120q0 26 -25 73q-174 224 -284 410q-96 172 -369 595q-126 227 -261 400q-67 113 -169 256q-103 201 -169 308q-244 340 -307 456q-75 149 -274 371q-27 5 -27 16h-59z" />
    <glyph glyph-name="bracketright" unicode="]" horiz-adv-x="2302" 
d="M1037 -1072h-46q-72 0 -246 34q-276 90 -310 158q-7 0 -22 42q-8 0 -8 -7l7 34q-23 0 -67 55q-55 82 -55 327v84q0 58 -19 166q9 88 55 140q46 55 229 91q170 19 262 50q-8 96 -20 317q0 19 -50 405q-7 179 -38 431q-19 159 -39 447v77q0 13 4 35l-25 194
q-124 -38 -227 -38h-46q-81 0 -169 51q-94 73 -94 144q-30 125 -53 364v37q0 56 40 138q79 94 117 94q0 19 465 119q149 31 364 46q108 19 140 19h54q93 0 171 -61q53 -61 62 -61q50 -4 112 -60q104 -48 283 -190q72 -86 88 -189q24 -68 34 -399q13 0 43 -504q0 -30 27 -258
q42 -444 57 -675q11 -34 36 -387q5 0 6 -44q0 -5 -3 -13q14 -173 19 -399l19 -266q-26 -173 -78 -246q-127 -126 -207 -137q-141 -38 -337 -70q-25 -22 -258 -53q-105 -34 -265 -34q0 -8 -12 -8zM1592 -487v108q-19 501 -38 762q-27 147 -46 472q-12 45 -12 114v124
q-23 122 -23 290q0 115 -11 224v81l-43 426q0 236 -34 593q-26 100 -63 100q-52 46 -78 46h-47q-216 -27 -381 -42q-243 -39 -523 -119q-57 0 -100 -95l-4 -41v-18q41 -404 83 -404q54 -35 116 -35h23q124 0 274 59q12 6 37 6q52 0 62 -166q0 -36 20 -177q-4 -50 -4 -88v-19
q19 -282 46 -544q22 -127 34 -395q27 -92 58 -532q0 -60 15 -209q0 -48 -127 -61q-89 -31 -264 -50q-162 -28 -162 -105q20 -83 20 -151v-85q0 -251 56 -291q74 -53 161 -53q39 0 392 85q152 52 520 108q43 25 43 82z" />
    <glyph glyph-name="underscore" unicode="_" horiz-adv-x="2865" 
d="M2543 351q83 -65 96 -130q100 -362 100 -450l-4 -59q-30 -126 -66 -162q-83 -102 -158 -127q-98 -99 -196 -178q-90 -57 -99 -74l-84 -52l-121 -56q-176 -42 -283 -42h-54q-17 0 -39 4q-15 -4 -34 -4h-88q-32 0 -32 4q-719 16 -851 55q-138 7 -190 27q-103 16 -197 99
q-107 127 -135 247q-23 100 -50 285v49q0 24 -3 61q18 76 37 93q120 100 120 104l156 132q81 84 85 84q106 105 162 123q63 -4 73 -13l33 5q47 0 792 -62q124 4 234 4q430 38 466 38q170 23 206 23h8q38 0 116 -28zM2598 -141l-78 316q-26 75 -97 75q-39 0 -53 -4
q-155 -27 -286 -27q-260 -34 -578 -34l-26 3q-732 59 -748 59q-28 0 -59 -19q-94 -91 -94 -149q4 -246 12 -395v-12q0 -103 129 -171q866 -108 1066 -108h27q100 0 168 11q372 83 413 109q216 85 216 255q0 20 -12 91zM377 13l-141 -106q-71 -44 -71 -177q9 -221 31 -221
q0 -74 41 -144l73 76q49 23 56 45q59 27 67 41q10 16 57 16q-29 90 -29 118v11q-11 279 -11 383q-24 0 -73 -42z" />
    <glyph glyph-name="exclamdown" unicode="&#xa1;" horiz-adv-x="1815" 
d="M784 -827h-46q-40 0 -160 42q-10 0 -68 23q-35 0 -102 63q-51 20 -164 122q-56 43 -94 116q-78 77 -78 194q-6 0 -12 57q0 92 50 303q27 134 81 361q27 125 65 426q46 168 62 277q30 117 115 334q0 55 94 169q29 65 60 114v13q-58 72 -58 83q-81 141 -81 245
q29 256 50 256q29 78 141 176q83 70 179 70q160 0 271 -46l42 3h48q113 0 266 -71q75 -47 135 -112q95 -105 119 -227q8 -54 8 -75v-50q0 -192 -118 -304l-122 -96q100 -63 133 -139q23 -82 23 -102q-8 -261 -12 -275l12 -194q-16 -219 -24 -468l8 -456q-23 -204 -27 -263
q4 -74 4 -129q-10 -73 -31 -104q-61 -83 -279 -168q-354 -162 -490 -168zM1455 -380l-4 122q0 39 27 268l-8 455q8 269 23 464l-11 188q3 57 11 277q0 53 -51 107q-42 25 -150 48q-194 97 -343 97h-19q-96 0 -106 -141q0 -126 -46 -273q-54 -357 -66 -475q0 -37 -54 -310
q-34 -228 -57 -476q-7 -32 -12 -230q-38 -181 -38 -252v-12q0 -142 197 -175h24q83 0 367 120l259 120q57 37 57 78zM421 -556v57q0 39 43 298q0 154 27 361q0 61 61 424q22 69 50 358q8 29 58 353q38 106 38 258q1 0 19 76q-119 -66 -127 -115q-65 -126 -147 -394
q-19 -106 -57 -261q-35 -217 -42 -308q-20 -75 -50 -236q-11 -31 -58 -232q-50 -259 -50 -296q32 -140 150 -273zM1578 2051v27q0 210 -247 335q-91 32 -163 32h-28q-11 -10 -34 -12l-23 4q-78 -18 -225 -134q-54 -82 -54 -157q23 -137 70 -189q129 -139 171 -139
q149 -85 269 -85h4q95 0 223 145q37 73 37 173zM840 1772v36q-109 91 -142 211q-23 100 -23 131q22 162 56 192q19 45 88 97q43 32 60 32v31l-68 4q-139 0 -196 -101q-49 -47 -49 -133q-5 0 -15 -142q11 -70 95 -211q72 -73 194 -147z" />
    <glyph glyph-name="questiondown" unicode="&#xbf;" horiz-adv-x="2437" 
d="M1102 -1157q-337 0 -517 110q-71 14 -306 246q-102 129 -143 228q-38 72 -68 245l-8 72q0 245 38 349q28 91 35 212q27 82 54 257q30 94 42 176q44 85 90 153q37 52 244 259q120 117 144 184q23 27 65 27q-133 132 -183 242q-33 104 -33 160v4q0 28 16 87q-9 14 -9 21
v126q0 12 -2 16q106 252 168 293q89 175 230 232q93 45 208 45q40 15 112 15h8q86 0 249 -94q124 -92 137 -135q39 -72 61 -215q0 -26 4 -39q0 -72 -43 -353q-1 -4 -7 -4q0 -44 72 -68q97 -83 97 -198q15 -41 15 -80q-19 -80 -31 -187q-27 -88 -54 -217q0 -8 -57 -207
q0 -11 -4 -29q7 -29 32 -29q69 35 205 35h11q70 0 152 -69q33 -47 73 -165q26 -40 96 -272q34 -86 34 -245q0 -47 -8 -107q4 -46 4 -66q-8 -133 -19 -226l8 -59q0 -130 -46 -190q0 -51 -186 -205q-111 -77 -217 -113q-422 -222 -763 -222zM2157 -533q0 15 -51 138
q-42 188 -147 479q-106 142 -181 142q-49 0 -125 -96q-194 -181 -250 -181q-65 -29 -161 -89q-123 -41 -151 -41q-18 0 -24 29q0 80 200 305q185 221 221 357q73 151 110 344q11 0 14 157q0 196 -96 239q-43 24 -87 24h-12q-35 0 -184 -46q-213 -46 -258 -62
q-36 -17 -70 -144q-42 -102 -157 -227q-84 -61 -298 -286q-137 -210 -198 -342q-58 -171 -58 -320q0 -33 -4 -96q0 -118 74 -294q76 -144 168 -223q142 -143 234 -176q140 -82 361 -82q0 -3 83 -3q167 4 361 62q223 84 499 224q78 58 157 133q30 46 30 75zM2200 -144v22
q-4 57 -4 76q0 9 7 57q-7 174 -28 258q-30 72 -76 232q-39 72 -61 136h-23q-65 -139 -78 -177q-14 0 -34 -73q0 -9 -25 -55q99 -51 193 -178q21 -32 101 -298h28zM1712 1236q0 84 27 220q-27 168 -64 168h-5q-19 -4 -76 -137l-83 -97q98 -26 201 -154zM1524 1717v23
q0 259 -272 360l-54 8q-282 -38 -282 -60q-53 -10 -178 -149q-53 -79 -53 -139q0 -100 119 -249q109 -96 193 -96q59 -19 113 -19h19q94 0 248 66q147 85 147 255zM1591 2022q6 35 9 142q-11 112 -48 198q-53 71 -133 107q-89 -153 -89 -150q-2 0 -19 -46q-10 0 -28 -55
q84 0 228 -127q50 -50 50 -69h30z" />
    <glyph glyph-name="multiply" unicode="&#xd7;" horiz-adv-x="2577" 
d="M2130 1592q89 -132 112 -307q9 -76 10 -231q27 -32 39 -103q82 -100 102 -298q-15 -337 -49 -383q7 -57 -14 -112q-41 -62 -61 -78l-145 -120q-196 -163 -392 -253q-134 -6 -194 67q-112 68 -202 145l-136 -112q-267 -206 -277 -194q-74 -32 -163 -5q-41 11 -187 140
q-53 64 -294 247l-38 46q-34 42 -58 132q-1 69 12 115q-5 166 -38 273q-11 67 1 147q-5 48 22 118q8 25 29 43l54 44l-11 77q13 77 -20 315q-24 240 38 359q32 66 137 177q26 21 112 112q21 17 51 31q30 31 48 45q124 67 222 60q151 -22 205 -59q41 -11 213 -180l33 15
q30 28 47 42l42 35q58 49 232 53q55 -8 125 -56q377 -329 393 -347zM1464 1864l-67 -55q-8 -8 -43 -95q-25 -22 -22 -99q-12 -95 9 -212q-4 -4 2 -53l94 77q50 42 139 54q116 8 270 -93q109 -48 235 -141l25 -25q12 144 -69 303l-28 39l-8 11q-194 179 -295 259
q-84 101 -196 59q-34 -18 -46 -29zM1513 1321q-185 -167 -217 -193q-32 -27 -92 37q-259 280 -286 257q-108 50 -229 -49q-173 -143 -275 -294q-48 -91 -18 -127l11 -13q205 -169 350 -272q30 -36 -33 -88q-183 -153 -350 -250l-7 -5q-101 -113 -20 -210l17 -20
q11 -14 208 -167q162 -157 225 -193q50 -36 155 51q135 96 174 127l122 101q80 68 134 34q21 -11 108 -88q86 -52 164 -115q57 -24 141 46q97 45 256 176l133 110q67 55 8 139l-20 24q-32 38 -229 191q-50 25 -84 55q-17 20 14 51l19 12q274 228 257 248q31 53 -25 121
l-41 50q-89 107 -307 211q-142 88 -212 70q-37 -14 -51 -27zM2241 799q-46 -63 -97 -105l-95 -79l14 -14l189 -153q11 180 15 219q-12 37 -26 132zM800 1991l-16 -11q53 -89 50 -129q-6 -26 6 -71q-3 -20 20 -151q-12 -9 10 -67q155 4 338 -217l20 21q-12 21 -22 259
q17 94 -82 213l-20 25q-115 107 -179 127q-70 15 -125 1z" />
    <glyph glyph-name="divide" unicode="&#xf7;" horiz-adv-x="1703" 
d="M768 682h12q96 0 235 -64q99 -70 164 -125q89 -53 121 -102q4 -22 81 -79q103 -103 146 -198l53 -147q15 -97 15 -115q-15 -159 -49 -222q-36 -112 -112 -180q-173 -192 -428 -192q-143 0 -210 50q-30 3 -246 143q-16 17 -142 92q-31 30 -142 100q-145 134 -180 250
q-26 96 -26 150v15q0 114 60 275q26 58 170 195q56 60 263 120q132 34 215 34zM189 47q0 -178 187 -324q127 -67 231 -67q235 0 467 247q131 152 131 255q0 109 -135 252q-147 142 -302 142q-150 0 -377 -106q-167 -152 -171 -224q-31 -77 -31 -175zM1338 148
q-30 -162 -82 -219q-71 -98 -114 -148q58 -31 60 -41q34 -12 71 -49q22 0 104 -81q7 0 22 -50h23q59 135 59 260q0 83 -39 175q-63 132 -104 153zM768 2618h12q96 0 235 -64q99 -70 164 -125q89 -53 121 -102q4 -22 81 -79q103 -103 146 -198l53 -147q15 -97 15 -115
q-15 -159 -49 -222q-36 -112 -112 -180q-173 -192 -428 -192q-143 0 -210 50q-30 3 -246 143q-16 17 -142 92q-31 30 -142 100q-145 134 -180 250q-26 96 -26 150v15q0 114 60 275q26 58 170 195q56 60 263 120q132 34 215 34zM189 1983q0 -178 187 -324q127 -67 231 -67
q235 0 467 247q131 152 131 255q0 109 -135 252q-147 142 -302 142q-150 0 -377 -106q-167 -152 -171 -224q-31 -77 -31 -175zM1338 2084q-30 -162 -82 -219q-71 -98 -114 -148q58 -31 60 -41q34 -12 71 -49q22 0 104 -81q7 0 22 -50h23q59 135 59 260q0 83 -39 175
q-63 132 -104 153z" />
    <glyph glyph-name="a" unicode="a" horiz-adv-x="2701" 
d="M1370 2581l215 -19q50 -3 220 -94q31 -28 89 -54l137 -103q111 -57 235 -216q132 -176 174 -333q146 -394 146 -852q4 -164 0 -421.5t-23 -482.5q-15 -82 -38 -277q-27 -192 -95 -422q-35 -58 -106 -109q-132 -52 -196 -52q-259 0 -410 72q-83 29 -184 153
q-35 -58 -207 -147l-271 -98q-53 -10 -65 -10h-34q-70 2 -237 84q-325 260 -325 264q-131 164 -155 198.5t-96 208.5q-49 126 -60.5 407.5t-11.5 781.5q27 229 65 406q38 122 53 200q56 128 113 235q0 37 173 259q125 143 245 256q74 80 130 90q208 61 338.5 68t180.5 7z
M747 242q23 -659 45 -659q65 -252 84 -285q31 -53 85 -53h26q20 0 108 38q193 72 319 141q41 36 41 104v138q0 23 -4 62q0 61 98 74h45q40 0 40 -40v-3l-16 -200q0 -179 221 -248q94 -35 285 -35q69 0 157 53q34 0 99 311q42 370 61 728t16 553q-11 317 -44 456
q-34 190 -96 343q-35 139 -182 335q-68 86 -172 86h-58q-180 0 -330.5 -23t-233.5 -69q-91 -33 -157 -136q-48 -44 -194 -337q-105 -258 -159 -510q-84 -409 -84 -824zM1617 1422q51 0 51 -202l12 -141q-4 -46 -4 -92q0 -455 -61 -455q0 -17 -133 -34q-35 0 -35 125
q-4 20 -8 80q0 41 46 336q0 71 31 219q0 142 80 164h21z" />
    <glyph glyph-name="b" unicode="b" horiz-adv-x="3131" 
d="M2084 2715q98 -54 220 -111q85 -52 140 -108q37 -22 139 -163q31 -56 104 -147q105 -270 105 -339q6 0 12 -40l-4 -17v-6q0 -179 -53 -292q-12 -28 -12 -47v-11q70 -58 91 -87q95 -106 162 -340q35 -135 35 -314v-54q0 -111 -102 -347q-5 1 -60 -114q-25 -20 -96 -118
q-56 -71 -120 -117q-245 -194 -309 -212q-128 -91 -205 -117q-21 -18 -218 -97t-319 -109q-253 -67 -758 -113q-110 -9 -194 -2l-19 2q-172 16 -323 120q-129 89 -195 274q-22 94 -22 139q38 505 96 799q19 53 72 416q4 4 38 143q-116 53 -184 175q-45 110 -45 187
q15 229 49 328q83 197 109 237l72 93q0 8 31 15q42 31 192 98q245 127 367 170l180 61l299 88q255 68 364 90q147 37 361 -13zM189 1538q0 -112 81 -192q22 -28 137 -69q17 -19 17 -41q0 -60 -58 -291q-38 -291 -77 -434q-42 -282 -77 -695q0 -175 168 -306q111 -75 256 -87
q152 -14 527 42q60 -6 411 74q262 81 328 148q323 265 334 311q88 80 120 343q15 51 23 127q0 183 -55 300q-68 170 -254 293q-21 14 -21 28v4q0 16 115 127q53 68 100 227q4 28 4 45v12q-9 240 -32 278q-86 239 -321 375q-202 109 -313 118q-440 21 -511 0
q-520 -87 -626 -139q-128 -74 -152 -139q-120 -214 -120 -440zM1527 1659q68 -6 75 -88v-2q0 -147 -177 -184q-197 -56 -244 -63h-5q-24 3 -29 48q3 38 3 61v81q0 23 -3 62q0 51 130 60q95 23 250 25zM1523 733l19 -1q133 -12 164 -100v-20q-20 -176 -38 -175
q-29 -88 -210 -253q-130 -103 -256 -112q-64 -24 -103 -21l-14 2q-31 3 -31 40v2q31 390 46 525q0 35 96 56q29 22 271 52q15 8 56 5z" />
    <glyph glyph-name="c" unicode="c" horiz-adv-x="2321" 
d="M1363 2459h130q276 0 368 -88q46 -40 76 -100q21 0 69 -171q15 -31 50 -147q41 -66 76 -212q28 -140 19 -270q0 -79 -67 -207q-111 -127 -148 -128q-98 -43 -201 -62q-49 -23 -148 -62q-114 -71 -152 -109q-55 -119 -55 -268q3 -7 3 -27q97 32 130 32h72q98 -8 173 -52
q98 -69 157 -184q79 -87 173 -280q79 -138 79 -164q46 -119 46 -212v-35q0 -51 -48 -165q-15 -13 -39 -70q-67 -99 -180 -136q-308 -103 -465 -103q-25 -3 -64 -3q-6 0 -61 7q-104 -4 -127 -4q-89 0 -245 45q-113 50 -134 62q-1 6 -107 69q-6 2 -169 170q-23 21 -122 145
q-158 181 -214 285q-159 323 -159 547q-19 99 -19 237v50q0 415 227 888q0 52 173 263q124 137 204 194q179 126 312 186q261 79 387 79zM189 838v-27q0 -163 43 -448q30 -137 202 -353q5 0 47 -42q66 -62 207 -133q106 -64 281 -98q167 -23 213 -23h131q42 0 260 46
q63 16 164 119q120 89 120 222v34q0 141 -107 286q-73 89 -176 89h-50q-57 0 -97 -41q-17 -12 -80 -62q-41 -25 -174 -66h-2q-20 0 -98 72q-67 89 -112 238q-49 92 -49 302q0 70 28 217q15 85 112 237q4 0 41 39q215 176 309 176q61 12 99 12h123q129 0 150 37q37 44 37 260
q15 98 15 158v50q0 123 -86 155q-76 36 -258 36h-108q-131 0 -355 -74q-213 -112 -325 -205q-182 -171 -238 -269q-41 -59 -85 -182q-81 -153 -155 -452q-27 -156 -27 -310z" />
    <glyph glyph-name="d" unicode="d" horiz-adv-x="2513" 
d="M1530 2680q197 0 317 -61q17 0 163 -93q23 -24 100 -73q110 -107 183 -249q87 -157 96 -398q5 -320 -36 -580q-17 -118 -64.5 -263.5t-206.5 -554.5q-164 -341 -228 -439q-80 -125 -231 -297q-19 -13 -116 -100q-229 -190 -447 -223q-160 -42 -419 -42h-106
q-102 15 -146 53q-87 82 -95 198q0 206 22.5 732.5t52.5 734.5q-79 1 -156 67q-119 128 -134 227q-19 90 -19 208q0 151 83 298l81 185q24 73 111 233q53 115 85 158t111 58q101 61 516 168q237 38 368 47q0 3 -3 3q46 -4 70 -4t48 7zM189 1523q0 -222 84 -300
q73 -73 140 -72q67 6 72 5q19 -8 19 -36q-11 -163 -34 -379q-46 -1007 -46 -1183q0 -101 124 -122q377 0 480 39q93 0 316 132q97 73 229 203q157 159 229 325q33 86 65 143q85 182 119 338q29 47 59 229q46 188 46 460q0 211 -66 336q-147 325 -427 429q-70 32 -246 32
q-19 4 -94 4q-409 -46 -679 -155q-60 -19 -256 -143q-94 -52 -118 -163q-12 -41 -16 -122zM1309 1394q66 0 82 -138q15 -79 19 -216q0 -211 -72 -423q-30 -108 -75 -178q-3 0 -117 -131q-17 -18 -32 -18q-10 8 -10 66q0 90 8 511q-4 242 -4 407q0 79 46 106q24 7 155 14z
M1238 1226v-60q3 -233 3 -271h31q5 121 9 144q0 13 -13 187h-30z" />
    <glyph glyph-name="e" unicode="e" horiz-adv-x="2259" 
d="M1789 2606q97 -4 197 -48q118 -82 150 -194q11 -60 11 -70q0 -72 -71 -357q-59 -157 -136 -423q-11 -62 -50 -166q4 -52 4 -60q-15 -209 -49 -302q-45 -130 -90 -161q-44 -105 -57 -158h24q81 27 113 27h18q98 -11 143 -44q91 -59 126 -168q29 -100 29 -269
q0 -95 -42 -211q-30 -151 -94 -226l-60 -115q-21 -19 -62 -89l-124 -135q-114 -82 -277 -132l-315 -127q-270 -99 -317 -99q-26 -18 -154 -38q-188 32 -256 58q-44 69 -118 136q-161 217 -161 345q-7 184 -7 195v76l5 27q-5 8 -5 12q30 397 30 438v115q0 28 -3 47
q0 43 26 402q0 21 -74 61q-83 105 -83 308v11q4 53 73 401q77 247 77 294q22 121 70 172q66 89 143 136q84 74 419 198q196 72 500 110q112 23 447 23zM355 1911q8 -249 44 -249q34 -54 89 -54h25q76 19 82 19q22 0 24 -32v-92q0 -127 -23 -316q4 -20 4 -21
q-50 -392 -50 -739q-11 0 -15 -275q0 -305 171 -407q132 -110 308 -110q151 0 290 70q370 130 431 170q283 127 283 300q0 15 4 41q0 142 -24 229q-51 120 -155 120q-50 0 -413 -155q-106 -56 -142 -56q-30 7 -30 70v62q7 216 36 216q15 25 163 74q155 86 220 154
q37 54 68 182q4 20 20 179q0 117 -114 156q-38 9 -50 9q-36 0 -244 -78q-4 -3 -13 -3h-12q-28 0 -28 51q0 33 4 77q-4 28 -4 46q10 178 51 178q6 0 190 46q366 36 366 54q24 0 46 180q61 219 61 283q0 96 -119 163q-56 24 -121 24q-349 0 -543 -42q-192 0 -678 -225
q-106 -63 -167 -140z" />
    <glyph glyph-name="f" unicode="f" horiz-adv-x="3115" 
d="M1305 2596l78 13q113 17 615 37q253 -1 448 -15.5t282 -43.5q110 -54 151 -133q42 -77 53 -149q17 -109 -33 -337q9 -56 -69 -173q-48 -49 -125 -79q-133 -54 -173 -61l-96 -15l1 -28q201 -37 232.5 -89t64.5 -130q13 -42 16 -57l9 -64q13 -108 -48 -343
q-103 -191 -284 -281q-6 -1 -100 -43q19 -92 25 -131l47 -301q4 -27 7 -119q12 -46 19 -91l3 -18q15 -198 13 -310q-20 -189 -133 -313q-36 -46 -161 -96q-43 -13 -69 -17l-46 -7q-13 -2 -32 -9q-117 5 -232 2q-46 20 -244 23q-1 6 -123 6q-47 11 -174 11q-216 26 -275 85
q-76 38 -162 133q-65 80 -87 223q-7 39 -16 302q-25 479 -36 552q-8 45 -43 321q-7 21 -7 22l-8 98q-24 121 -37 163q-1 4 -4 53q-24 115 -66 109q-118 -19 -249 87q-183 157 -195 335q-31 192 51 390q134 164 202 174q87 53 226 99q154 77 312 102q115 36 256.5 69
t215.5 44zM962 1567q23 -145 130 -177q51 -1 52 -11q49 16 141 63q33 5 47 -75q150 -1291 153 -1428q8 -350 15 -395q14 -93 186 -162q136 -82 342 -50l19 3q215 34 258 274q18 32 -5 256q8 2 -1 64q-5 31 -21 108q-5 105 -8 128l-37 236q-21 125 -42 215q-10 61 35 89
q179 62 265 145q111 112 116 207q34 142 24 206l-6 41q-16 99 -107 125q-29 8 -64 7q-37 -6 -254 -118q-57 -32 -88 -37l-16 -2q-39 -7 -55 92q-46 146 -94 239q-7 -2 -3 -11q-3 -1 23 53q-1 11 112 47q134 28 479 94q203 79 196 123q17 20 40 178q20 96 10 196
q-33 214 -309 171q-43 -3 -99 -12l-30 -4q-151 -24 -461 -122q-246 -59 -505 -163q-106 -42 -377 -191q-107 -65 -87 -189q17 -155 26 -213z" />
    <glyph glyph-name="g" unicode="g" horiz-adv-x="2482" 
d="M1655 2488h68q103 -13 142 -43q135 -105 184 -266q63 -201 139 -321q50 -83 107 -219q67 -104 67 -256q-28 -103 -109 -221q-43 -68 -118 -111q-82 -41 -84 -57q0 -21 148 -258q132 -201 151 -257q42 -142 20 -249q-15 -203 -121 -520q-15 -19 -43 -94q-32 -67 -170 -179
q-23 -24 -330 -186q-240 -108 -535 -83q-181 26 -293 94q-56 28 -291 288q-181 220 -398 587q-129 200 -129 553v84q0 328 206 816q81 157 217 323q115 128 174 167q149 115 241 180q271 141 335 164q271 64 422 64zM189 763v-62q0 -321 97 -470q24 -64 195 -262l79 -59
q176 -114 329 -136q201 -19 394 35q271 114 432 292q77 71 148 312q17 57 32 222q-9 285 -37 387.5t-46 125.5q-55 70 -130 70h-8q-75 0 -267 -65t-288 -93q-62 -31 -93 -114q-20 -71 -21 -207q0 -146 154 -180h14q57 0 116 38q4 2 12 2h12q-4 0 -3 -1v-8q0 -41 -60 -97
q-59 -42 -245 -117q-37 -14 -72 -14q-109 0 -109 262q0 125 38 256q0 82 198 497q80 87 157 142q120 75 314 120q89 23 274 31q90 50 90 99q50 103 50 184v65q0 107 -77 227q0 40 -95 100q-29 13 -61 13h-46q-172 0 -416 -66q-315 -157 -376 -209q-208 -162 -240 -194
q-7 -13 -108 -127q-115 -168 -178 -307q-159 -415 -159 -692z" />
    <glyph glyph-name="h" unicode="h" horiz-adv-x="2903" 
d="M2539 2590h4q85 -5 198 -177q24 -40 81 -257q28 -135 12 -451q4 -1 4 -8q-2 -40 -24 -296t-135 -980q-57 -307 -88 -400q-12 -73 -71 -273q-43 -160 -74 -159l-96 -55q-65 -42 -131 -98q-69 -23 -211 -113q-18 1 -87 -27q-27 1 -221 -86q-74 -12 -84 -11q-209 10 -345 73
q-44 -26 -106 -65q-109 -69 -125 -68q-49 2 -160 -31q-52 -13 -80 -12l-23 2q-94 4 -363 136q-181 58 -232 150q-73 60 -67 606q-3 83 -9.5 346.5t-4.5 637.5q-12 218 8 1017q18 85 44 116q92 86 166 108q300 145 501.5 210t326.5 103q39 32 191 43h12q75 -4 208 -104
q34 -32 82 -121q81 26 578 169q179 82 321 75zM1072 836q-47 2 -42 104q-13 773 -12 1002q-23 174 -58 217q-42 69 -203 76q-41 2 -275 -93t-235 -136q-9 -17 -10 -32q-14 -372 4 -1973l11 -405q29 -179 78 -182q27 -20 214 -94q174 -90 250 -93q120 -7 165 107q21 0 62 479
q0 148 3 212l1 19q5 99 34 108q37 9 104 6l38 -2q69 -3 67 -50l-1 -31l-38 -300l-20 -182q-7 -156 183 -229q76 -28 230 -35q68 -3 169 93q63 116 70 273q18 68 43 239q40 116 47 275q15 46 56 416q20 114 71 516q24 117 58 411q33 117 44 346l3 65q11 223 -26 258
q-59 62 -125 71l-23 1q-56 3 -315 -65q-128 -30 -129 -71q-18 -44 -59 -332q-40 -191 -128 -748q-11 -239 -72 -236q-27 -6 -234 -5z" />
    <glyph glyph-name="i" unicode="i" horiz-adv-x="1695" 
d="M1002 2789h65q124 0 253 -68q120 -85 184 -184q83 -172 83 -340v-56q0 -102 -90 -293q-50 -64 -138 -149q159 -86 159 -340v-4q0 -119 4 -259l-55 -552q-9 -7 -27 -178l-77 -437q0 -23 -30.5 -101t-132.5 -251q-55 -81 -193 -208q-87 -71 -184 -89q-15 0 -155 -40h-170
q-17 0 -156 34q-81 0 -181 88q-31 0 -76 101q-7 41 -15 121q15 320 58 724v63l24 655q34 246 66 287q77 92 88 135v15q-138 166 -104 406q20 145 71 232q94 162 94 170q51 84 144 257q173 177 318 218q118 43 173 43zM531 2215q0 -334 289 -459q86 -31 144 -31h7
q81 0 283 60q130 80 183 260q21 59 21 107v34q0 319 -239 444q-77 34 -163 34h-42q-78 0 -257 -90q-153 -96 -206 -262q-20 -49 -20 -97zM925 1593q-185 0 -275 15q-26 -1 -69 -64l-4 -37q0 -20 4 -75q-27 -341 -43.5 -669t-31.5 -439q-42 -320 -42 -381q0 -77 101 -112
q103 -34 209 -34h154q145 0 273 106q40 34 63 198q0 20 58 354q0 52 70 649q-4 107 -4 207v36q0 169 -57 220q-56 52 -129 52h-12q-34 0 -227 -26h-38z" />
    <glyph glyph-name="j" unicode="j" horiz-adv-x="2586" 
d="M1501 2557q97 -5 141 -33q26 -13 161 -137q38 -23 170 -160q222 -197 224 -220q114 -145 123 -263q94 -236 107 -409l3 -35q1 -17 5 -22l-2 -19l1 -12l41 -398q-3 -226 12 -436q-5 -129 -5 -276q-10 -35 -33 -291q-54 -189 -135 -292q-48 -41 -87 -106q-6 0 -86 -80
q-7 -1 -111 -100q-94 -83 -242 -162q-204 -83 -365 -95q-124 -2 -235 20q-340 159 -425 225q-103 58 -383 302q-49 40 -52 87q-12 -2 -11 -3q-9 0 -9 23q-186 216 -208 512q-5 66 39 299q47 159 117 258q62 65 142 71q200 25 344 44l6 1q72 6 164 -36q95 -65 101 -149
q8 1 10 -23q4 -50 -48 -179l-10 -84q124 64 122 83q37 81 25 239q8 97 0 206l-3 37q-122 -10 -320 153q-83 60 -142 137q-16 26 -24 89q-12 -1 -33 97q-3 47 -7 244q-20 273 -54 417l-1 9q2 84 33 130q44 56 133 78q126 32 362 130.5t445 128.5zM658 2097q33 -128 55 -430
q3 -206 6 -243q6 -77 124 -109q12 1 19 -2q34 2 174 90q94 33 100 34q48 4 57 -125q39 -265 49 -405l1 -4q8 -400 -9 -401q-33 -144 -80 -169q-192 -113 -255 -118q-62 -4 -69 81q-5 65 28 235q33 65 35 104q-5 79 -142 86q-120 -18 -340 -44q-68 -6 -107 -132
q-76 -187 -75 -370q20 -269 224 -477q99 -89 262 -135q129 -37 262 -28q149 11 382 102q115 60 288 246q5 14 118 182q179 363 167 537q21 2 -13 592q-35 165 -56 339q-103 444 -166 677q-34 148 -66 146q-55 78 -126 72q-147 -21 -734 -243q-118 -24 -114 -76z" />
    <glyph glyph-name="k" unicode="k" horiz-adv-x="2774" 
d="M1114 2554q199 0 251 -122q53 -95 53 -151q19 -40 19 -81v-144q87 85 278 249q163 196 194 196q58 11 137 11h112q125 0 311 -109q223 -128 130 -307q-47 -76 -103 -148q-234 -276 -276 -353q-18 -16 -65 -103q-22 -11 -102 -180l-117 -198v-12q91 -158 237 -305
q48 -63 159 -162q19 -24 154 -120q161 -138 181 -188q15 -39 -1 -120q0 -25 -148 -284q-65 -128 -79 -128q-164 -218 -286 -294q-160 -113 -276 -113h-11q-121 0 -286 161q-11 0 -235 224q-40 -74 -98 -157q-105 -171 -105 -174q-137 -118 -252 -138q-16 0 -43 -4
q-98 0 -489 126q-106 54 -158 151q-32 61 -59 478q-19 151 -46 747q0 37 3 169q-11 307 -26 481v108q-12 119 -12 129v57l19 123v6q33 33 70 97q174 147 190 167q40 23 143 143q100 95 182 182q109 41 450 90zM189 1735v-34q0 -32 16 -142q-4 -26 -4 -42v-55
q15 -165 27 -498q-4 -133 -4 -169q27 -569 69 -1030q0 -90 49 -169q55 -57 218 -97q227 -70 289 -70q124 13 155 104v202q0 36 12 180v4q0 68 -4 169q0 36 125 127q2 1 7 1h8q25 -2 118 -146q27 -65 332 -372q198 -180 268 -180h4q100 0 309 169q100 114 100 198v15
q0 70 -127 109q-103 69 -215 203q-153 157 -241 296q-142 142 -154 207v26q0 26 236 361q155 272 220 401q66 140 66 217q0 178 -282 270q-92 43 -143 43h-15q-64 0 -143 -171q-59 -71 -226 -345q-81 -107 -123 -194q-76 -139 -146 -227l-12 -3h-3q-13 0 -13 174
q-15 650 -23 720q-24 108 -133 108q-72 0 -321 -96q-39 0 -230 -132q-61 -22 -66 -132z" />
    <glyph glyph-name="l" unicode="l" horiz-adv-x="2455" 
d="M1074 2730q80 -3 171 -62q97 -85 92 -188l24 -963q-2 -67 2 -229l15 -614l1 -85q3 -22 24 -20l433 135q132 28 162 26l42 -1q66 -3 148 -55q85 -70 110 -165q31 -152 28 -215q-15 -345 -17 -400q-13 -54 -36 -108q-6 -143 -408 -463q-77 -73 -304 -137
q-275 -73 -433 -119q-63 -33 -225 -87q-39 -16 -205 -56q-248 -20 -320 34q-41 18 -87.5 89.5t-68.5 148.5t-40 191t-45 464q-8 159 -19 535.5t-18.5 773t-7.5 406.5l3 60q30 159 79 311q54 172 120 374t103 238q73 65 155 75q75 48 493 108zM470 2401q3 -86 54 -449
q22 -258 55.5 -952t59.5 -1150q-4 -223 35 -254q73 -61 145 -66l19 -1q57 -3 333 89l244 71q117 22 320 82q124 44 390 105q44 11 59 60q4 246 8 326q-8 249 -54 276q-35 59 -115 62l-19 1q-89 4 -449 -132q-243 -76 -263 -72q-32 5 -33 69q-10 217 -26 815q0 276 -25 1200
q4 92 -146 121q-39 2 -326 -52l-232 -76q-32 -40 -34 -73z" />
    <glyph glyph-name="m" unicode="m" horiz-adv-x="3442" 
d="M946 2711l7 1q172 3 176 -26q112 -129 280 -282q87 -88 139 -149q24 -33 141 -272l20 2q92 137 172 292q10 8 142 236q122 189 226 205q74 22 152 22q456 -34 461 -73q35 -29 146 -176l210 -260q45 -56 73 -156l3 -29q14 -110 10 -263q-6 -1351 -5 -1611q-6 -75 -5 -426
q-6 -98 -61 -158q-38 -47 -315 -183l-261 -118q-100 -39 -168 -47l-7 -1q-53 -7 -135 -10t-154 100q-95 90 -114 142q-141 150 -175 262q-16 46 -41 269q-75 -9 -198 63l7 -58q45 -283 46 -288q3 -23 52 -255l5 -44q7 -58 -20 -119q-60 -90 -146 -100q1 -8 -23 -11l-60 -8
q-50 -6 -444 39q-203 21 -264.5 49t-79.5 65q-89 128 -188 253t-124.5 161t-30.5 76q-36 169 -168 950q-45 265 -136 684q-54 255 -86 507l-3 23q-10 83 30 113q22 67 93 127q63 69 211 144q58 26 296 180q75 31 123 65l136 76q38 14 55 17zM442 1615l15 -119
q89 -464 138 -673q31 -150 139.5 -685t124.5 -662q10 -78 81 -101q170 -24 353 -46.5t227 -16.5l39 4q97 12 88 92q-7 52 -55 269l-4 34q-1 9 -47 290v5q-43 229 -96.5 435.5t-51 211.5t1.5 5l4 1q26 -14 82 -99q87 -110 244 -352q84 -98 205 -83q99 13 167 130.5t168 293.5
q7 11 22 10q13 -1 15 -22q10 -77 -5 -868q-5 -147 0 -180l2 -23q13 -99 177 -97q109 13 521 220q116 70 141 90q37 5 26 414q11 122 9 901t1 946q0 25 -10 101v4q-5 35 -79 84q-109 26 -268 75q-177 45 -345 40q-113 -14 -214 -246q-122 -185 -209 -307q-153 -243 -197 -290
q-2 -1 -7 -1q-26 -4 -63 110q-169 325 -253 507q-5 3 -65 120q-39 64 -85 81q-2 13 -93 14q-44 -5 -274 -120q-137 -98 -257 -176q-67 -35 -225 -164q-92 -58 -87 -100q0 -1 -1 -57z" />
    <glyph glyph-name="n" unicode="n" horiz-adv-x="3058" 
d="M1275 2697q184 0 230 -68q48 -40 105 -148q12 -5 50 -103h14q24 0 65 51q229 248 243 248q89 16 107 16h30q13 0 19 3q132 -19 253 -26q168 -15 359 -125q87 -51 144 -119q56 -93 56 -214q-31 -168 -54 -456l-46 -364q-68 -345 -130 -814q-8 -85 -39 -235q0 -13 -42 -179
q-46 -311 -69 -311q-25 -24 -84 -117q-4 -1 -74 -112q-68 -82 -116 -164q-103 -89 -179 -127q-80 -35 -158 -60q-113 -37 -344 -101q-85 -22 -122 -22q-91 0 -176 62q-76 56 -118 246l-30 103h-26q-32 -66 -126 -100q-335 -111 -526 -115h-15q-82 0 -189 48
q-123 88 -131 218v188q0 105 -19 575q0 89 -38.5 713t-38.5 678v4q-2 125 99 208q64 56 255 259q56 73 176 188q84 107 152 127q77 32 211 71t221.5 56.5t100.5 17.5zM189 1770q0 -33 25 -341t48 -921q4 -33 4 -122q19 -507 19 -590v-172q0 -93 98 -128q45 -21 105 -21
q105 0 339 55q220 51 220 132v46q0 85 7 300q0 27 -3 103q5 101 12 101q32 0 118 -301q54 -120 145 -428q24 -119 83 -178q25 -25 88 -25q43 0 230 51q122 30 277 84q52 28 52 74v50q0 194 35 433q0 68 58 449q0 36 49 299q24 207 54 373q0 20 46 256q16 171 66 451v31
q0 142 -224 179q-406 62 -505 62h-11q-21 -13 -56 -75q0 -53 -43 -263q-11 -95 -57 -300q-11 -264 -44 -264q-42 0 -110 278q-103 254 -129 347q0 13 -66 176q-56 193 -178 193q-22 0 -151 -39q-105 -40 -225 -97q-38 -27 -192 -104l-136 -82q-48 -54 -48 -72z" />
    <glyph glyph-name="o" unicode="o" horiz-adv-x="2736" 
d="M1687 2282h111q183 -19 353 -129q276 -195 379 -510q53 -195 73 -330q22 -135 22 -299v-23q0 -109 -65 -500q-80 -334 -167 -499q-36 -57 -115 -207q-101 -123 -242 -227q-52 -37 -390 -226q-56 -32 -165 -76q-44 -33 -149 -82q-7 -14 -80 -33l-71 -33l-166 4
q-68 0 -208.5 44.5t-266.5 114.5q-126 92 -231 238q-74 110 -74 123q-71 132 -139 398q-30 225 -30 258q-5 133 -6 133q2 18 2 40v129q30 276 57 347q43 188 141 405q62 139 128 218q74 59 291 214q95 75 140 91q84 62 247 162l134 89q207 166 487 166zM617 764
q0 -735 309 -1012q92 -95 234 -157l264 -77q42 -4 48 -4q143 0 388 85q56 15 271 214q52 54 117 198q55 65 125 281q96 330 96 479q27 134 27 231q0 143 -26 346q-20 167 -113 382q-42 69 -102 156q-155 163 -243 196q-124 65 -224 70h-89q-191 0 -400 -125
q-41 -37 -146 -112q-116 -100 -179 -187q-127 -169 -186 -305q-79 -157 -151 -487q-20 -130 -20 -172zM1699 1518h11q74 0 112 -200q16 0 32 -412v-35q0 -400 -109 -547q-105 -162 -295 -145h-19q-69 9 -91 108q-34 135 -34 193q4 68 4 115v87q19 173 50 295q0 86 65 254
q57 160 131 250q28 37 143 37z" />
    <glyph glyph-name="p" unicode="p" horiz-adv-x="3023" 
d="M1664 2720q238 20 513 -69q100 -25 285 -139q208 -153 247 -226q74 -124 121 -253q91 -188 117 -395q3 -166 -28 -306q-21 -72 -69 -147q-36 -13 -169 -195q-97 -73 -195 -208q-16 -2 -234 -270q-53 -52 -104 -81q6 -38 97 -261q2 -20 91 -318q7 -20 9 -39
q6 -43 -32 -151q-54 -70 -122 -112q-49 -20 -239 -246q-27 -24 -108 -111q-8 -6 -143 -63q-76 -32 -112 -37q-192 -25 -265 -35h-4q-198 -26 -482 36q-114 61 -121 122q-20 35 -25 72l-10 71q-20 421 -52 667q-2 75 -5 101q-5 34 -24 151q-1 9 -9 104l-80 395
q-143 9 -146 29q-92 33 -146 136q-17 50 -19 63l-13 103l-105 417l-19 147q-12 90 57 174q206 197 392 361t242 185q158 151 225 159q264 137 684 169zM193 1683l15 -124q4 -26 105 -413l15 -121q11 -73 121 -115q33 -3 49 -1q31 4 75 53h7q21 3 39 -79q29 -112 101 -485
q5 -40 10 -107q16 -95 23 -151q34 -343 54 -642q-6 -50 5 -133l6 -50q10 -74 64 -97q241 -55 428 -30q43 5 141.5 18t121.5 16q109 14 153 131q14 38 3 116l-20 151q-7 115 -9 125q-64 350 -73 419q-9 62 95 127q238 174 328 262q232 254 278 368q89 160 97 282
q-4 117 -12 207l-6 18q-8 85 -10 107q-15 116 -94 267q-72 128 -228 270q-119 96 -329 145q-217 74 -555 30t-668 -251l-101 -98q-17 -2 -75 -69q-74 -58 -110 -105q-25 -38 -44 -41zM1713 1567q52 7 77 -39q10 -23 12 -41l1 -7q18 -141 -68 -420q-38 -101 -171 -290
q-18 -18 -28 -19q-25 -3 -58 147q-46 114 -70 293q-49 107 -63 211q-5 40 80 66q66 20 245 90q17 5 43 9z" />
    <glyph glyph-name="q" unicode="q" horiz-adv-x="2840" 
d="M1824 2375q198 0 458 -197q41 -17 143 -124q187 -225 200 -280q65 -110 84 -183.5t19 -94.5l4 -145q10 -388 -40 -591q-29 -196 -86 -318q-46 -142 -122 -321q59 -83 92 -184q68 -112 68 -228q0 -54 -67 -174q-4 -7 -79 -66q-38 -42 -125 -90q-265 -199 -332 -202
q-73 -65 -196 -147q-64 -18 -102 -25q-6 3 -19 3q-21 0 -21 -3q-102 10 -190 73q-121 96 -165 135q-81 -20 -253 -20q-248 0 -497 136q-95 63 -227 196q-158 190 -208 347q-35 62 -68 250q-35 136 -35 297v257q0 319 209 804q136 192 248 327q231 255 686 412
q103 50 403 103q6 0 209 53h9zM189 665v-234q0 -363 171 -676q289 -433 742 -433q215 0 285 38h-6q95 -81 95 -105l8 4q0 7 34 -18v-20l8 4q0 2 94 -57q18 -17 91 -34v1l-9 3h19q17 0 17 -3l-9 3h21l-9 -3v-5l15 7v-5q51 26 235 166l107 88q34 31 47 93q8 32 8 41
q0 66 -77 123v17l-7 -3q0 -7 -108 78q0 5 -37 40l-51 69v-5q83 141 137 264q112 327 112 619v235q-26 425 -58 481q-82 299 -160 380q-77 100 -172 165q-128 85 -306 102q-5 0 -40 3q-114 2 -271 -31q-250 -99 -391 -234q-132 -117 -178 -186q-196 -252 -207 -334
q-150 -359 -150 -638zM1502 1488q109 -24 109 -289q0 -528 -99 -732l-31 -80h12q-48 69 -80 69h-4q-43 0 -55 -9q0 -10 -32 -10q0 -12 17 -2q0 -6 -32 -6q0 -10 -37 -26q0 -5 -29 -5q-2 -9 -17 -16q0 -3 -32 -3q0 -10 -7 -14q0 -5 -32 -5q0 -11 17 -1q0 -7 -32 -7
q0 -10 -58 -40q-130 -70 -130 -219q7 -14 7 -17h-4l19 -62h-5l21 -57q-93 0 -135 92q-25 44 -36 194q-8 94 -8 103q23 339 57 410q38 176 79 255q29 45 70 147q61 117 117 195q152 143 187 143q113 30 183 -8zM1291 562q122 29 130 37q49 145 49 317q3 0 3 69
q-91 -83 -157 -288q-18 -38 -25 -135z" />
    <glyph glyph-name="r" unicode="r" horiz-adv-x="2802" 
d="M1635 2733q160 -16 211 -44q10 -11 149 -67q97 -51 196 -135q101 -106 155 -175q109 -189 109 -267q12 -11 25 -154h2l-39 -418q-22 -278 -98 -519l-68 -157q20 -27 45 -107q141 -193 285 -286q83 -64 83 -139q0 -28 4 -32q10 -301 -35 -466l-31 -218q-38 -188 -110 -249
q-81 -81 -225 -81q-414 0 -609 200q-9 0 -116 99v-105q0 -91 -88 -202q-63 -61 -117 -61q-20 -11 -50 -11h-23q-121 0 -438 69q-159 33 -196 79q-70 73 -70 192q-34 427 -50 694q0 122 -46 535q0 41 -6 78h-58q-126 0 -217 86q-55 45 -76 156q-54 404 -73 674q2 119 84 381
q22 131 52 131q155 92 212 137q88 69 270 160q354 149 445 149q247 73 512 73zM209 1564v-39q0 -70 50 -470q7 -59 55 -105q55 -34 124 -34h4q43 0 126 46h16q27 0 39 -279q39 -342 39 -433q0 -56 31 -460q0 -26 23 -309q8 -121 67 -121q17 -10 236 -57q227 -35 283 -35
q103 0 137 147v9q0 41 -19 286q0 77 -23 188q7 58 12 58q25 0 110 -165q33 -69 195 -231q171 -152 275 -173q114 -38 308 -38q127 0 171 106q65 368 65 392v8q-5 28 -116 55q-142 84 -333 273q-145 165 -164 250q-8 0 -13 33v18q0 21 113 145q131 199 171 292q59 144 79 258
t18 235q0 71 -86 282q-59 110 -168 223q-115 117 -211 161q-169 89 -471 89q-117 0 -411 -85l-159 -58q-176 -75 -302 -167q-271 -179 -271 -295zM1681 1434q110 -10 110 -86q0 -45 -68 -198q-21 -65 -220 -306q-146 -115 -182 -115q-37 0 -47 183q-22 144 -55 234
q-34 71 -34 106v12q0 47 205 114q162 56 291 56z" />
    <glyph glyph-name="s" unicode="s" horiz-adv-x="2606" 
d="M1746 2596q273 0 451 -196q52 -49 93 -137q53 -154 95 -359q50 -181 100 -400q23 -103 23 -116q0 -9 -30 -99q-52 -191 -110 -265q-45 -85 -143 -193q56 -175 134 -422l37 -186l4 -26q0 -228 -133 -574q-35 -82 -84 -160q-48 -81 -163 -192q-125 -131 -196 -151
q-234 -149 -351 -177q-279 -114 -625 -110q-172 25 -246 86q-59 34 -189 143q-29 49 -91 260q-38 114 -83.5 288t-45.5 452q5 58 54 119q39 37 136 65q108 34 115 59q-154 88 -299 307q-188 325 -10.5 844t600.5 827q173 115 321 172q199 84 408 121q79 20 228 20zM297 702
q40 -63 101 -141q168 -178 239 -178q0 -15 317 -49h12q41 0 183 38q15 0 221 51q46 18 67 18q7 -3 11 -9v-23q0 -53 -79 -170q-76 -137 -182 -266q-66 -52 -114 -57h-18q-10 0 -17 67l8 102q0 75 -82 162q-17 10 -47 15q-81 0 -544 -155q-34 -19 -51 -43q0 -290 44 -342
q33 -110 122 -202q29 -36 171 -120q9 0 62 -28q40 -23 87 -29q313 0 396 42q52 0 319 153q36 32 76 52q0 9 76 79q92 92 151 174q154 183 205 294q109 184 109 369q4 0 4 53v38q0 43 -106 268q-41 57 -115 104q-49 42 -178 72q-106 20 -300 20q0 3 -33 3l-323 -7
q-113 0 -113 73q69 268 244 473q185 171 276 171h8q17 0 17 -17v-4q0 -47 -72 -234l-28 -109q0 -106 110 -155q26 -4 36 -7q377 20 377 42q33 0 97 62q66 100 160 308q31 110 31 235q0 138 -70 333q-63 126 -233 206q-63 28 -183 28q-287 0 -512 -100q-186 -66 -359 -178
q-281 -203 -490.5 -631t-87.5 -851z" />
    <glyph glyph-name="t" unicode="t" horiz-adv-x="3124" 
d="M2331 2636h42q207 0 303 -141q333 -395 340 -464q14 -38 -8.5 -180.5t-47.5 -197.5q-131 -386 -170 -438q0 -24 -75 -77q-47 -31 -298 -87q-149 -23 -182 -23h-54q-56 0 -56 -52v-8q0 -51 -4 -72q23 -698 43 -980q-4 -29 -8 -142l4 -40q0 -295 -109 -471
q-62 -75 -144 -110q-138 -72 -282 -72q-218 -4 -236 -8q-222 22 -247 55q-169 85 -223 142l-115 85q-148 124 -180 223q-46 132 -46 330v54q0 128 73 706q-39 -16 -61 -20q-57 0 -207 82q0 4 -76 58q-74 50 -122 103t-93 107q-18 51 -25 99.5t-7 66.5v39q0 22 28.5 308
t55.5 357q7 67 50 124q69 63 234 139q85 46 545 222q89 35 731 191q229 58 471 81q109 11 156 11zM189 1191v-15q0 -80 80 -114q26 -4 35 -8q56 0 274 102l303 176l23 6q11 0 11 -24q0 -49 -50 -235q-80 -369 -111 -616q-46 -425 -46 -513v-30q0 -319 111 -402
q60 -96 268 -96h34q172 0 484 109q53 46 53 101q0 164 -8 391l19 407q12 269 27 738q27 329 27 346q0 55 147 55q398 0 398 46q20 0 149 328q132 346 132 442q0 122 -187 122h-19q-73 0 -390 -38q-357 -77 -768 -189q-61 0 -665 -246l-222 -121q-27 -34 -47 -163
q-12 -117 -37 -310t-25 -249z" />
    <glyph glyph-name="u" unicode="u" horiz-adv-x="2709" 
d="M2070 2522q108 -18 148 -51q99 -77 134 -222q58 -308 101 -633q-2 -46 31.5 -283t43.5 -326q21 -133 27 -309q5 -500 -54 -770q-81 -344 -237 -534q-44 -62 -195 -139q-337 -121 -437 -116q-131 21 -175 54q-72 42 -113 120q-8 0 -15 4q-22 2 -79 -77
q-126 -104 -191 -123q-89 -18 -143 -16q-305 9 -519 293q-88 132 -174 341.5t-112 363.5q-55 264 -44 479l1 15q11 219 67 479q15 61 55 321q28 106 66 384q33 142 78 178q55 66 271 101q253 60 401 52q87 15 133 13q98 -15 145 -61q50 -69 85 -69q-47 120 -44 169v12
q8 157 264 223q256 90 469 125q5 3 12 2zM1455 2164v-7q-1 -13 30 -107q25 -87 36 -324q-7 -210 -8 -384l-1 -26q-7 -123 -62 -361q-65 -300 -117 -370q-79 -161 -126 -176q-154 -96 -191 -97q-62 3 -72 260l1 26q18 343 162 836q47 254 102 412q5 29 6 46l1 15q4 70 -87 84
l-315 -22q-293 -59 -366 -87q-41 -25 -69 -141q-31 -236 -88 -531q-3 -47 -63 -331q-29 -244 -32 -304q-15 -304 80 -567q69 -169 258 -315q61 -50 207 -102q105 -32 152 -34l31 -2q149 -7 385 203q16 11 25 10h9q4 0 8 -88q32 -46 65 -47l99 -5q94 -5 232 56
q174 53 231 118q36 53 63 184q92 384 143 628q83 339 91 488q5 24 16 186l-1 25q5 37 6 73l3 47q-3 245 -19 465q-29 163 -46 288q-47 179 -91 180q0 9 -79 28q-221 -46 -519 -152q-88 -34 -90 -78z" />
    <glyph glyph-name="v" unicode="v" horiz-adv-x="3032" 
d="M895 2410h22q238 -38 325 -69q46 0 187 -58q26 -2 54 -36q75 109 149 109q36 22 384 35h139q43 0 170 -31q41 0 139 -31q78 0 260 -90q128 -89 163 -200q37 -98 37 -184v-88q0 -72 -103 -310q-73 -243 -96 -297q-48 -196 -108 -299q0 -29 -68 -226q-40 -102 -40 -128
q0 -40 -56 -203q-20 -84 -73 -219q-66 -256 -108 -328q-27 -74 -153 -256q-101 -151 -174 -175q-330 -86 -571 -61q-23 0 -619 116q-165 37 -229 129q-77 88 -190 448q-127 377 -184 766q-65 390 -92 1131q0 79 55 157q54 57 349 216q307 160 363 171t68 11zM189 1844
q27 -628 70 -962q42 -332 116 -605q130 -455 196 -578q32 -97 97 -148q99 -52 188 -52h8q189 0 600 158q121 56 162 150q78 237 78 328q0 7 123 573l46 181q0 19 91 282q23 65 69 266q205 525 205 569q50 96 50 122v19q0 83 -135 114h-125q-417 -13 -417 -56
q-11 -19 -53 -141q-115 -266 -158 -404l-43 -143q-14 -84 -42 -176q-85 -391 -85 -386q-10 0 -28 -153q-8 0 -32 -115l-16 -16q-37 0 -65 453q-15 92 -44 380t-48 507q-42 246 -77 246q-29 8 -34 8q-172 -32 -665 -329q-32 -41 -32 -92z" />
    <glyph glyph-name="w" unicode="w" horiz-adv-x="3662" 
d="M848 2511q135 7 239 3q107 0 177 -107q43 -40 175 -228q67 -96 94.5 -170.5t27.5 -115.5q-4 -120 -33 -252q132 67 293 93q184 0 233 -48q60 -28 115 -71h26v21l-77 147q-45 106 -49 203v72q18 85 65 129q95 87 213 148q95 75 378 163q0 5 49 12q46 0 129 -90
q49 -21 199 -186q1 -9 122 -123q0 -7 57 -80q0 -7 75 -125q70 -121 167 -586q31 -223 31 -549t-69 -576q-57 -286 -184 -570q-81 -222 -180 -313q-43 -35 -220 -66q-461 -73 -576 -73q-172 20 -172 42q-41 14 -141 130q-42 50 -113 339q-38 -88 -149 -269q-23 -48 -158 -183
q-110 -78 -182 -78q-33 -15 -85 -15q-269 -8 -284 -8h-23q-417 0 -651 596q-82 180 -108 259q-34 72 -49 118q-40 149 -62 280q-69 287 -80 831q15 645 125 909q15 74 73 187q20 64 106 116q131 64 476 84zM2563 1729v-8q0 -14 60 -111q37 -67 101 -398l16 -344
q0 -270 -134 -769q-15 -23 -14 -23q-52 0 -170 338l-43 235q-19 76 -57 477q-42 94 -156 94q-57 0 -321 -94q-103 -25 -153 -159q-47 -75 -100 -212q-58 -99 -192 -403q-90 -195 -108 -199h-1q-21 11 -21 74v11q46 630 65 974q35 170 54 388q38 178 38 232q0 137 -126 137
q0 7 -87 8q-72 0 -424 -36q-174 -18 -174 -58q-50 -80 -104 -351q-15 -52 -73 -397q-23 -205 -23 -386q0 -391 85 -821q74 -258 93 -313l79 -165q22 -16 41 -64q118 -125 315 -125q16 0 284 7q136 0 229 96q113 122 171 231q38 80 199 354q11 11 20 11q32 0 63 -162
l100 -332q16 -46 101 -129q61 -34 135 -34q137 7 548 69q188 35 188 75q77 109 207 464q51 107 82 320q57 182 62.5 565.5t-67.5 716.5q-74 285 -156 408q-69 87 -153 87h-19q-50 0 -180 -79q-124 -78 -239 -138q-41 -33 -41 -62z" />
    <glyph glyph-name="x" unicode="x" horiz-adv-x="2771" 
d="M975 2391h27q114 0 188 -135l219 -373l59 -105v-13h36q0 18 120 190l203 282q78 65 159 65h34q106 0 345 -154q100 -76 109 -90q123 -108 159 -170q30 -73 30 -117q0 -64 -72 -236q-57 -118 -194 -285q-128 -156 -228 -308l-101 -146v-12q205 -335 356 -546
q99 -124 148 -228q50 -93 79 -229q8 -24 8 -42v-30q0 -106 -74 -219q-96 -217 -290 -420q-23 -17 -198 -86q-89 -22 -104 -22q-286 0 -343 69q-128 113 -158 188q-88 161 -178 293q-10 22 -25 26h-23q-40 -89 -63 -125q-66 -86 -90 -151q-39 -46 -91 -133
q-137 -152 -173 -152h-27q-18 0 -18 -3q2 0 -120 49q-119 29 -248 92q-376 163 -376 265q51 161 69 263q24 62 140 239q91 187 273 464q121 171 121 202h-14q-18 11 -69 93q-36 71 -188 293l-161 249q-35 61 -93 147q-25 30 -59 178v2q0 11 23 97q9 50 53 155q20 62 30 115
q19 11 54 87q16 24 154 142q325 231 343 231q125 54 239 54zM412 1925v-20q0 -31 73 -172q0 -23 225 -388l141 -264q44 -92 123 -237l9 -32q-27 -66 -146 -259q-89 -142 -181 -272q-290 -450 -290 -530q0 -46 129 -138q214 -163 267 -186q86 -40 183 -40q39 0 138 164
q145 210 145 214q30 36 59 91q10 0 46 69q9 0 39 64q12 12 57 88q14 21 11 21h-1q20 -15 85 -128q178 -278 241 -386q9 -1 41 -65q15 -12 92 -142q47 -36 91 -36q76 0 316 140l120 94q88 82 105 123v38q-24 117 -78 220q-46 96 -207 307q0 6 -52 80q-123 183 -180 283
q-74 115 -103 152l-3 15q0 11 47 71q106 143 113 164q9 7 124 176q22 17 52 69q6 0 68 82q100 113 128 182q47 66 82 184q12 39 12 50q0 40 -38 82q-109 120 -179 168q-156 108 -273 147q-17 5 -34 5h-12q-69 0 -96 -57q-156 -218 -342 -487q-77 -117 -84 -117q-7 -4 -8 -4
l-53 101q-58 98 -71 134q-9 0 -25 35q-50 77 -68 121q-7 1 -21 32q-69 112 -157 266q-32 61 -65 64h-20q-154 0 -277 -95q-147 -97 -230 -161q-68 -44 -68 -80z" />
    <glyph glyph-name="y" unicode="y" horiz-adv-x="2736" 
d="M1956 2494q48 0 245 -87q199 -87 301 -157q84 -54 99 -144q27 -97 27 -151q0 -60 -53 -551q-27 -246 -47 -534q-76 -480 -118 -639q-10 -26 -42 -177q-54 -122 -100 -272q-62 -167 -210 -401q-35 -71 -159.5 -220.5t-257.5 -219.5q-103 -56 -170 -56h-31q-120 0 -215 145
q-104 88 -183 144q-80 74 -181 132q-64 54 -181 122q-227 194 -245 274q-17 31 -25 92q0 54 73 183q70 80 133 124q-72 24 -206 87t-226 201q-124 182 -124 499v46q8 293 38 578q35 167 89 603q9 55 54 159q78 56 210 106q125 72 437 72q127 0 296 -71q97 -41 208 -96
q149 139 267 168q186 49 297 41zM1822 1975v-81q0 -223 -89 -665q-72 -236 -143 -321q-96 -110 -154 -110h-15q-44 0 -51 59q30 322 69 532q34 302 73 512v24q0 98 -119 173q-57 25 -130 25h-23q-105 0 -364 -46q-153 -51 -153 -97q-7 -19 -38 -257l-77 -661
q-69 -459 -69 -558q0 -151 128 -284q61 -45 277 -110q106 -46 378 -85q50 -17 50 -59q0 -26 -1 -26q-51 -169 -146 -239q-211 -124 -304 -141q-40 -22 -40 -51v-4q0 -31 116 -119q44 -44 165 -130q201 -174 204 -199q40 -42 78 -42h15q59 0 153 63q70 35 277 287
q199 293 267 496l101 281q11 68 61 259l62 365q27 132 42 447q19 116 38 365q39 309 39 377q0 129 -100 171q-69 35 -148 35h-20q-108 0 -332 -85q-77 -46 -77 -101z" />
    <glyph glyph-name="z" unicode="z" horiz-adv-x="2951" 
d="M2289 2249q118 0 206 -63q114 -101 114 -202q7 0 12 -44q-4 -64 -4 -100v-65q0 -79 27 -355q0 -30 11 -210v-4q0 -70 -44 -153l-123 -142q-67 -125 -228 -294l-137 -147q41 0 239 70q165 49 227 49h34q93 0 170 -83q43 -67 43 -128q7 0 7 -32v-399q0 -85 -46 -260
q0 -3 -23.5 -63t-104.5 -185q-93 -121 -116 -147q-133 -97 -440 -157q-222 -65 -637 -131q-88 -29 -262 -53q-141 -35 -221 -47q-220 -30 -408 34q-96 44 -202 150q-89 119 -89 165q-27 121 -27 202v73q0 64 -7 109q17 273 39 273l48 196l76 106q32 61 259 297
q76 71 126 139h-40q-19 0 -218 -46q-57 -11 -112 -11q-89 0 -215 143q-75 135 -121 311q-42 148 -42 238q11 217 45 342q47 144 62 222q34 57 73 156q27 46 61 46q168 54 313 54h89q33 0 77 -4q105 14 400 23q113 19 562 61q420 66 547 66zM786 1969q-73 4 -129 4h-31
q-268 -13 -268 -57q-1 0 -7 -36q4 -42 4 -63q0 -30 -4 -49q11 -226 42 -467v-56q0 -93 87 -165q56 -34 101 -34q207 20 374 62q296 70 481 143q68 18 112 18h22q-1 0 2 -8q0 -29 -215 -233q-1 -12 -395 -415q-183 -194 -254 -265q-234 -248 -234 -325q0 -39 131 -377
q88 -283 152 -307q22 -17 49 -17h16q51 0 737 180q338 93 1042 196q41 0 69 73q44 53 44 187v378q-10 120 -65 120q0 4 -30 4h-19q-95 0 -339 -93q-260 -85 -383 -115l-160 -58q-12 -7 -36 -7h-11q6 0 6 -5q12 31 142 135q128 159 265 303q250 259 290 357q58 73 105 120
q47 49 47 117q-12 210 -39 512v160q0 15 4 41q0 141 -149 188l-65 4q-73 0 -635 -77l-575 -57q-184 0 -281 -16z" />
    </font>
</defs>
</svg>
